<svg width="37" height="64" viewBox="0 0 37 64" fill="none" xmlns="http://www.w3.org/2000/svg">
<g clip-path="url(#clip0_253_174)">
<path d="M30.9245 63.61H6.45027C3.46607 63.61 1.03821 61.1749 1.03821 58.1818V5.42819C1.03821 2.43509 3.46607 0 6.45027 0H30.9245C33.9087 0 36.3365 2.43509 36.3365 5.42819V58.1818C36.3365 61.1749 33.9087 63.61 30.9245 63.61Z" fill="#005EA6"/>
<path d="M34.6959 6.20782V57.2453C34.6959 59.7659 32.787 61.8276 30.3732 61.9876H30.3721C30.3365 61.9898 30.3008 61.992 30.264 61.9931C30.2003 61.9965 30.1365 61.9976 30.0716 61.9976C30.0716 61.9976 29.8338 61.9798 29.3993 61.9465C28.9604 61.9132 28.3216 61.8632 27.5249 61.7976C27.2861 61.7787 27.0342 61.7576 26.7683 61.7354C26.2386 61.691 25.6571 61.6421 25.0334 61.5866C24.7848 61.5655 24.5275 61.5421 24.2648 61.5188C22.9223 61.3999 21.4187 61.2611 19.833 61.1033C19.5649 61.0778 19.2947 61.0511 19.0223 61.0234C18.9509 61.0156 18.8785 61.0089 18.8061 61.0011C17.6754 60.8867 2.33899 57.8407 2.33899 57.2453V6.20782C2.33899 3.58286 4.40899 1.45555 6.96325 1.45555H9.72397C10.165 1.45555 10.5195 1.80881 10.5574 2.26093C10.5606 2.29092 10.5639 2.32091 10.5693 2.35091C10.6493 2.80525 11.0546 3.12185 11.5043 3.12185H25.5306C25.9803 3.12185 26.3856 2.80525 26.4656 2.35091C26.471 2.32091 26.4743 2.29092 26.4775 2.26093C26.5154 1.80881 26.8699 1.45555 27.3109 1.45555H30.0716C32.6259 1.45555 34.6959 3.58286 34.6959 6.20782Z" fill="white"/>
<path d="M1.03819 9.78429C0.46561 9.78429 0 10.0476 0 10.3715V15.0688C0 15.3926 0.465616 15.656 1.03819 15.656C1.61076 15.656 2.07637 15.3926 2.07637 15.0688V10.3715C2.07637 10.0476 1.61076 9.78429 1.03819 9.78429Z" fill="#005EA6"/>
<path d="M1.03819 17.6173C0.46561 17.6173 0 17.8806 0 18.2044V22.9018C0 23.2256 0.465616 23.489 1.03819 23.489C1.61076 23.489 2.07637 23.2256 2.07637 22.9018V18.2044C2.07637 17.8806 1.61076 17.6173 1.03819 17.6173Z" fill="#005EA6"/>
<path d="M9.64921 2.23289H5.51482C5.49237 2.23289 5.47418 2.25159 5.47418 2.27465V2.74657C5.47418 2.76963 5.49237 2.78833 5.51482 2.78833H9.64921C9.67165 2.78833 9.68985 2.76963 9.68985 2.74657V2.27465C9.68985 2.25159 9.67165 2.23289 9.64921 2.23289Z" fill="#E6E6E6"/>
<path d="M27.9946 2.78844C28.2334 2.78844 28.4269 2.5895 28.4269 2.3441C28.4269 2.09869 28.2334 1.89975 27.9946 1.89975C27.7558 1.89975 27.5622 2.09869 27.5622 2.3441C27.5622 2.5895 27.7558 2.78844 27.9946 2.78844Z" fill="#E6E6E6"/>
<path d="M29.1834 2.78844C29.4222 2.78844 29.6158 2.5895 29.6158 2.3441C29.6158 2.09869 29.4222 1.89975 29.1834 1.89975C28.9446 1.89975 28.751 2.09869 28.751 2.3441C28.751 2.5895 28.9446 2.78844 29.1834 2.78844Z" fill="#E6E6E6"/>
<path d="M30.3717 2.78844C30.6105 2.78844 30.8041 2.5895 30.8041 2.3441C30.8041 2.09869 30.6105 1.89975 30.3717 1.89975C30.1329 1.89975 29.9393 2.09869 29.9393 2.3441C29.9393 2.5895 30.1329 2.78844 30.3717 2.78844Z" fill="#E6E6E6"/>
<path d="M20.8996 38.2667H11.2349C11.0826 38.2667 10.9587 38.0252 10.9587 37.7283C10.9587 37.4314 11.0826 37.1898 11.2349 37.1898H20.8996C21.0518 37.1898 21.1757 37.4314 21.1757 37.7283C21.1757 38.0252 21.0518 38.2667 20.8996 38.2667Z" fill="#E6E6E6"/>
<path d="M27.6509 44.0532H11.2952C11.0375 44.0532 10.8279 43.8117 10.8279 43.5148C10.8279 43.2179 11.0375 42.9763 11.2952 42.9763H27.6509C27.9085 42.9763 28.1182 43.2179 28.1182 43.5148C28.1182 43.8117 27.9085 44.0532 27.6509 44.0532Z" fill="#E6E6E6"/>
<path d="M36.3362 11.7435C35.7636 11.7435 35.298 11.9191 35.298 12.135V18.2024C35.298 18.4183 35.7636 18.5938 36.3362 18.5938C36.9087 18.5938 37.3743 18.4183 37.3743 18.2024V12.135C37.3743 11.9191 36.9087 11.7435 36.3362 11.7435Z" fill="#005EA6"/>
<path d="M29.1053 36.2419H7.40942C6.89971 36.2419 6.41087 36.433 6.05045 36.773C5.69003 37.1131 5.48755 37.5743 5.48755 38.0552V48.0285C5.48755 48.5094 5.69003 48.9707 6.05045 49.3107C6.41087 49.6508 6.89971 49.8418 7.40942 49.8418H29.1053C29.615 49.8418 30.1039 49.6508 30.4643 49.3107C30.8247 48.9707 31.0272 48.5094 31.0272 48.0285V38.0552C31.0272 37.5743 30.8247 37.1131 30.4643 36.773C30.1039 36.433 29.615 36.2419 29.1053 36.2419H29.1053ZM6.87263 37.4789C6.91548 37.4715 7.9314 37.3084 8.77264 37.786C9.61383 38.2635 9.93703 39.1869 9.95035 39.2259L9.98435 39.3255L9.87519 39.3437C9.71945 39.3667 9.562 39.3776 9.40438 39.3764C8.90436 39.3854 8.41089 39.268 7.97514 39.0365C7.13395 38.5591 6.81079 37.6357 6.79747 37.5967L6.76346 37.4971L6.87263 37.4789ZM11.5822 46.7385H7.71259C7.43036 46.7385 7.15969 46.6327 6.96013 46.4444C6.76056 46.2561 6.64844 46.0007 6.64844 45.7345C6.64844 45.4682 6.76056 45.2128 6.96013 45.0245C7.15969 44.8362 7.43036 44.7304 7.71259 44.7304H11.5822C11.8645 44.7304 12.1351 44.8362 12.3347 45.0245C12.5343 45.2128 12.6464 45.4682 12.6464 45.7345C12.6464 46.0007 12.5343 46.2561 12.3347 46.4444C12.1351 46.6327 11.8645 46.7385 11.5822 46.7385ZM29.1891 46.5559C29.1882 46.8462 29.0656 47.1243 28.8481 47.3295C28.6306 47.5347 28.3358 47.6504 28.0282 47.6512H25.126C24.8184 47.6504 24.5236 47.5347 24.3061 47.3295C24.0886 47.1243 23.966 46.8462 23.9651 46.5559V44.913C23.966 44.6228 24.0886 44.3447 24.3061 44.1394C24.5236 43.9342 24.8184 43.8185 25.126 43.8177H28.0282C28.3358 43.8185 28.6306 43.9342 28.8481 44.1394C29.0656 44.3447 29.1882 44.6228 29.1891 44.913L29.1891 46.5559Z" fill="#FECF0D"/>
<path d="M25.7963 46.2126H24.7253C24.6488 46.2126 24.5755 46.2604 24.5214 46.3454C24.4673 46.4304 24.437 46.5457 24.437 46.6659C24.437 46.7862 24.4673 46.9015 24.5214 46.9865C24.5755 47.0715 24.6488 47.1193 24.7253 47.1193H25.7963C25.8728 47.1193 25.9461 47.0715 26.0002 46.9865C26.0543 46.9015 26.0847 46.7862 26.0847 46.6659C26.0847 46.5457 26.0543 46.4304 26.0002 46.3454C25.9461 46.2604 25.8728 46.2126 25.7963 46.2126Z" fill="#005EA6"/>
<path d="M28.2676 46.2126H27.1966C27.1201 46.2126 27.0468 46.2604 26.9927 46.3454C26.9386 46.4304 26.9083 46.5457 26.9083 46.6659C26.9083 46.7862 26.9386 46.9015 26.9927 46.9865C27.0468 47.0715 27.1201 47.1193 27.1966 47.1193H28.2676C28.3441 47.1193 28.4175 47.0715 28.4715 46.9865C28.5256 46.9015 28.556 46.7862 28.556 46.6659C28.556 46.5457 28.5256 46.4304 28.4715 46.3454C28.4175 46.2604 28.3441 46.2126 28.2676 46.2126Z" fill="#005EA6"/>
<path d="M25.7963 45.3084H24.7253C24.6488 45.3084 24.5755 45.3561 24.5214 45.4411C24.4673 45.5262 24.437 45.6415 24.437 45.7617C24.437 45.8819 24.4673 45.9972 24.5214 46.0822C24.5755 46.1673 24.6488 46.215 24.7253 46.215H25.7963C25.8728 46.215 25.9461 46.1673 26.0002 46.0822C26.0543 45.9972 26.0847 45.8819 26.0847 45.7617C26.0847 45.6415 26.0543 45.5262 26.0002 45.4411C25.9461 45.3561 25.8728 45.3084 25.7963 45.3084Z" fill="#005EA6"/>
<path d="M28.2676 45.3084H27.1966C27.1201 45.3084 27.0468 45.3561 26.9927 45.4411C26.9386 45.5262 26.9083 45.6415 26.9083 45.7617C26.9083 45.8819 26.9386 45.9972 26.9927 46.0822C27.0468 46.1673 27.1201 46.215 27.1966 46.215H28.2676C28.3441 46.215 28.4175 46.1673 28.4715 46.0822C28.5256 45.9972 28.556 45.8819 28.556 45.7617C28.556 45.6415 28.5256 45.5262 28.4715 45.4411C28.4175 45.3561 28.3441 45.3084 28.2676 45.3084H28.2676Z" fill="#005EA6"/>
<path d="M25.7963 44.4001H24.7253C24.6488 44.4001 24.5755 44.4479 24.5214 44.5329C24.4673 44.6179 24.437 44.7332 24.437 44.8535C24.437 44.9737 24.4673 45.089 24.5214 45.174C24.5755 45.259 24.6488 45.3068 24.7253 45.3068H25.7963C25.8728 45.3068 25.9461 45.259 26.0002 45.174C26.0543 45.089 26.0847 44.9737 26.0847 44.8535C26.0847 44.7332 26.0543 44.6179 26.0002 44.5329C25.9461 44.4479 25.8728 44.4001 25.7963 44.4001Z" fill="#005EA6"/>
<path d="M28.2676 44.4001H27.1966C27.1201 44.4001 27.0468 44.4479 26.9927 44.5329C26.9386 44.6179 26.9083 44.7332 26.9083 44.8535C26.9083 44.9737 26.9386 45.089 26.9927 45.174C27.0468 45.259 27.1201 45.3068 27.1966 45.3068H28.2676C28.3441 45.3068 28.4175 45.259 28.4715 45.174C28.5256 45.089 28.556 44.9737 28.556 44.8535C28.556 44.7332 28.5256 44.6179 28.4715 44.5329C28.4175 44.4479 28.3441 44.4001 28.2676 44.4001H28.2676Z" fill="#005EA6"/>
<path d="M11.7308 15.1684H10.8608L10.4948 14.1604H8.92275L8.55675 15.1684H7.68675L9.40275 10.7344H10.0328L11.7308 15.1684ZM10.2608 13.4224L9.71475 11.9044L9.16275 13.4224H10.2608ZM12.5972 11.5204C12.4532 11.5204 12.3332 11.4744 12.2372 11.3824C12.1412 11.2904 12.0932 11.1724 12.0932 11.0284C12.0932 10.8884 12.1412 10.7724 12.2372 10.6804C12.3372 10.5844 12.4572 10.5364 12.5972 10.5364C12.7372 10.5364 12.8532 10.5844 12.9452 10.6804C13.0412 10.7724 13.0892 10.8884 13.0892 11.0284C13.0892 11.1724 13.0412 11.2904 12.9452 11.3824C12.8532 11.4744 12.7372 11.5204 12.5972 11.5204ZM12.9812 11.9104V15.1684H12.1952V11.9104H12.9812ZM14.5394 15.1684H13.7594V11.9104H14.5094V12.3604C14.7094 12.0044 15.0114 11.8264 15.4154 11.8264C15.5514 11.8264 15.6814 11.8484 15.8054 11.8924L15.7394 12.6424C15.5994 12.5984 15.4734 12.5764 15.3614 12.5764C15.1094 12.5764 14.9094 12.6624 14.7614 12.8344C14.6134 13.0024 14.5394 13.2504 14.5394 13.5784V15.1684ZM18.372 14.3644L18.618 14.9764C18.362 15.1564 18.048 15.2464 17.676 15.2464C16.932 15.2464 16.56 14.8224 16.56 13.9744V12.5704H16.02V11.9104H16.572V10.7584H17.346V11.9104H18.438V12.5704H17.346V13.9444C17.346 14.3364 17.504 14.5324 17.82 14.5324C18.004 14.5324 18.188 14.4764 18.372 14.3644ZM19.4468 11.5204C19.3028 11.5204 19.1828 11.4744 19.0868 11.3824C18.9908 11.2904 18.9428 11.1724 18.9428 11.0284C18.9428 10.8884 18.9908 10.7724 19.0868 10.6804C19.1868 10.5844 19.3068 10.5364 19.4468 10.5364C19.5868 10.5364 19.7028 10.5844 19.7948 10.6804C19.8908 10.7724 19.9388 10.8884 19.9388 11.0284C19.9388 11.1724 19.8908 11.2904 19.7948 11.3824C19.7028 11.4744 19.5868 11.5204 19.4468 11.5204ZM19.8308 11.9104V15.1684H19.0448V11.9104H19.8308ZM24.509 11.8204C24.893 11.8204 25.209 11.9444 25.457 12.1924C25.705 12.4404 25.829 12.7784 25.829 13.2064V15.1684H25.043V13.3504C25.043 13.0904 24.981 12.8904 24.857 12.7504C24.737 12.6104 24.573 12.5404 24.365 12.5404C24.145 12.5404 23.965 12.6164 23.825 12.7684C23.685 12.9204 23.615 13.1224 23.615 13.3744V15.1684H22.835V13.3564C22.835 13.1044 22.771 12.9064 22.643 12.7624C22.519 12.6144 22.353 12.5404 22.145 12.5404C21.925 12.5404 21.743 12.6184 21.599 12.7744C21.459 12.9264 21.389 13.1284 21.389 13.3804V15.1684H20.609V11.9104H21.377V12.3784C21.469 12.2064 21.603 12.0704 21.779 11.9704C21.959 11.8704 22.155 11.8204 22.367 11.8204C22.587 11.8244 22.783 11.8764 22.955 11.9764C23.127 12.0764 23.255 12.2184 23.339 12.4024C23.455 12.2184 23.617 12.0764 23.825 11.9764C24.033 11.8724 24.261 11.8204 24.509 11.8204ZM29.7175 13.4704C29.7175 13.5744 29.7095 13.6904 29.6935 13.8184H27.2095C27.2615 14.0504 27.3715 14.2344 27.5395 14.3704C27.7115 14.5024 27.9335 14.5684 28.2055 14.5684C28.6015 14.5684 28.9595 14.4564 29.2795 14.2324L29.5915 14.7904C29.1875 15.0904 28.7155 15.2404 28.1755 15.2404C27.8795 15.2404 27.6155 15.1924 27.3835 15.0964C27.1555 15.0004 26.9715 14.8724 26.8315 14.7124C26.6915 14.5484 26.5855 14.3684 26.5135 14.1724C26.4455 13.9724 26.4115 13.7604 26.4115 13.5364C26.4115 13.0404 26.5675 12.6344 26.8795 12.3184C27.1955 11.9944 27.6035 11.8324 28.1035 11.8324C28.5715 11.8324 28.9575 11.9804 29.2615 12.2764C29.5655 12.5684 29.7175 12.9664 29.7175 13.4704ZM28.1035 12.4864C27.8755 12.4864 27.6815 12.5524 27.5215 12.6844C27.3655 12.8164 27.2615 12.9964 27.2095 13.2244H28.9495C28.9175 12.9964 28.8235 12.8164 28.6675 12.6844C28.5155 12.5524 28.3275 12.4864 28.1035 12.4864Z" fill="#005EA6"/>
<path d="M22.265 25.8845L21.5852 25.3257L18.7848 27.7946L18.6032 21.3988L17.7169 21.3988L17.8374 27.8109L14.9535 25.4402L14.2934 26.0222L18.3378 29.3469L22.265 25.8845Z" fill="#005EA6"/>
</g>
<defs>
<clipPath id="clip0_253_174">
<rect width="37" height="64" fill="white"/>
</clipPath>
</defs>
</svg>
