<svg width="37" height="65" viewBox="0 0 37 65" fill="none" xmlns="http://www.w3.org/2000/svg">
<g clip-path="url(#clip0_253_174)">
<path d="M30.9245 64.1232H6.45027C3.46607 64.1232 1.03821 61.6881 1.03821 58.6949V5.94134C1.03821 2.94824 3.46607 0.513153 6.45027 0.513153H30.9245C33.9087 0.513153 36.3365 2.94824 36.3365 5.94134V58.6949C36.3365 61.6881 33.9087 64.1232 30.9245 64.1232Z" fill="#005EA6"/>
<path d="M34.6959 6.72096V57.7584C34.6959 60.279 32.787 62.3408 30.3732 62.5007H30.3721C30.3365 62.5029 30.3008 62.5052 30.264 62.5063C30.2003 62.5096 30.1365 62.5107 30.0716 62.5107C30.0716 62.5107 29.8338 62.493 29.3993 62.4596C28.9604 62.4263 28.3216 62.3763 27.5249 62.3108C27.2861 62.2919 27.0342 62.2708 26.7683 62.2486C26.2386 62.2041 25.6571 62.1552 25.0334 62.0997C24.7848 62.0786 24.5275 62.0553 24.2648 62.0319C22.9223 61.9131 21.4187 61.7742 19.833 61.6165C19.5649 61.5909 19.2947 61.5643 19.0223 61.5365C18.9509 61.5287 18.8785 61.5221 18.8061 61.5143C17.6754 61.3999 2.33899 58.3539 2.33899 57.7584V6.72096C2.33899 4.09599 4.40899 1.96869 6.96325 1.96869H9.72397C10.165 1.96869 10.5195 2.32194 10.5574 2.77407C10.5606 2.80406 10.5639 2.83405 10.5693 2.86404C10.6493 3.31839 11.0546 3.63498 11.5043 3.63498H25.5306C25.9803 3.63498 26.3856 3.31839 26.4656 2.86404C26.471 2.83405 26.4743 2.80406 26.4775 2.77407C26.5154 2.32194 26.8699 1.96869 27.3109 1.96869H30.0716C32.6259 1.96869 34.6959 4.09599 34.6959 6.72096Z" fill="white"/>
<path d="M1.03819 10.2975C0.46561 10.2975 0 10.5608 0 10.8846V15.582C0 15.9058 0.465616 16.1691 1.03819 16.1691C1.61076 16.1691 2.07637 15.9058 2.07637 15.582V10.8846C2.07637 10.5608 1.61076 10.2975 1.03819 10.2975Z" fill="#005EA6"/>
<path d="M1.03819 18.1304C0.46561 18.1304 0 18.3938 0 18.7176V23.415C0 23.7388 0.465616 24.0021 1.03819 24.0021C1.61076 24.0021 2.07637 23.7388 2.07637 23.415V18.7176C2.07637 18.3938 1.61076 18.1304 1.03819 18.1304Z" fill="#005EA6"/>
<path d="M9.64921 2.74606H5.51482C5.49237 2.74606 5.47418 2.76476 5.47418 2.78782V3.25974C5.47418 3.2828 5.49237 3.3015 5.51482 3.3015H9.64921C9.67165 3.3015 9.68985 3.2828 9.68985 3.25974V2.78782C9.68985 2.76476 9.67165 2.74606 9.64921 2.74606Z" fill="#E6E6E6"/>
<path d="M27.9946 3.30159C28.2334 3.30159 28.4269 3.10265 28.4269 2.85725C28.4269 2.61184 28.2334 2.4129 27.9946 2.4129C27.7558 2.4129 27.5622 2.61184 27.5622 2.85725C27.5622 3.10265 27.7558 3.30159 27.9946 3.30159Z" fill="#E6E6E6"/>
<path d="M29.1834 3.30159C29.4222 3.30159 29.6158 3.10265 29.6158 2.85725C29.6158 2.61184 29.4222 2.4129 29.1834 2.4129C28.9446 2.4129 28.751 2.61184 28.751 2.85725C28.751 3.10265 28.9446 3.30159 29.1834 3.30159Z" fill="#E6E6E6"/>
<path d="M30.3717 3.30159C30.6105 3.30159 30.8041 3.10265 30.8041 2.85725C30.8041 2.61184 30.6105 2.4129 30.3717 2.4129C30.1329 2.4129 29.9393 2.61184 29.9393 2.85725C29.9393 3.10265 30.1329 3.30159 30.3717 3.30159Z" fill="#E6E6E6"/>
<path d="M20.8996 38.7799H11.2349C11.0826 38.7799 10.9587 38.5383 10.9587 38.2414C10.9587 37.9445 11.0826 37.703 11.2349 37.703H20.8996C21.0518 37.703 21.1757 37.9445 21.1757 38.2414C21.1757 38.5383 21.0518 38.7799 20.8996 38.7799Z" fill="#E6E6E6"/>
<path d="M27.6509 44.5664H11.2952C11.0375 44.5664 10.8279 44.3248 10.8279 44.0279C10.8279 43.731 11.0375 43.4895 11.2952 43.4895H27.6509C27.9085 43.4895 28.1182 43.731 28.1182 44.0279C28.1182 44.3248 27.9085 44.5664 27.6509 44.5664Z" fill="#E6E6E6"/>
<path d="M36.3362 12.2567C35.7636 12.2567 35.298 12.4322 35.298 12.6481V18.7155C35.298 18.9314 35.7636 19.107 36.3362 19.107C36.9087 19.107 37.3743 18.9314 37.3743 18.7155V12.6481C37.3743 12.4322 36.9087 12.2567 36.3362 12.2567Z" fill="#005EA6"/>
<path d="M29.1053 36.7551H7.40942C6.89971 36.7551 6.41087 36.9461 6.05045 37.2862C5.69003 37.6262 5.48755 38.0875 5.48755 38.5684V48.5417C5.48755 49.0226 5.69003 49.4838 6.05045 49.8239C6.41087 50.1639 6.89971 50.355 7.40942 50.355H29.1053C29.615 50.355 30.1039 50.1639 30.4643 49.8239C30.8247 49.4838 31.0272 49.0226 31.0272 48.5417V38.5684C31.0272 38.0875 30.8247 37.6262 30.4643 37.2862C30.1039 36.9461 29.615 36.7551 29.1053 36.7551H29.1053ZM6.87263 37.992C6.91548 37.9847 7.9314 37.8216 8.77264 38.2992C9.61383 38.7767 9.93703 39.7 9.95035 39.7391L9.98435 39.8386L9.87519 39.8569C9.71945 39.8798 9.562 39.8908 9.40438 39.8895C8.90436 39.8985 8.41089 39.7812 7.97514 39.5497C7.13395 39.0723 6.81079 38.1489 6.79747 38.1099L6.76346 38.0103L6.87263 37.992ZM11.5822 47.2516H7.71259C7.43036 47.2516 7.15969 47.1459 6.96013 46.9576C6.76056 46.7693 6.64844 46.5139 6.64844 46.2476C6.64844 45.9813 6.76056 45.726 6.96013 45.5377C7.15969 45.3494 7.43036 45.2436 7.71259 45.2436H11.5822C11.8645 45.2436 12.1351 45.3494 12.3347 45.5377C12.5343 45.726 12.6464 45.9813 12.6464 46.2476C12.6464 46.5139 12.5343 46.7693 12.3347 46.9576C12.1351 47.1459 11.8645 47.2516 11.5822 47.2516ZM29.1891 47.0691C29.1882 47.3593 29.0656 47.6374 28.8481 47.8426C28.6306 48.0479 28.3358 48.1635 28.0282 48.1644H25.126C24.8184 48.1635 24.5236 48.0479 24.3061 47.8426C24.0886 47.6374 23.966 47.3593 23.9651 47.0691V45.4262C23.966 45.1359 24.0886 44.8578 24.3061 44.6526C24.5236 44.4474 24.8184 44.3317 25.126 44.3309H28.0282C28.3358 44.3317 28.6306 44.4474 28.8481 44.6526C29.0656 44.8578 29.1882 45.1359 29.1891 45.4262L29.1891 47.0691Z" fill="#FECF0D"/>
<path d="M25.7963 46.7258H24.7253C24.6488 46.7258 24.5755 46.7736 24.5214 46.8586C24.4673 46.9436 24.437 47.0589 24.437 47.1791C24.437 47.2994 24.4673 47.4147 24.5214 47.4997C24.5755 47.5847 24.6488 47.6325 24.7253 47.6325H25.7963C25.8728 47.6325 25.9461 47.5847 26.0002 47.4997C26.0543 47.4147 26.0847 47.2994 26.0847 47.1791C26.0847 47.0589 26.0543 46.9436 26.0002 46.8586C25.9461 46.7736 25.8728 46.7258 25.7963 46.7258Z" fill="#005EA6"/>
<path d="M28.2676 46.7258H27.1966C27.1201 46.7258 27.0468 46.7736 26.9927 46.8586C26.9386 46.9436 26.9083 47.0589 26.9083 47.1791C26.9083 47.2994 26.9386 47.4147 26.9927 47.4997C27.0468 47.5847 27.1201 47.6325 27.1966 47.6325H28.2676C28.3441 47.6325 28.4175 47.5847 28.4715 47.4997C28.5256 47.4147 28.556 47.2994 28.556 47.1791C28.556 47.0589 28.5256 46.9436 28.4715 46.8586C28.4175 46.7736 28.3441 46.7258 28.2676 46.7258Z" fill="#005EA6"/>
<path d="M25.7963 45.8215H24.7253C24.6488 45.8215 24.5755 45.8693 24.5214 45.9543C24.4673 46.0393 24.437 46.1546 24.437 46.2749C24.437 46.3951 24.4673 46.5104 24.5214 46.5954C24.5755 46.6804 24.6488 46.7282 24.7253 46.7282H25.7963C25.8728 46.7282 25.9461 46.6804 26.0002 46.5954C26.0543 46.5104 26.0847 46.3951 26.0847 46.2749C26.0847 46.1546 26.0543 46.0393 26.0002 45.9543C25.9461 45.8693 25.8728 45.8215 25.7963 45.8215Z" fill="#005EA6"/>
<path d="M28.2676 45.8215H27.1966C27.1201 45.8215 27.0468 45.8693 26.9927 45.9543C26.9386 46.0393 26.9083 46.1546 26.9083 46.2749C26.9083 46.3951 26.9386 46.5104 26.9927 46.5954C27.0468 46.6804 27.1201 46.7282 27.1966 46.7282H28.2676C28.3441 46.7282 28.4175 46.6804 28.4715 46.5954C28.5256 46.5104 28.556 46.3951 28.556 46.2749C28.556 46.1546 28.5256 46.0393 28.4715 45.9543C28.4175 45.8693 28.3441 45.8215 28.2676 45.8215H28.2676Z" fill="#005EA6"/>
<path d="M25.7963 44.9133H24.7253C24.6488 44.9133 24.5755 44.9611 24.5214 45.0461C24.4673 45.1311 24.437 45.2464 24.437 45.3666C24.437 45.4869 24.4673 45.6022 24.5214 45.6872C24.5755 45.7722 24.6488 45.82 24.7253 45.82H25.7963C25.8728 45.82 25.9461 45.7722 26.0002 45.6872C26.0543 45.6022 26.0847 45.4869 26.0847 45.3666C26.0847 45.2464 26.0543 45.1311 26.0002 45.0461C25.9461 44.9611 25.8728 44.9133 25.7963 44.9133Z" fill="#005EA6"/>
<path d="M28.2676 44.9133H27.1966C27.1201 44.9133 27.0468 44.9611 26.9927 45.0461C26.9386 45.1311 26.9083 45.2464 26.9083 45.3666C26.9083 45.4869 26.9386 45.6022 26.9927 45.6872C27.0468 45.7722 27.1201 45.82 27.1966 45.82H28.2676C28.3441 45.82 28.4175 45.7722 28.4715 45.6872C28.5256 45.6022 28.556 45.4869 28.556 45.3666C28.556 45.2464 28.5256 45.1311 28.4715 45.0461C28.4175 44.9611 28.3441 44.9133 28.2676 44.9133H28.2676Z" fill="#005EA6"/>
<path d="M11.7308 15.6816H10.8608L10.4948 14.6736H8.92275L8.55675 15.6816H7.68675L9.40275 11.2476H10.0328L11.7308 15.6816ZM10.2608 13.9356L9.71475 12.4176L9.16275 13.9356H10.2608ZM12.5972 12.0336C12.4532 12.0336 12.3332 11.9876 12.2372 11.8956C12.1412 11.8036 12.0932 11.6856 12.0932 11.5416C12.0932 11.4016 12.1412 11.2856 12.2372 11.1936C12.3372 11.0976 12.4572 11.0496 12.5972 11.0496C12.7372 11.0496 12.8532 11.0976 12.9452 11.1936C13.0412 11.2856 13.0892 11.4016 13.0892 11.5416C13.0892 11.6856 13.0412 11.8036 12.9452 11.8956C12.8532 11.9876 12.7372 12.0336 12.5972 12.0336ZM12.9812 12.4236V15.6816H12.1952V12.4236H12.9812ZM14.5394 15.6816H13.7594V12.4236H14.5094V12.8736C14.7094 12.5176 15.0114 12.3396 15.4154 12.3396C15.5514 12.3396 15.6814 12.3616 15.8054 12.4056L15.7394 13.1556C15.5994 13.1116 15.4734 13.0896 15.3614 13.0896C15.1094 13.0896 14.9094 13.1756 14.7614 13.3476C14.6134 13.5156 14.5394 13.7636 14.5394 14.0916V15.6816ZM18.372 14.8776L18.618 15.4896C18.362 15.6696 18.048 15.7596 17.676 15.7596C16.932 15.7596 16.56 15.3356 16.56 14.4876V13.0836H16.02V12.4236H16.572V11.2716H17.346V12.4236H18.438V13.0836H17.346V14.4576C17.346 14.8496 17.504 15.0456 17.82 15.0456C18.004 15.0456 18.188 14.9896 18.372 14.8776ZM19.4468 12.0336C19.3028 12.0336 19.1828 11.9876 19.0868 11.8956C18.9908 11.8036 18.9428 11.6856 18.9428 11.5416C18.9428 11.4016 18.9908 11.2856 19.0868 11.1936C19.1868 11.0976 19.3068 11.0496 19.4468 11.0496C19.5868 11.0496 19.7028 11.0976 19.7948 11.1936C19.8908 11.2856 19.9388 11.4016 19.9388 11.5416C19.9388 11.6856 19.8908 11.8036 19.7948 11.8956C19.7028 11.9876 19.5868 12.0336 19.4468 12.0336ZM19.8308 12.4236V15.6816H19.0448V12.4236H19.8308ZM24.509 12.3336C24.893 12.3336 25.209 12.4576 25.457 12.7056C25.705 12.9536 25.829 13.2916 25.829 13.7196V15.6816H25.043V13.8636C25.043 13.6036 24.981 13.4036 24.857 13.2636C24.737 13.1236 24.573 13.0536 24.365 13.0536C24.145 13.0536 23.965 13.1296 23.825 13.2816C23.685 13.4336 23.615 13.6356 23.615 13.8876V15.6816H22.835V13.8696C22.835 13.6176 22.771 13.4196 22.643 13.2756C22.519 13.1276 22.353 13.0536 22.145 13.0536C21.925 13.0536 21.743 13.1316 21.599 13.2876C21.459 13.4396 21.389 13.6416 21.389 13.8936V15.6816H20.609V12.4236H21.377V12.8916C21.469 12.7196 21.603 12.5836 21.779 12.4836C21.959 12.3836 22.155 12.3336 22.367 12.3336C22.587 12.3376 22.783 12.3896 22.955 12.4896C23.127 12.5896 23.255 12.7316 23.339 12.9156C23.455 12.7316 23.617 12.5896 23.825 12.4896C24.033 12.3856 24.261 12.3336 24.509 12.3336ZM29.7175 13.9836C29.7175 14.0876 29.7095 14.2036 29.6935 14.3316H27.2095C27.2615 14.5636 27.3715 14.7476 27.5395 14.8836C27.7115 15.0156 27.9335 15.0816 28.2055 15.0816C28.6015 15.0816 28.9595 14.9696 29.2795 14.7456L29.5915 15.3036C29.1875 15.6036 28.7155 15.7536 28.1755 15.7536C27.8795 15.7536 27.6155 15.7056 27.3835 15.6096C27.1555 15.5136 26.9715 15.3856 26.8315 15.2256C26.6915 15.0616 26.5855 14.8816 26.5135 14.6856C26.4455 14.4856 26.4115 14.2736 26.4115 14.0496C26.4115 13.5536 26.5675 13.1476 26.8795 12.8316C27.1955 12.5076 27.6035 12.3456 28.1035 12.3456C28.5715 12.3456 28.9575 12.4936 29.2615 12.7896C29.5655 13.0816 29.7175 13.4796 29.7175 13.9836ZM28.1035 12.9996C27.8755 12.9996 27.6815 13.0656 27.5215 13.1976C27.3655 13.3296 27.2615 13.5096 27.2095 13.7376H28.9495C28.9175 13.5096 28.8235 13.3296 28.6675 13.1976C28.5155 13.0656 28.3275 12.9996 28.1035 12.9996Z" fill="#005EA6"/>
<path d="M22.265 26.3977L21.5852 25.8389L18.7848 28.3078L18.6032 21.9119L17.7169 21.9119L17.8374 28.3241L14.9535 25.9534L14.2934 26.5354L18.3378 29.8601L22.265 26.3977Z" fill="#005EA6"/>
</g>
<defs>
<clipPath id="clip0_253_174">
<rect width="37" height="64" fill="white" transform="translate(0 0.513153)"/>
</clipPath>
</defs>
</svg>
