<svg width="150" height="150" viewBox="0 0 150 150" fill="none" xmlns="http://www.w3.org/2000/svg">
<path d="M59.6713 89.7672L73.6919 50.9931H66.048L82.4316 46.2809L92.9727 50.952H86.5686L73.1097 88.1438L106.096 84.274L122.062 40.1849L45.9658 40.3013L26.7124 93.4931H27.3973L59.6713 89.7672Z" fill="#FDCF0E"/>
<path d="M58.3218 93.4589L59.6917 89.7397L27.4451 93.5137L58.3218 93.4589Z" fill="#F5EB1B"/>
<path d="M73.1097 88.1918C72.1964 90.6575 71.3014 93.1277 70.4247 95.6026L50.8425 149.712L82.4521 149.658L104.281 89.3835C104.884 87.7055 105.493 86.0342 106.096 84.3561L73.1097 88.1918Z" fill="#F5EB1B"/>
<path d="M28.3767 30.8013L96.7808 23.5959L74.3973 20.5L62.9383 18.9177L63.0822 17.8629C62.3562 8.86747 55.2032 3.21907 41.6233 0.917701L34.0205 0C35.6977 3.46199 36.5577 7.26279 36.5342 11.1096C36.4958 14.2499 35.9309 17.3616 34.863 20.315C33.4559 24.2246 31.2465 27.7966 28.3767 30.8013Z" fill="#FDCF0E"/>
<path d="M56.7809 21.3767C57.3105 21.3767 57.7398 20.9475 57.7398 20.4179C57.7398 19.8883 57.3105 19.4589 56.7809 19.4589C56.2514 19.4589 55.822 19.8883 55.822 20.4179C55.822 20.9475 56.2514 21.3767 56.7809 21.3767Z" fill="#FDCF0E"/>
</svg>
