<svg width="100" height="38" viewBox="0 0 100 38" fill="none" xmlns="http://www.w3.org/2000/svg">
<g clip-path="url(#clip0_148_703)">
<path d="M80.2988 12.4906L82.088 7.47638H78.2543C77.4986 9.54199 76.7422 11.6062 75.9851 13.6691H79.8188L77.0063 21.3365H80.9728C82.024 18.3872 83.0772 15.4386 84.1325 12.4906H80.2988Z" fill="#0D80C4"/>
<path d="M60.5867 14.141H64.6348L66.6119 8.70598H68.2602C67.5671 10.6123 66.8754 12.5145 66.1851 14.4126L63.6626 21.3366H67.7108L70.5171 13.6201C71.2606 11.5777 72.0047 9.53045 72.7496 7.47845H63.007L60.5867 14.141Z" fill="#0D80C4"/>
<path d="M35.6298 14.2594L36.3038 13.0788H34.9088C35.5896 11.212 36.2745 9.34456 36.9635 7.47638H16.2774L15.8689 8.65693H16.3632L14.3636 14.2594H23.8672L25.922 8.65693H27.4232L25.4216 14.2594H30.5747L28.0482 21.3365H31.8819L34.4758 14.2594H35.6298ZM20.3808 13.0788H18.6896C19.2342 11.6042 19.7748 10.1302 20.3113 8.65693H21.9616L20.3808 13.0788ZM29.7475 13.0788L31.3713 8.65693H32.5763C32.0494 10.1316 31.5231 11.6056 30.9975 13.0788H29.7475Z" fill="#0D80C4"/>
<path d="M8.51603 7.47638H4.4311L-0.266571 21.3365H3.57326C4.94172 17.5035 6.31085 13.6698 7.68067 9.83541H9.53727L5.63003 21.3365H9.46374C10.8336 17.5035 12.2027 13.6698 13.5711 9.83541H13.7754L14.1961 8.64262L8.10754 8.64466C8.24234 8.26068 8.38327 7.86853 8.51603 7.47638Z" fill="#0D80C4"/>
<path d="M42.7378 14.3982H42.7705H42.7297C42.0488 16.2664 41.3639 18.1346 40.6749 20.0028H39.1737L43.7039 7.31903H39.8702C38.175 11.9391 36.4804 16.5605 34.7865 21.1833H44.2104L46.3019 15.3357L47.1475 15.5583L47.1107 15.6993C47.0617 16.9356 47.9427 17.8207 49.7537 18.3545L50.7749 18.6037C50.6035 18.1053 50.549 17.5742 50.6156 17.0514C50.615 17.0405 50.615 17.0296 50.6156 17.0187C50.6723 16.6029 50.7987 16.1997 50.9894 15.8259C51.2562 15.3053 51.6162 14.8381 52.0515 14.4472L42.7685 14.3655L42.7378 14.3982Z" fill="#0D80C4"/>
<path d="M87.6923 7.47638C86.9584 9.478 86.2258 11.4803 85.4946 13.4833H87.0428C86.2258 14.4044 84.5918 16.2426 84.5918 16.2426L84.4325 16.4224L82.7189 21.3365H86.6853L87.9864 17.8174L91.7507 13.4833H89.3977C89.9655 11.8738 90.534 10.265 91.1032 8.65693H95.086C93.5351 12.878 91.9855 17.1045 90.4374 21.3365H94.4018L99.3527 7.47638H87.6923Z" fill="#0D80C4"/>
<path d="M2.90768 4.57605C2.70681 5.1153 2.41071 5.61411 2.03351 6.04869L11.2614 5.02746L8.24056 4.61896L6.69441 4.41472L6.7128 4.27173C6.61476 3.0585 5.65003 2.29668 3.81862 1.98622L2.79739 1.86163C3.02354 2.32886 3.13953 2.84172 3.13644 3.3608V3.39144C3.12632 3.79626 3.04902 4.19657 2.90768 4.57605Z" fill="#0055B8"/>
<path d="M86.1483 4.57605C85.9461 5.11513 85.6494 5.61383 85.272 6.04869L94.4999 5.02746L91.4791 4.61896L89.9329 4.41472L89.9534 4.27173C89.8526 3.0585 88.8872 2.29668 87.0571 1.98622L86.0359 1.86163C86.2621 2.32886 86.3781 2.84172 86.375 3.3608V3.39144C86.3643 3.79601 86.2877 4.19612 86.1483 4.57605Z" fill="#0055B8"/>
<path d="M87.6924 7.47632C87.4881 8.01144 87.3002 8.54452 87.1062 9.07965L99.2936 7.64992L99.359 7.47223L87.6924 7.47632Z" fill="#0055B8"/>
<path d="M80.3886 7.47638H74.0304L73.6056 8.65693H77.8233C77.6286 9.18253 77.4359 9.70743 77.2453 10.2317L81.273 9.76189L82.09 7.47638H80.3886Z" fill="#0055B8"/>
<path d="M61.3322 12.0923L65.56 11.5981L66.6119 8.70595H68.2602L67.2818 11.3959L71.5077 10.9016C71.9244 9.76054 72.3397 8.6188 72.7536 7.47638H63.0111L61.3322 12.0923Z" fill="#0055B8"/>
<path d="M37.0822 14.9252L41.1671 14.4493L43.71 7.32721H39.8701L37.0822 14.9252Z" fill="#0055B8"/>
<path d="M16.2774 7.47635L15.8689 8.6569H16.3632L14.3636 14.2594H23.8672C24.5481 12.3898 25.233 10.5224 25.922 8.6569H27.4232C26.7546 10.5237 26.0874 12.3912 25.4216 14.2594H30.5747C30.399 14.7564 30.222 15.2527 30.0437 15.7483L34.1041 15.2745C34.2294 14.9354 34.3533 14.595 34.4758 14.2532H35.6298L36.3038 13.0727H34.9088C35.5896 11.2059 36.2745 9.33839 36.9635 7.47021L16.2774 7.47635ZM20.3828 13.0788H18.6916C19.2363 11.6042 19.7769 10.1302 20.3134 8.6569H21.9637L20.3828 13.0788ZM31.0036 13.0788H29.7577L31.3815 8.6569H32.5865C32.0528 10.1316 31.5231 11.6055 30.9975 13.0788H31.0036Z" fill="#0055B8"/>
<path d="M8.51604 7.47638H4.43111L0.448303 19.2063L4.4883 18.7344C5.5463 15.7688 6.60566 12.8024 7.66638 9.83541H9.53728C8.55689 12.7221 7.57719 15.6067 6.59817 18.4893L10.6504 18.0155L13.5711 9.83541H13.7754L14.1961 8.64262L8.10755 8.64466C8.24235 8.26068 8.38328 7.86853 8.51604 7.47638Z" fill="#0055B8"/>
<path d="M82.2164 26.9432V26.9146H78.6053V26.9391H78.5501L76.1605 33.4525H77.7087C78.079 32.4122 78.448 31.3733 78.8157 30.3357H79.5693C79.1881 31.376 78.8068 32.4149 78.4256 33.4525H79.9737L82.2879 26.9391L82.2164 26.9432ZM78.9811 29.8618C79.2711 29.0448 79.5625 28.2231 79.8553 27.3966H80.6437L79.7389 29.8598L78.9811 29.8618Z" fill="#FDCF0E"/>
<path d="M85.7214 26.8083L84.6511 29.8066L84.7492 26.8083H83.301L80.9257 33.4708H82.3758L83.4542 30.4418L83.2765 33.4708H84.7941L87.1695 26.8083H85.7214Z" fill="#FDCF0E"/>
<path d="M90.5927 26.8083L88.8995 29.3961L89.8207 26.8083H88.0886L85.7133 33.4708H87.4473L88.4645 30.6134L88.1479 33.4708H89.9391L90.1536 29.8148L92.2185 26.8083H90.5927Z" fill="#FDCF0E"/>
<path d="M87.6311 25.7544C87.5501 25.9726 87.4296 26.1741 87.2758 26.3488L91.0053 25.9403L89.7798 25.7708L89.1548 25.685V25.6278C89.114 25.1376 88.7259 24.8292 87.9845 24.7046L87.576 24.6535C87.6691 24.8442 87.716 25.0541 87.7128 25.2662V25.2806C87.7118 25.4419 87.6842 25.602 87.6311 25.7544Z" fill="#FDCF0E"/>
<path d="M76.1485 30.787C76.1814 30.6438 76.1814 30.4951 76.1485 30.352C76.0832 30.1477 75.8708 29.9986 75.5092 29.9108C75.8099 29.8648 76.0947 29.7455 76.3385 29.5636C76.4218 29.5124 76.4992 29.4521 76.5693 29.3838C76.645 29.3155 76.7134 29.2395 76.7735 29.1571L77.5578 26.9104H73.6302L71.3058 33.4259H75.2274L75.5848 32.4047C75.6622 32.2397 75.7304 32.0706 75.7891 31.8981L76.0035 31.2854C76.0595 31.132 76.1026 30.9742 76.1322 30.8136L76.1485 30.7646V30.787ZM74.9231 28.0276C75.0372 28.0243 75.1513 28.0367 75.2621 28.0644C75.2903 28.0792 75.3139 28.1015 75.3301 28.1289C75.3463 28.1564 75.3546 28.1878 75.354 28.2197C75.3486 28.3675 75.3153 28.513 75.256 28.6485C75.1852 28.8972 75.0778 29.134 74.9374 29.3511C74.8892 29.3959 74.832 29.43 74.7697 29.4512C74.7074 29.4723 74.6413 29.48 74.5758 29.4737H74.4063L74.9231 28.0276ZM74.0448 30.4908C74.294 30.4908 74.437 30.5337 74.4758 30.593C74.5146 30.6522 74.4758 30.8197 74.3838 31.0995L74.1673 31.7122C74.1188 31.8977 74.0239 32.0678 73.8916 32.2066C73.7399 32.2894 73.568 32.3283 73.3953 32.3188L74.0448 30.4908Z" fill="#FDCF0E"/>
<path d="M53.728 30.3397L53.8874 29.8577H53.5953L54.6308 26.9431H53.1582C52.8028 27.9154 52.4461 28.8876 52.0879 29.8598H51.3302L52.3657 26.9411H50.8951C50.0972 29.1116 49.3 31.2827 48.5034 33.4545H50.0516C50.4206 32.4142 50.7896 31.3753 51.1586 30.3377H51.9123L50.7685 33.4545H52.3167L53.4237 30.3377L53.728 30.3397Z" fill="#FDCF0E"/>
<path d="M47.6395 26.9146L46.1567 29.9783L46.508 28.3116C46.6306 27.7765 46.7286 27.3122 46.8021 26.9186H44.5963L42.2617 33.4729H43.7507L45.2948 29.149L44.3777 33.4729H45.4357L47.6048 29.0469L46.0301 33.4729H47.5272L49.8638 26.9186L47.6395 26.9146Z" fill="#FDCF0E"/>
<path d="M39.1348 25.6972C39.0545 25.9153 38.9347 26.1167 38.7815 26.2915L42.509 25.883L41.2835 25.7135L40.6585 25.6277V25.5706C40.6197 25.0783 40.2296 24.772 39.4902 24.6453L39.0817 24.5963C39.1739 24.7873 39.2207 24.997 39.2186 25.2091V25.2213C39.2171 25.3834 39.1888 25.5443 39.1348 25.6972Z" fill="#FDCF0E"/>
<path d="M43.5546 26.9432L43.5648 26.9146H39.7863L39.6004 27.3925H39.6617L38.7548 29.8598H38.5404L38.3647 30.3357H38.5894C38.2068 31.376 37.8255 32.4149 37.4456 33.4525H38.9938L40.1008 30.3357H40.8524C40.4726 31.376 40.0913 32.4149 39.7087 33.4525H41.2589C42.0296 31.2807 42.801 29.1095 43.573 26.9391L43.5546 26.9432ZM40.2622 29.8598L41.1384 27.3966H41.9247L41.022 29.8598H40.2622Z" fill="#FDCF0E"/>
<path d="M62.1127 30.0436C62.4239 30.036 62.7239 29.9261 62.9664 29.7311C63.2233 29.4355 63.4116 29.0867 63.5179 28.7098L64.1674 26.939H60.3827L58.0686 33.4259H59.7557L60.8035 30.499C61.0363 30.499 61.165 30.5399 61.1895 30.6236C61.1871 30.8462 61.1369 31.0655 61.0424 31.267L60.2724 33.4239H61.841L62.4538 31.7122C62.5785 31.4005 62.6789 31.0795 62.754 30.7523C62.7649 30.6202 62.738 30.4878 62.6764 30.3704C62.6029 30.2376 62.417 30.1273 62.1127 30.0436ZM62.0085 28.5526L61.8799 28.91C61.8356 29.1048 61.733 29.2815 61.5857 29.4165C61.4516 29.4757 61.3053 29.5023 61.1589 29.4942L61.6736 28.0522C61.8778 28.0522 61.9901 28.0848 62.0412 28.1481C62.0923 28.2115 62.08 28.3483 62.0085 28.5526Z" fill="#FDCF0E"/>
<path d="M59.3961 26.9432V26.9146H55.6175L55.4317 27.3925H55.4929C55.1906 28.2095 54.889 29.0319 54.5881 29.8598H54.3634L54.1878 30.3357H54.4125C54.0298 31.376 53.6486 32.4149 53.2687 33.4525H54.8169L55.9239 30.3357H56.6776C56.2963 31.376 55.915 32.4149 55.5338 33.4525H57.082C57.8513 31.2807 58.6227 29.1095 59.3961 26.9391V26.9432ZM56.1057 29.8598L56.9819 27.3966H57.7703C57.468 28.2136 57.1664 29.0347 56.8655 29.8598H56.1057Z" fill="#FDCF0E"/>
<path d="M65.1682 26.9186L64.9824 27.3966H65.0436C64.7414 28.2136 64.4398 29.036 64.1388 29.8639H63.9142L63.7385 30.3398H63.9632L62.8194 33.4566H64.3676C64.7366 32.4163 65.1056 31.3773 65.4746 30.3398H66.2283C65.847 31.3801 65.4658 32.419 65.0845 33.4566H66.6327C67.402 31.2848 68.1734 29.1136 68.9468 26.9432V26.9146L65.1682 26.9186ZM65.6462 29.8598C65.9362 29.0428 66.2276 28.2218 66.5203 27.3966H67.3087L66.4039 29.8598H65.6462Z" fill="#FDCF0E"/>
</g>
<defs>
<clipPath id="clip0_148_703">
<rect width="100" height="37.3239" fill="white" transform="translate(0.000610352)"/>
</clipPath>
</defs>
</svg>
