<svg width="197" height="96" viewBox="0 0 197 96" fill="none" xmlns="http://www.w3.org/2000/svg">
<path d="M168.023 48.7367L170.564 41.6165H165.12C164.047 44.5496 162.973 47.4809 161.898 50.4102H167.342L163.348 61.2979H168.98C170.473 57.1098 171.969 52.9228 173.467 48.7367H168.023Z" fill="#0D80C4"/>
<path d="M140.032 51.0801H145.781L148.588 43.3624H150.929C149.945 46.0694 148.962 48.7705 147.982 51.4658L144.4 61.2978H150.149L154.134 50.3405C155.189 47.4402 156.246 44.5332 157.304 41.6193H143.469L140.032 51.0801Z" fill="#0D80C4"/>
<path d="M104.594 51.2483L105.551 49.572H103.57C104.537 46.9211 105.509 44.2693 106.488 41.6165H77.1133L76.5333 43.2928H77.2351L74.3958 51.2483H87.8909L90.8086 43.2928H92.9403L90.098 51.2483H97.4154L93.8278 61.2979H99.2716L102.955 51.2483H104.594ZM82.94 49.572H80.5386C81.312 47.4779 82.0796 45.3849 82.8414 43.2928H85.1849L82.94 49.572ZM96.2408 49.572L98.5466 43.2928H100.258C99.5095 45.3869 98.7622 47.4799 98.0158 49.572H96.2408Z" fill="#0D80C4"/>
<path d="M66.0921 41.6165H60.2915L53.6208 61.2979H59.0734C61.0166 55.855 62.9608 50.4111 64.9059 44.9663H67.5423L61.994 61.2979H67.4379C69.383 55.855 71.3272 50.4111 73.2704 44.9663H73.5604L74.1579 43.2725L65.5121 43.2754C65.7035 42.7302 65.9036 42.1733 66.0921 41.6165Z" fill="#0D80C4"/>
<path d="M114.687 51.4456H114.733H114.675C113.708 54.0984 112.736 56.7512 111.757 59.404H109.626L116.059 41.3931H110.615C108.207 47.9536 105.801 54.516 103.396 61.0803H116.778L119.748 52.7768L120.949 53.0929L120.896 53.2931C120.827 55.0487 122.078 56.3055 124.649 57.0635L126.099 57.4173C125.856 56.7096 125.779 55.9554 125.873 55.213C125.872 55.1976 125.872 55.1821 125.873 55.1667C125.954 54.5763 126.133 54.0036 126.404 53.4729C126.783 52.7337 127.294 52.0701 127.912 51.5152L114.73 51.3992L114.687 51.4456Z" fill="#0D80C4"/>
<path d="M178.522 41.6165C177.48 44.4588 176.44 47.302 175.402 50.1462H177.6C176.44 51.4543 174.12 54.0645 174.12 54.0645L173.893 54.3198L171.46 61.2979H177.092L178.94 56.3007L184.285 50.1462H180.944C181.75 47.8608 182.558 45.5763 183.366 43.2928H189.021C186.819 49.2868 184.619 55.2884 182.42 61.2979H188.05L195.08 41.6165H178.522Z" fill="#0D80C4"/>
<path d="M58.128 37.498C57.8428 38.2637 57.4224 38.972 56.8867 39.5891L69.9903 38.139L65.7007 37.5589L63.5052 37.2689L63.5313 37.0658C63.3921 35.343 62.0222 34.2613 59.4216 33.8204L57.9714 33.6435C58.2926 34.307 58.4573 35.0352 58.4529 35.7723V35.8158C58.4385 36.3907 58.3287 36.9591 58.128 37.498Z" fill="#0055B8"/>
<path d="M176.33 37.498C176.043 38.2635 175.621 38.9716 175.085 39.5891L188.189 38.139L183.899 37.5589L181.704 37.2689L181.733 37.0658C181.59 35.343 180.219 34.2613 177.62 33.8204L176.17 33.6435C176.491 34.307 176.656 35.0352 176.652 35.7723V35.8158C176.636 36.3903 176.528 36.9585 176.33 37.498Z" fill="#0055B8"/>
<path d="M178.522 41.6165C178.232 42.3763 177.965 43.1333 177.69 43.8932L194.996 41.863L195.089 41.6107L178.522 41.6165Z" fill="#0055B8"/>
<path d="M168.151 41.6165H159.122L158.519 43.2928H164.508C164.232 44.0392 163.958 44.7845 163.687 45.529L169.407 44.8619L170.567 41.6165H168.151Z" fill="#0055B8"/>
<path d="M141.091 48.1711L147.095 47.4692L148.588 43.3624H150.929L149.54 47.1821L155.54 46.4803C156.132 44.86 156.722 43.2387 157.31 41.6165H143.475L141.091 48.1711Z" fill="#0055B8"/>
<path d="M106.656 52.1938L112.456 51.5181L116.067 41.4047H110.615L106.656 52.1938Z" fill="#0055B8"/>
<path d="M77.1133 41.6164L76.5333 43.2928H77.2351L74.3958 51.2483H87.8909C88.8576 48.5936 89.8302 45.9418 90.8086 43.2928H92.9403C91.9909 45.9437 91.0435 48.5955 90.098 51.2483H97.4154C97.166 51.9541 96.9147 52.6589 96.6614 53.3627L102.427 52.6898C102.605 52.2083 102.781 51.7249 102.955 51.2396H104.594L105.551 49.5633H103.57C104.537 46.9124 105.509 44.2605 106.488 41.6077L77.1133 41.6164ZM82.9429 49.5719H80.5415C81.3149 47.4779 82.0825 45.3849 82.8443 43.2928H85.1878L82.9429 49.5719ZM98.0245 49.5719H96.2553L98.5611 43.2928H100.272C99.5143 45.3868 98.7622 47.4799 98.0158 49.5719H98.0245Z" fill="#0055B8"/>
<path d="M66.0922 41.6165H60.2916L54.636 58.2729L60.3728 57.6029C61.8751 53.3916 63.3794 49.1795 64.8857 44.9663H67.5423C66.1502 49.0654 64.759 53.1616 63.3688 57.2549L69.123 56.582L73.2704 44.9663H73.5605L74.1579 43.2725L65.5121 43.2754C65.7035 42.7302 65.9037 42.1733 66.0922 41.6165Z" fill="#0055B8"/>
<path d="M170.747 69.2593V69.2186H165.619V69.2535H165.541L162.147 78.5025H164.346C164.872 77.0253 165.396 75.55 165.918 74.0766H166.988C166.446 75.5539 165.905 77.0291 165.364 78.5025H167.562L170.848 69.2535L170.747 69.2593ZM166.153 73.4037C166.564 72.2436 166.978 71.0768 167.394 69.9031H168.513L167.229 73.4009L166.153 73.4037Z" fill="#FDCF0E"/>
<path d="M175.723 69.0678L174.204 73.3255L174.343 69.0678H172.287L168.914 78.5286H170.973L172.504 74.2275L172.252 78.5286H174.407L177.78 69.0678H175.723Z" fill="#FDCF0E"/>
<path d="M182.641 69.0678L180.236 72.7425L181.544 69.0678H179.085L175.712 78.5286H178.174L179.619 74.4711L179.169 78.5286H181.713L182.017 73.337L184.949 69.0678H182.641Z" fill="#FDCF0E"/>
<path d="M178.435 67.5712C178.32 67.8811 178.149 68.1671 177.931 68.4152L183.227 67.8351L181.486 67.5945L180.599 67.4726V67.3914C180.541 66.6953 179.99 66.2574 178.937 66.0804L178.357 66.0079C178.489 66.2787 178.556 66.5768 178.551 66.878V66.8983C178.55 67.1275 178.511 67.3548 178.435 67.5712Z" fill="#FDCF0E"/>
<path d="M162.13 74.7175C162.176 74.5143 162.176 74.3031 162.13 74.0998C162.037 73.8098 161.735 73.5981 161.222 73.4734C161.649 73.408 162.053 73.2386 162.4 72.9803C162.518 72.9076 162.628 72.822 162.727 72.7251C162.835 72.628 162.932 72.5201 163.017 72.4031L164.131 69.2128H158.554L155.253 78.4648H160.822L161.329 77.0146C161.439 76.7804 161.536 76.5403 161.619 76.2954L161.924 75.4253C162.003 75.2074 162.065 74.9833 162.107 74.7553L162.13 74.6857V74.7175ZM160.39 70.7992C160.552 70.7944 160.714 70.8121 160.871 70.8515C160.911 70.8725 160.945 70.9042 160.968 70.9431C160.991 70.982 161.002 71.0267 161.002 71.0719C160.994 71.2819 160.947 71.4885 160.862 71.6809C160.762 72.0341 160.609 72.3703 160.41 72.6786C160.342 72.7422 160.26 72.7907 160.172 72.8207C160.083 72.8507 159.99 72.8616 159.897 72.8527H159.656L160.39 70.7992ZM159.142 74.297C159.496 74.297 159.699 74.3579 159.754 74.442C159.81 74.5261 159.754 74.7639 159.624 75.1613L159.316 76.0314C159.248 76.2947 159.113 76.5363 158.925 76.7333C158.709 76.851 158.465 76.9062 158.22 76.8928L159.142 74.297Z" fill="#FDCF0E"/>
<path d="M130.293 74.0824L130.519 73.398H130.105L131.575 69.2593H129.484C128.979 70.6398 128.473 72.0203 127.964 73.4009H126.888L128.359 69.2563H126.271C125.137 72.3384 124.005 75.4214 122.874 78.5054H125.073C125.597 77.0282 126.121 75.5529 126.645 74.0795H127.715L126.091 78.5054H128.289L129.861 74.0795L130.293 74.0824Z" fill="#FDCF0E"/>
<path d="M121.647 69.2186L119.542 73.5691L120.041 71.2025C120.215 70.4426 120.354 69.7832 120.458 69.2244H117.326L114.011 78.5315H116.125L118.318 72.3915L117.016 78.5315H118.518L121.598 72.2465L119.362 78.5315H121.488L124.806 69.2244L121.647 69.2186Z" fill="#FDCF0E"/>
<path d="M109.571 67.4901C109.457 67.7998 109.286 68.0858 109.069 68.334L114.362 67.754L112.622 67.5133L111.734 67.3914V67.3103C111.679 66.6113 111.125 66.1762 110.075 65.9964L109.495 65.9268C109.626 66.198 109.693 66.4958 109.69 66.7969V66.8143C109.687 67.0445 109.647 67.2729 109.571 67.4901Z" fill="#FDCF0E"/>
<path d="M115.847 69.2593L115.861 69.2186H110.496L110.232 69.8973H110.319L109.031 73.4009H108.727L108.477 74.0766H108.796C108.253 75.5539 107.711 77.0291 107.172 78.5025H109.37L110.942 74.0766H112.01C111.47 75.5539 110.929 77.0291 110.386 78.5025H112.587C113.681 75.4185 114.777 72.3355 115.873 69.2535L115.847 69.2593ZM111.172 73.4009L112.416 69.9031H113.532L112.25 73.4009H111.172Z" fill="#FDCF0E"/>
<path d="M142.199 73.6619C142.641 73.6511 143.067 73.4951 143.411 73.2181C143.776 72.7984 144.043 72.3032 144.194 71.768L145.117 69.2534H139.742L136.456 78.4648H138.852L140.34 74.3086C140.67 74.3086 140.853 74.3667 140.888 74.4856C140.885 74.8015 140.813 75.1131 140.679 75.3991L139.586 78.4619H141.813L142.683 76.0314C142.86 75.5887 143.003 75.133 143.11 74.6683C143.125 74.4807 143.087 74.2926 142.999 74.1259C142.895 73.9374 142.631 73.7808 142.199 73.6619ZM142.051 71.5446L141.868 72.0522C141.805 72.3288 141.66 72.5797 141.451 72.7715C141.26 72.8555 141.052 72.8933 140.844 72.8817L141.575 70.8341C141.865 70.8341 142.025 70.8805 142.097 70.9704C142.17 71.0603 142.153 71.2546 142.051 71.5446Z" fill="#FDCF0E"/>
<path d="M138.342 69.2593V69.2186H132.976L132.712 69.8973H132.799C132.37 71.0574 131.942 72.2253 131.514 73.4009H131.195L130.946 74.0766H131.265C130.721 75.5539 130.18 77.0291 129.641 78.5025H131.839L133.411 74.0766H134.481C133.94 75.5539 133.398 77.0291 132.857 78.5025H135.056C136.148 75.4185 137.243 72.3355 138.342 69.2535V69.2593ZM133.669 73.4009L134.913 69.9031H136.033C135.604 71.0633 135.175 72.2292 134.748 73.4009H133.669Z" fill="#FDCF0E"/>
<path d="M146.538 69.2244L146.274 69.9031H146.361C145.932 71.0633 145.503 72.2311 145.076 73.4066H144.757L144.508 74.0824H144.827L143.202 78.5083H145.401C145.925 77.0311 146.449 75.5558 146.973 74.0824H148.043C147.502 75.5597 146.96 77.035 146.419 78.5083H148.617C149.71 75.4243 150.805 72.3413 151.903 69.2593V69.2186L146.538 69.2244ZM147.216 73.4009C147.628 72.2408 148.042 71.0749 148.458 69.9031H149.577L148.292 73.4009H147.216Z" fill="#FDCF0E"/>
<path d="M15.6936 54.5489L21.6334 38.1419H18.3938L25.3313 36.1465L29.7978 38.1245H27.086L21.3869 53.8702L35.3547 52.2344C37.6073 46.0104 39.8599 39.7873 42.1124 33.5652L9.89298 33.6145L1.74023 56.1383H2.03026L15.6936 54.5489Z" fill="#0055B8"/>
<path d="M15.1251 56.1238L15.7052 54.5489L2.05347 56.1469L15.1251 56.1238Z" fill="#0D80C4"/>
<path d="M21.3869 53.8789C21.0002 54.9269 20.6212 55.9739 20.25 57.0199L11.958 79.9323L25.3429 79.9091C28.423 71.4016 31.5041 62.894 34.5862 54.3865C34.8414 53.6759 35.0995 52.9682 35.3547 52.2576L21.3869 53.8789Z" fill="#0D80C4"/>
<path d="M2.44507 29.5802L31.4104 26.5291L21.9322 25.2181L17.0771 24.5424L17.138 24.0957C16.8306 20.2886 13.8017 17.8968 8.05135 16.9204L4.83202 16.5317C5.5422 17.9977 5.90636 19.6071 5.89643 21.236C5.87923 22.566 5.63904 23.8836 5.18585 25.134C4.59247 26.7911 3.65887 28.3056 2.44507 29.5802Z" fill="#0055B8"/>
<path d="M14.4724 25.5894C14.6967 25.5894 14.8785 25.4076 14.8785 25.1834C14.8785 24.9591 14.6967 24.7773 14.4724 24.7773C14.2482 24.7773 14.0664 24.9591 14.0664 25.1834C14.0664 25.4076 14.2482 25.5894 14.4724 25.5894Z" fill="#0055B8"/>
</svg>
