<svg width="24" height="20" viewBox="0 0 24 20" fill="none" xmlns="http://www.w3.org/2000/svg">
<path d="M21.6382 1.19H5.29982C4.42842 1.19 3.71842 1.90016 3.71842 2.7714V5.69688H2.28482C1.47606 5.69688 0.819824 6.35312 0.819824 7.16188V17.3539C0.819824 18.1625 1.47606 18.8189 2.28482 18.8189H7.17922C7.98562 18.8189 8.64422 18.1626 8.64422 17.3539V16.178H11.3816L10.6872 18.1178L9.35426 18.1176C9.16161 18.1176 9.00489 18.2745 9.00489 18.467C9.00489 18.6597 9.16176 18.8164 9.35426 18.8164H10.9313H10.9335H16.0051H16.0073H17.5843C17.777 18.8164 17.9337 18.6595 17.9337 18.467C17.9337 18.2744 17.7768 18.1176 17.5843 18.1176H16.2537L15.5593 16.1778H21.6365C22.5079 16.1778 23.2179 15.4676 23.2179 14.5964V2.77361C23.2201 1.90001 22.5095 1.19 21.6382 1.19ZM4.41942 2.7736C4.41942 2.28752 4.81364 1.89328 5.29974 1.89328H21.6361C22.1222 1.89328 22.5165 2.2875 22.5165 2.7736V12.3564H8.64206V7.162C8.64206 6.3556 7.98583 5.697 7.17706 5.697H4.4197L4.41942 2.7736ZM7.94066 17.3516C7.94066 17.7727 7.59801 18.1155 7.17674 18.1155H2.28474C1.86366 18.1155 1.52082 17.7729 1.52082 17.3516V7.1596C1.52082 6.73852 1.86348 6.39568 2.28474 6.39568H7.17914C7.60022 6.39568 7.94306 6.73834 7.94306 7.1596L7.94291 17.3516H7.94066ZM15.5095 18.1177H11.4307L12.125 16.1778H14.8175L15.5095 18.1177ZM21.6383 15.4768H8.64186V13.0576H22.5187V14.5941C22.5187 15.0802 22.1244 15.4768 21.6383 15.4768ZM5.36026 17.336C5.36026 17.5286 5.20339 17.6853 5.01089 17.6853H4.45309C4.26043 17.6853 4.10371 17.5285 4.10371 17.336C4.10371 17.1433 4.26059 16.9866 4.45309 16.9866H5.01089C5.20354 16.9842 5.36026 17.141 5.36026 17.336ZM6.69526 7.17956C6.69526 7.37222 6.53839 7.52894 6.34589 7.52894L3.11809 7.52909C2.92543 7.52909 2.76871 7.37222 2.76871 7.17972C2.76871 6.98706 2.92559 6.83034 3.11809 6.83034H6.34589C6.53854 6.83019 6.69526 6.98691 6.69526 7.17956Z" fill="#143B58" stroke="#143B58" stroke-width="0.9"/>
</svg>
