<svg width="40" height="40" viewBox="0 0 40 40" fill="none" xmlns="http://www.w3.org/2000/svg">
<rect width="40" height="40" rx="5" fill="#0047BA"/>
<path d="M29.7837 12.9614L18.2881 16.6964C18.1532 16.7834 17.9983 16.8344 17.8381 16.8446L13.8893 18.1252H30.3125C30.5611 18.1252 30.7995 18.224 30.9754 18.3998C31.1512 18.5756 31.25 18.814 31.25 19.0627V28.4377C31.25 29.6809 30.7561 30.8732 29.877 31.7522C28.9979 32.6313 27.8057 33.1252 26.5625 33.1252H13.4374C12.1942 33.1252 11.002 32.6313 10.1229 31.7522C9.24381 30.8732 8.74995 29.6809 8.74995 28.4377V19.0627C8.74995 18.8639 8.81182 18.6783 8.9187 18.5246L8.55307 17.3958C8.169 16.2135 8.27028 14.9271 8.83464 13.8195C9.399 12.7119 10.3802 11.8738 11.5624 11.4896L24.0443 7.43393C25.2266 7.04986 26.513 7.15114 27.6207 7.7155C28.7283 8.27986 29.5664 9.26107 29.9506 10.4433L30.3856 11.7802C30.4624 12.0166 30.4421 12.2739 30.3293 12.4955C30.2164 12.717 30.0201 12.8846 29.7837 12.9614ZM22.7637 13.2708L25.1731 9.09706C24.9864 9.1187 24.8024 9.1589 24.6237 9.21706L22.2893 9.97456L19.8368 14.2214L22.7618 13.2708H22.7637ZM27.0668 9.56018C27.0553 9.58381 27.0428 9.60695 27.0293 9.62956L25.4281 12.4046L28.3118 11.4671L28.1674 11.0227C27.9747 10.4257 27.5871 9.91069 27.0668 9.56018ZM19.6231 10.8408L16.6981 11.7914L14.2437 16.0383L17.1687 15.0877L19.625 10.8408H19.6231ZM10.4806 17.2627L11.5812 16.9064L14.0318 12.6577L12.1418 13.2727C11.4325 13.5032 10.8438 14.0061 10.5051 14.6706C10.1665 15.3352 10.1058 16.1071 10.3362 16.8164L10.4806 17.2627ZM10.6249 20.0002V28.4377C10.6249 29.1836 10.9213 29.899 11.4487 30.4264C11.9762 30.9539 12.6915 31.2502 13.4374 31.2502H26.5625C27.3084 31.2502 28.0237 30.9539 28.5512 30.4264C29.0786 29.899 29.375 29.1836 29.375 28.4377V20.0002H10.6249Z" fill="white"/>
</svg>
