<svg width="22" height="22" viewBox="0 0 22 22" fill="none" xmlns="http://www.w3.org/2000/svg">
<path d="M19.3438 16.1563H17.6961C17.5836 16.1563 17.4782 16.2055 17.4078 16.2922C17.2438 16.4914 17.068 16.6836 16.8828 16.8664C16.1256 17.6245 15.2286 18.2286 14.2414 18.6453C13.2188 19.0773 12.1196 19.2989 11.0094 19.2969C9.88675 19.2969 8.79925 19.0766 7.77738 18.6453C6.79026 18.2286 5.89325 17.6245 5.13597 16.8664C4.37733 16.1109 3.77242 15.2155 3.35472 14.2297C2.92113 13.2078 2.70316 12.1227 2.70316 11C2.70316 9.87735 2.92347 8.79219 3.35472 7.77032C3.77191 6.7836 4.37191 5.89532 5.13597 5.1336C5.90003 4.37188 6.78831 3.77188 7.77738 3.35469C8.79925 2.92344 9.88675 2.70313 11.0094 2.70313C12.1321 2.70313 13.2196 2.9211 14.2414 3.35469C15.2305 3.77188 16.1188 4.37188 16.8828 5.1336C17.068 5.31876 17.2414 5.51094 17.4078 5.70782C17.4782 5.79454 17.586 5.84375 17.6961 5.84375H19.3438C19.4914 5.84375 19.5828 5.67969 19.5008 5.55547C17.7032 2.76172 14.5578 0.912505 10.9836 0.92188C5.368 0.935942 0.865658 5.49454 0.921908 11.1031C0.978158 16.6227 5.47347 21.0781 11.0094 21.0781C14.5743 21.0781 17.7055 19.2313 19.5008 16.4445C19.5805 16.3203 19.4914 16.1563 19.3438 16.1563ZM21.4274 10.8523L18.1016 8.22735C17.9774 8.12891 17.7969 8.21797 17.7969 8.37501V10.1563H10.4375C10.3344 10.1563 10.25 10.2406 10.25 10.3438V11.6563C10.25 11.7594 10.3344 11.8438 10.4375 11.8438H17.7969V13.625C17.7969 13.782 17.9797 13.8711 18.1016 13.7727L21.4274 11.1477C21.4498 11.1301 21.4679 11.1077 21.4804 11.0821C21.4928 11.0565 21.4993 11.0285 21.4993 11C21.4993 10.9715 21.4928 10.9435 21.4804 10.9179C21.4679 10.8923 21.4498 10.8699 21.4274 10.8523Z" fill="#677B8B"/>
</svg>
