<svg width="250" height="250" viewBox="0 0 250 250" fill="none" xmlns="http://www.w3.org/2000/svg">
<path d="M208.276 55.1253H207.088V22.5727C207.088 17.5756 205.103 12.7833 201.57 9.24982C198.036 5.71639 193.244 3.73133 188.247 3.73132H119.277C116.803 3.73132 114.353 4.21867 112.067 5.16553C109.781 6.1124 107.704 7.50024 105.955 9.24982C104.205 10.9994 102.817 13.0765 101.87 15.3624C100.923 17.6483 100.436 20.0984 100.436 22.5727V201.162C100.436 206.159 102.421 210.951 105.955 214.485C109.488 218.018 114.28 220.003 119.277 220.003H188.247C193.244 220.003 198.036 218.018 201.569 214.485C205.103 210.951 207.088 206.159 207.088 201.162V78.2969H208.276L208.276 55.1253Z" fill="#005EA6"/>
<path d="M189.007 8.63135H180.005C180.419 9.64643 180.577 10.7478 180.465 11.8383C180.353 12.9289 179.975 13.9751 179.363 14.885C178.752 15.7949 177.926 16.5403 176.958 17.0558C175.991 17.5712 174.911 17.8408 173.815 17.8408H134.303C133.207 17.8407 132.128 17.5711 131.16 17.0556C130.193 16.5401 129.367 15.7946 128.756 14.8848C128.144 13.9749 127.766 12.9287 127.654 11.8382C127.542 10.7477 127.7 9.64639 128.114 8.63135H119.706C115.974 8.63135 112.395 10.1138 109.756 12.7525C107.117 15.3912 105.635 18.9701 105.635 22.7019V201.032C105.635 204.764 107.117 208.343 109.756 210.981C112.395 213.62 115.974 215.102 119.706 215.102H189.007C192.739 215.102 196.318 213.62 198.957 210.981C201.595 208.343 203.078 204.764 203.078 201.032V22.7016C203.078 18.9699 201.595 15.3911 198.956 12.7524C196.318 10.1137 192.739 8.63135 189.007 8.63135Z" fill="white"/>
<path d="M237.511 186.779L172.479 186.805C172.397 186.805 172.318 186.772 172.259 186.714C172.201 186.656 172.168 186.577 172.168 186.494C172.168 186.412 172.201 186.333 172.259 186.274C172.318 186.216 172.397 186.183 172.479 186.183L237.511 186.157C237.593 186.157 237.672 186.19 237.731 186.249C237.789 186.307 237.822 186.386 237.822 186.468C237.822 186.551 237.789 186.63 237.731 186.688C237.672 186.747 237.593 186.779 237.511 186.779Z" fill="#ADB0B3"/>
<path d="M236.645 190.822C239.049 190.822 240.998 188.873 240.998 186.468C240.998 184.064 239.049 182.115 236.645 182.115C234.241 182.115 232.292 184.064 232.292 186.468C232.292 188.873 234.241 190.822 236.645 190.822Z" fill="#FECF0D"/>
<path d="M235.956 103.446L170.303 103.472C170.22 103.472 170.141 103.439 170.083 103.381C170.024 103.322 169.992 103.243 169.992 103.161C169.992 103.078 170.024 102.999 170.083 102.941C170.141 102.883 170.22 102.85 170.303 102.85L235.956 102.824C236.039 102.824 236.118 102.857 236.176 102.915C236.234 102.974 236.267 103.053 236.267 103.135C236.267 103.218 236.234 103.297 236.176 103.355C236.118 103.413 236.039 103.446 235.956 103.446Z" fill="#ADB0B3"/>
<path d="M236.645 107.799C239.049 107.799 240.998 105.85 240.998 103.446C240.998 101.042 239.049 99.0928 236.645 99.0928C234.241 99.0928 232.292 101.042 232.292 103.446C232.292 105.85 234.241 107.799 236.645 107.799Z" fill="#FECF0D"/>
<path d="M67.8693 60.8466L133.523 60.8723C133.605 60.8723 133.684 60.8396 133.743 60.7813C133.801 60.7229 133.834 60.6439 133.834 60.5614C133.834 60.4789 133.801 60.3998 133.743 60.3415C133.684 60.2832 133.605 60.2504 133.523 60.2504L67.8693 60.2247C67.7868 60.2247 67.7077 60.2574 67.6494 60.3157C67.5911 60.3741 67.5583 60.4531 67.5583 60.5356C67.5583 60.6181 67.5911 60.6972 67.6494 60.7555C67.7077 60.8138 67.7868 60.8466 67.8693 60.8466Z" fill="#ADB0B3"/>
<path d="M67.1801 65.1998C69.5844 65.1998 71.5334 63.2507 71.5334 60.8465C71.5334 58.4423 69.5844 56.4933 67.1801 56.4933C64.7759 56.4933 62.8269 58.4423 62.8269 60.8465C62.8269 63.2507 64.7759 65.1998 67.1801 65.1998Z" fill="#FECF0D"/>
<path d="M67.8693 145.113L133.523 145.139C133.605 145.139 133.684 145.106 133.743 145.047C133.801 144.989 133.834 144.91 133.834 144.828C133.834 144.745 133.801 144.666 133.743 144.608C133.684 144.549 133.605 144.517 133.523 144.517L67.8693 144.491C67.7868 144.491 67.7077 144.524 67.6494 144.582C67.5911 144.64 67.5583 144.719 67.5583 144.802C67.5583 144.884 67.5911 144.963 67.6494 145.022C67.7077 145.08 67.7868 145.113 67.8693 145.113Z" fill="#ADB0B3"/>
<path d="M67.1801 149.466C69.5844 149.466 71.5334 147.517 71.5334 145.113C71.5334 142.708 69.5844 140.759 67.1801 140.759C64.7759 140.759 62.8269 142.708 62.8269 145.113C62.8269 147.517 64.7759 149.466 67.1801 149.466Z" fill="#FECF0D"/>
<path d="M174.101 186.805C171.334 186.805 168.629 185.984 166.327 184.447C164.026 182.909 162.233 180.724 161.174 178.167C160.115 175.611 159.838 172.797 160.378 170.083C160.918 167.369 162.25 164.875 164.207 162.918C166.164 160.962 168.657 159.629 171.371 159.089C174.086 158.549 176.899 158.826 179.456 159.885C182.013 160.944 184.198 162.738 185.736 165.039C187.273 167.34 188.094 170.045 188.094 172.813C188.09 176.522 186.614 180.079 183.991 182.702C181.368 185.325 177.811 186.801 174.101 186.805ZM174.101 159.442C171.457 159.442 168.872 160.226 166.673 161.695C164.474 163.165 162.76 165.253 161.748 167.696C160.736 170.139 160.472 172.827 160.988 175.421C161.503 178.015 162.777 180.397 164.647 182.267C166.517 184.137 168.899 185.41 171.493 185.926C174.086 186.442 176.775 186.177 179.218 185.165C181.661 184.153 183.749 182.44 185.219 180.241C186.688 178.042 187.472 175.457 187.472 172.813C187.468 169.268 186.058 165.869 183.551 163.363C181.045 160.856 177.646 159.446 174.101 159.442Z" fill="#ADB0B3"/>
<path d="M133.678 145.139C130.911 145.139 128.206 144.318 125.905 142.78C123.604 141.243 121.81 139.057 120.751 136.501C119.692 133.944 119.415 131.13 119.955 128.416C120.495 125.702 121.827 123.209 123.784 121.252C125.741 119.295 128.234 117.962 130.949 117.422C133.663 116.882 136.476 117.16 139.033 118.219C141.59 119.278 143.775 121.071 145.313 123.372C146.85 125.673 147.671 128.379 147.671 131.146C147.667 134.856 146.191 138.412 143.568 141.036C140.945 143.659 137.388 145.134 133.678 145.139ZM133.678 117.775C131.034 117.775 128.449 118.56 126.25 120.029C124.051 121.498 122.338 123.586 121.326 126.029C120.314 128.472 120.049 131.161 120.565 133.754C121.081 136.348 122.354 138.731 124.224 140.6C126.094 142.47 128.476 143.744 131.07 144.26C133.664 144.776 136.352 144.511 138.795 143.499C141.238 142.487 143.327 140.773 144.796 138.574C146.265 136.376 147.049 133.79 147.049 131.146C147.045 127.601 145.635 124.203 143.129 121.696C140.622 119.189 137.223 117.779 133.678 117.775Z" fill="#ADB0B3"/>
<path d="M171.303 103.472C168.535 103.472 165.83 102.651 163.529 101.114C161.228 99.5761 159.434 97.3908 158.375 94.834C157.316 92.2772 157.039 89.4638 157.579 86.7495C158.119 84.0352 159.452 81.542 161.409 79.5851C163.366 77.6282 165.859 76.2955 168.573 75.7556C171.287 75.2157 174.101 75.4928 176.658 76.5519C179.214 77.6109 181.4 79.4044 182.937 81.7055C184.475 84.0065 185.295 86.7118 185.295 89.4793C185.291 93.1891 183.816 96.7457 181.192 99.3689C178.569 101.992 175.013 103.468 171.303 103.472ZM171.303 76.1087C168.658 76.1087 166.073 76.8928 163.875 78.362C161.676 79.8312 159.962 81.9194 158.95 84.3626C157.938 86.8057 157.673 89.4941 158.189 92.0878C158.705 94.6814 159.978 97.0639 161.848 98.9338C163.718 100.804 166.101 102.077 168.694 102.593C171.288 103.109 173.976 102.844 176.42 101.832C178.863 100.82 180.951 99.1064 182.42 96.9076C183.889 94.7088 184.673 92.1238 184.673 89.4793C184.669 85.9344 183.26 82.5359 180.753 80.0292C178.246 77.5226 174.848 76.1127 171.303 76.1087Z" fill="#ADB0B3"/>
<path d="M133.989 60.8465C131.222 60.8465 128.517 60.0259 126.216 58.4884C123.914 56.9508 122.121 54.7655 121.062 52.2087C120.003 49.6519 119.726 46.8385 120.266 44.1242C120.806 41.4099 122.138 38.9167 124.095 36.9598C126.052 35.0029 128.545 33.6702 131.26 33.1303C133.974 32.5904 136.787 32.8675 139.344 33.9266C141.901 34.9856 144.086 36.7791 145.624 39.0802C147.161 41.3812 147.982 44.0865 147.982 46.854C147.978 50.5638 146.502 54.1204 143.879 56.7436C141.256 59.3668 137.699 60.8423 133.989 60.8465ZM133.989 33.4833C131.345 33.4833 128.76 34.2675 126.561 35.7367C124.362 37.2059 122.648 39.2941 121.637 41.7373C120.625 44.1804 120.36 46.8688 120.876 49.4625C121.392 52.0561 122.665 54.4385 124.535 56.3085C126.405 58.1784 128.787 59.4518 131.381 59.9677C133.975 60.4836 136.663 60.2189 139.106 59.2069C141.549 58.1949 143.637 56.4811 145.107 54.2823C146.576 52.0835 147.36 49.4985 147.36 46.854C147.356 43.3091 145.946 39.9106 143.439 37.4039C140.933 34.8973 137.534 33.4873 133.989 33.4833Z" fill="#ADB0B3"/>
<path d="M46.1761 155.653C45.7936 155.361 45.4768 154.992 45.2463 154.57C45.0158 154.148 44.8768 153.682 44.8384 153.202C44.8299 153.091 44.8272 152.978 44.8305 152.866L30.3504 143.114C29.8765 142.792 29.5194 142.325 29.3324 141.783C29.1455 141.241 29.1386 140.654 29.3128 140.108L36.2335 122.914C36.5313 122.174 37.1103 121.582 37.8436 121.267C38.5769 120.953 39.4049 120.942 40.1462 121.237C40.8875 121.532 41.4817 122.109 41.7987 122.841C42.1158 123.573 42.1298 124.401 41.8378 125.143L36.2502 139.351L47.5254 149.592C47.6742 149.558 47.8252 149.535 47.9773 149.522C48.8481 149.453 49.7124 149.719 50.393 150.267C51.0735 150.815 51.5188 151.602 51.6374 152.467C51.7561 153.333 51.5391 154.211 51.031 154.921C50.523 155.632 49.7623 156.121 48.905 156.289C48.685 156.331 48.4615 156.353 48.2374 156.353C47.4919 156.353 46.7671 156.107 46.1761 155.653Z" fill="#A0616A"/>
<path d="M30.3562 133.038C30.2714 132.84 30.2304 132.626 30.2358 132.411C30.2413 132.196 30.2931 131.984 30.3877 131.791L33.6914 125.039C34.0247 123.989 34.7606 123.115 35.7378 122.607C36.7149 122.099 37.8536 121.999 38.904 122.33C39.9545 122.66 40.831 123.394 41.3415 124.37C41.852 125.345 41.9547 126.484 41.6272 127.535L40.4211 134.98C40.3866 135.192 40.3068 135.395 40.187 135.573C40.0673 135.752 39.9104 135.903 39.727 136.016C39.5436 136.129 39.3381 136.201 39.1245 136.227C38.9109 136.253 38.6941 136.233 38.489 136.167L31.2796 133.876C31.0744 133.811 30.8857 133.703 30.7264 133.558C30.567 133.413 30.4407 133.236 30.3562 133.038Z" fill="#FECF0D"/>
<path d="M53.143 216.402H56.9551L58.7686 201.698L53.1423 201.699L53.143 216.402Z" fill="#A0616A"/>
<path d="M52.1707 215.158L59.6781 215.157H59.6784C60.3067 215.157 60.9288 215.281 61.5093 215.522C62.0897 215.762 62.6172 216.114 63.0614 216.559C63.5057 217.003 63.8581 217.53 64.0985 218.111C64.339 218.691 64.4627 219.313 64.4627 219.942V220.097L52.1709 220.098L52.1707 215.158Z" fill="#005EA6"/>
<path d="M15.866 213.701L19.5581 214.65L24.9748 200.86L19.5255 199.46L15.866 213.701Z" fill="#A0616A"/>
<path d="M15.2339 212.254L22.505 214.122L22.5053 214.122C23.1138 214.279 23.6856 214.554 24.1879 214.931C24.6903 215.308 25.1134 215.781 25.4331 216.322C25.7528 216.863 25.9628 217.461 26.0512 218.083C26.1395 218.705 26.1045 219.339 25.9481 219.947L25.9094 220.098L14.0044 217.038L15.2339 212.254Z" fill="#005EA6"/>
<path d="M42.6042 115.529C46.8221 115.529 50.2413 112.11 50.2413 107.892C50.2413 103.674 46.8221 100.255 42.6042 100.255C38.3863 100.255 34.967 103.674 34.967 107.892C34.967 112.11 38.3863 115.529 42.6042 115.529Z" fill="#A0616A"/>
<path d="M38.7414 139.658C36.9244 137.788 35.3817 135.67 34.1593 133.366C33.5092 132.104 33.1307 130.719 33.0482 129.301C32.9657 127.883 33.181 126.463 33.6803 125.134C34.1902 123.774 34.979 122.537 35.9961 121.501C37.0131 120.465 38.2358 119.653 39.5854 119.119C41.9523 118.158 44.593 118.118 46.9877 119.007C49.3824 119.896 51.3577 121.649 52.5246 123.921C54.4356 127.661 55.1844 131.318 54.7505 134.79C53.9209 141.427 53.4352 144.858 53.3069 144.986L53.2643 145.029L39.0574 145.66L38.7414 139.658Z" fill="#FECF0D"/>
<path d="M39.5852 143.823L52.2988 143.19C52.6199 143.174 52.9346 143.283 53.1771 143.494C53.4196 143.705 53.571 144.002 53.5995 144.322L59.448 209.879C59.4635 210.053 59.4421 210.229 59.3853 210.394C59.3284 210.56 59.2373 210.711 59.1179 210.839C58.9985 210.967 58.8534 211.068 58.6923 211.136C58.5312 211.204 58.3575 211.237 58.1827 211.233L53.2157 211.128C52.9425 211.122 52.6789 211.026 52.4655 210.856C52.252 210.685 52.1008 210.449 52.035 210.184L42.5461 171.949C42.484 171.699 42.3458 171.474 42.1504 171.306C41.9551 171.138 41.7124 171.035 41.4558 171.01C41.1992 170.986 40.9415 171.042 40.7181 171.171C40.4948 171.3 40.3169 171.494 40.2091 171.729L22.2272 210.783C22.1051 211.048 21.8935 211.262 21.6296 211.387C21.3656 211.512 21.0661 211.54 20.7835 211.466L15.7849 210.162C15.4755 210.082 15.2089 209.886 15.0407 209.614C14.8725 209.342 14.8155 209.016 14.8816 208.703C16.5263 200.939 26.3778 156.478 38.7813 144.172C38.9972 143.96 39.2835 143.836 39.5852 143.823Z" fill="#005EA6"/>
<path d="M63.6608 151.184C63.2011 151.042 62.7764 150.805 62.4144 150.488C62.0523 150.172 61.7611 149.782 61.5595 149.345C61.513 149.243 61.4718 149.139 61.4362 149.033L44.48 144.878C43.9239 144.739 43.4277 144.424 43.0652 143.98C42.7027 143.536 42.4934 142.986 42.4685 142.414L43.0297 123.888C43.0538 123.091 43.3929 122.335 43.9727 121.787C44.5525 121.24 45.3257 120.944 46.1232 120.965C46.9207 120.985 47.6774 121.322 48.2276 121.899C48.7779 122.477 49.0769 123.249 49.0592 124.046L48.7182 139.309L62.8354 145.029C62.9634 144.946 63.0969 144.872 63.235 144.808C63.7392 144.574 64.2928 144.467 64.8478 144.495C65.4028 144.523 65.9426 144.685 66.4207 144.969C66.8987 145.252 67.3006 145.647 67.5916 146.121C67.8826 146.594 68.054 147.131 68.091 147.686C68.1281 148.24 68.0296 148.795 67.804 149.303C67.5785 149.811 67.2328 150.257 66.7966 150.601C66.3605 150.945 65.8471 151.178 65.3008 151.28C64.7544 151.381 64.1916 151.348 63.6608 151.184Z" fill="#A0616A"/>
<path d="M41.221 133.119C41.0747 132.961 40.9641 132.774 40.8969 132.569C40.8297 132.365 40.8073 132.148 40.8314 131.934L41.6718 124.464C41.6328 123.364 42.0318 122.293 42.7813 121.486C43.5308 120.679 44.5696 120.202 45.6699 120.16C46.7703 120.118 47.8425 120.514 48.6514 121.261C49.4602 122.009 49.9398 123.046 49.985 124.146L51.3527 131.563C51.3917 131.775 51.3847 131.992 51.332 132.201C51.2793 132.41 51.1823 132.604 51.0476 132.772C50.9128 132.94 50.7434 133.077 50.551 133.173C50.3586 133.27 50.1477 133.324 49.9326 133.331L42.3727 133.598C42.1576 133.606 41.9433 133.567 41.7445 133.484C41.5458 133.402 41.3672 133.277 41.221 133.119Z" fill="#FECF0D"/>
<path d="M31.6607 117.975L32.4587 115.396L33.0044 118.29L37.486 118.171L37.4653 115.318L39.169 118.134L43.2302 117.236C42.3626 116.08 41.4847 114.906 40.9298 113.543C40.3749 112.181 40.1729 110.583 40.6913 109.203C41.9732 105.793 46.833 106.747 49.4911 106.718C50.2665 106.71 51.142 106.654 51.6498 106.02C52.0322 105.542 52.0949 104.859 52.0755 104.228C51.9757 100.977 50.024 97.8759 47.2648 96.5835C45.9141 95.9615 44.4084 95.7576 42.941 95.9978C42.1756 96.1188 41.4325 96.3528 40.7359 96.6924C40.1149 96.9957 39.4627 97.7182 38.7941 97.6986C38.2321 97.6822 37.4882 97.097 36.8768 96.997C36.1402 96.8832 35.3887 96.9094 34.6618 97.0743C33.201 97.3999 31.8841 98.1879 30.9067 99.3213C28.8295 101.735 28.2123 105.292 28.5743 108.566C28.9364 111.84 30.1613 114.92 31.3726 117.946" fill="#005EA6"/>
<path d="M249.689 220.672H0.310945C0.228477 220.672 0.149387 220.64 0.0910735 220.581C0.03276 220.523 0 220.444 0 220.361C0 220.279 0.03276 220.2 0.0910735 220.142C0.149387 220.083 0.228477 220.051 0.310945 220.051H249.689C249.772 220.051 249.851 220.083 249.909 220.142C249.967 220.2 250 220.279 250 220.361C250 220.444 249.967 220.523 249.909 220.581C249.851 220.64 249.772 220.672 249.689 220.672Z" fill="#E6E6E6"/>
<path d="M245.482 216.819C246.431 216.049 247.123 215.008 247.465 213.835C247.717 212.647 247.212 211.253 246.081 210.794C244.811 210.304 243.453 211.186 242.426 212.074C241.399 212.962 240.216 213.979 238.869 213.788C239.559 213.159 240.074 212.362 240.365 211.474C240.655 210.587 240.711 209.639 240.526 208.724C240.47 208.343 240.309 207.985 240.061 207.691C239.359 206.938 238.079 207.263 237.232 207.857C234.548 209.746 233.799 213.391 233.789 216.674C233.515 215.487 233.742 214.253 233.737 213.06C233.732 211.868 233.397 210.479 232.374 209.849C231.741 209.509 231.029 209.34 230.309 209.359C229.101 209.318 227.759 209.436 226.933 210.319C225.901 211.414 226.174 213.257 227.067 214.449C227.96 215.642 229.313 216.411 230.557 217.247C231.559 217.841 232.414 218.655 233.056 219.627C233.132 219.762 233.194 219.903 233.242 220.05H240.805C242.503 219.19 244.076 218.103 245.482 216.819Z" fill="#F2F2F2"/>
<path d="M140.667 126H127.333C126.607 126.027 126.027 126.607 126 127.333V136.667C126.027 137.393 126.607 137.973 127.333 138H140.667C141.393 137.973 141.973 137.393 142 136.667V127.333C141.988 126.984 141.843 126.652 141.596 126.404C141.348 126.157 141.016 126.012 140.667 126ZM140.667 136.667H127.333V127.333H140.667V136.667ZM135.333 135.333V134.5C135.333 133.393 133.107 132.833 132 132.833C130.893 132.833 128.667 133.393 128.667 134.5V135.333H135.333ZM132 128.667C131.558 128.667 131.134 128.842 130.821 129.155C130.509 129.467 130.333 129.891 130.333 130.333C130.333 130.552 130.376 130.769 130.46 130.971C130.544 131.173 130.667 131.357 130.821 131.512C131.134 131.824 131.558 132 132 132C132.219 132 132.436 131.957 132.638 131.873C132.84 131.789 133.024 131.667 133.179 131.512C133.333 131.357 133.456 131.173 133.54 130.971C133.624 130.769 133.667 130.552 133.667 130.333C133.667 130.114 133.624 129.898 133.54 129.696C133.456 129.493 133.333 129.31 133.179 129.155C133.024 129 132.84 128.877 132.638 128.794C132.436 128.71 132.219 128.667 132 128.667ZM135.333 128.667V129.333H139.333V128.667H135.333ZM135.333 130V130.667H139.333V130H135.333ZM135.333 131.333V132H138V131.333H135.333Z" fill="#005EA6"/>
<path d="M127.333 52.3333H140.667V53.6666H127.333V52.3333ZM128.667 47H130V51.6666H128.667V47ZM132 47H133.333V51.6666H132V47ZM134.667 47H136V51.6666H134.667V47ZM138 47H139.333V51.6666H138V47ZM127.333 43.6666L134 40.3333L140.667 43.6666V46.3333H127.333V43.6666ZM128.667 44.4906V45H139.333V44.4906L134 41.824L128.667 44.4906ZM134 44.3333C133.823 44.3333 133.654 44.2631 133.529 44.1381C133.404 44.013 133.333 43.8435 133.333 43.6666C133.333 43.4898 133.404 43.3203 133.529 43.1952C133.654 43.0702 133.823 43 134 43C134.177 43 134.346 43.0702 134.471 43.1952C134.596 43.3203 134.667 43.4898 134.667 43.6666C134.667 43.8435 134.596 44.013 134.471 44.1381C134.346 44.2631 134.177 44.3333 134 44.3333Z" fill="#005EA6"/>
<path d="M177.211 83.7824C176.961 83.5331 176.961 83.13 177.211 82.8833C177.461 82.6367 177.864 82.634 178.111 82.8833L179.811 84.5807C179.931 84.7 179.997 84.8618 179.997 85.0315C179.997 85.2012 179.931 85.363 179.811 85.4824L178.111 87.1797C177.862 87.429 177.458 87.429 177.211 87.1797C176.964 86.9304 176.961 86.5273 177.211 86.2807L177.822 85.6707L173.2 85.6654C172.847 85.6654 172.562 85.3816 172.562 85.0289C172.562 84.6761 172.847 84.3924 173.2 84.3924H177.825L177.211 83.7824ZM165.789 92.6934L165.178 93.3034H169.8C170.153 93.3034 170.438 93.5872 170.438 93.9399C170.438 94.2927 170.153 94.5764 169.8 94.5764H165.175L165.786 95.1864C166.036 95.4357 166.036 95.8388 165.786 96.0855C165.537 96.3321 165.133 96.3348 164.886 96.0855L163.186 94.3908C163.066 94.2715 163 94.1097 163 93.9399C163 93.7702 163.066 93.6084 163.186 93.4891L164.886 91.7917C165.136 91.5424 165.539 91.5424 165.786 91.7917C166.033 92.041 166.036 92.4441 165.786 92.6908L165.789 92.6934ZM165.55 84.3924H171.975C171.877 84.5833 171.819 84.7981 171.819 85.0289C171.819 85.79 172.438 86.408 173.2 86.408H176.318C176.212 86.8588 176.334 87.3495 176.685 87.7022C177.224 88.2406 178.098 88.2406 178.637 87.7022L179.15 87.1903V92.8791C179.15 93.8153 178.388 94.5764 177.45 94.5764H171.025C171.123 94.3855 171.181 94.1707 171.181 93.9399C171.181 93.1788 170.562 92.5608 169.8 92.5608H166.682C166.788 92.11 166.666 91.6193 166.315 91.2666C165.776 90.7282 164.902 90.7282 164.363 91.2666L163.85 91.7785V86.0897C163.85 85.1535 164.612 84.3924 165.55 84.3924ZM167.25 86.0897H165.55V87.7871C166.488 87.7871 167.25 87.0259 167.25 86.0897ZM177.45 91.1817C176.512 91.1817 175.75 91.9429 175.75 92.8791H177.45V91.1817ZM171.5 92.0304C172.908 92.0304 174.05 90.89 174.05 89.4844C174.05 88.0788 172.908 86.9384 171.5 86.9384C170.092 86.9384 168.95 88.0788 168.95 89.4844C168.95 90.89 170.092 92.0304 171.5 92.0304Z" fill="#005EA6"/>
<path d="M172.667 178.333H175.333V177.667H172.667V178.333ZM170.667 180.333C170.3 180.333 169.986 180.203 169.725 179.942C169.464 179.681 169.333 179.367 169.333 179V167C169.333 166.633 169.464 166.319 169.725 166.058C169.986 165.797 170.3 165.667 170.667 165.667H177.333C177.7 165.667 178.014 165.797 178.275 166.058C178.536 166.319 178.667 166.633 178.667 167V179C178.667 179.367 178.536 179.681 178.275 179.942C178.014 180.203 177.7 180.333 177.333 180.333H170.667ZM170.667 177V179H177.333V177H170.667ZM170.667 175.667H177.333V169H170.667V175.667ZM170.667 167.667H177.333V167H170.667V167.667Z" fill="#005EA6"/>
</svg>
