<svg width="57" height="53" viewBox="0 0 57 53" fill="none" xmlns="http://www.w3.org/2000/svg">
<path d="M4.59149 50.077H36.8528C37.403 50.077 37.8846 49.5955 37.8846 49.0452C37.8846 48.4949 37.403 48.0134 36.8528 48.0134H4.59149C4.0412 48.0134 3.55969 48.4949 3.55969 49.0452C3.55969 49.5955 4.0412 50.077 4.59149 50.077Z" fill="#005EA6"/>
<path d="M42.3549 16.9903C42.63 16.9903 42.9052 16.8527 43.1115 16.6463C43.5243 16.2336 43.4555 15.5457 43.0428 15.2018L41.8046 14.0324H52.4664C53.0167 14.0324 53.4982 13.5509 53.4982 13.0006C53.4982 12.4504 53.0167 11.9689 52.4664 11.9689H41.6669L43.1114 10.5243C43.5241 10.1116 43.5241 9.49254 43.1114 9.07982C42.6987 8.6671 42.0796 8.6671 41.6669 9.07982L37.6772 13.0694L41.6669 16.7839C41.8732 16.9215 42.0796 16.9903 42.3547 16.9903H42.3549Z" fill="#FFCE03"/>
<path d="M39.1223 7.63531H49.7841L48.546 8.80468C48.1332 9.2174 48.1332 9.83647 48.4772 10.2492C48.6835 10.4556 48.9587 10.5931 49.2338 10.5931C49.509 10.5931 49.7153 10.5243 49.9217 10.318L53.9113 6.60351L49.9217 2.61389C49.509 2.20117 48.8899 2.20117 48.4772 2.61389C48.0645 3.02661 48.0645 3.64569 48.4772 4.05841L49.9217 5.50292H39.1221C38.5718 5.50292 38.0903 5.98443 38.0903 6.53472C38.0903 7.08501 38.5718 7.63531 39.1221 7.63531H39.1223Z" fill="#FFCE03"/>
<path d="M34.5832 40.0334V25.7946C34.5832 25.2443 34.1017 24.7628 33.5514 24.7628C33.0011 24.7628 32.5196 25.2443 32.5196 25.7946V40.0334C32.5196 40.5836 33.0011 41.0651 33.5514 41.0651C34.1017 41.0651 34.5832 40.5836 34.5832 40.0334Z" fill="#005EA6"/>
<path d="M29.0111 40.0334V25.7946C29.0111 25.2443 28.5296 24.7628 27.9793 24.7628C27.429 24.7628 26.9475 25.2443 26.9475 25.7946V40.0334C26.9475 40.5836 27.429 41.0651 27.9793 41.0651C28.5296 41.0651 29.0111 40.5836 29.0111 40.0334Z" fill="#005EA6"/>
<path d="M13.9457 40.0334V25.7946C13.9457 25.2443 13.4642 24.7628 12.9139 24.7628C12.3636 24.7628 11.8821 25.2443 11.8821 25.7946V40.0334C11.8821 40.5836 12.3636 41.0651 12.9139 41.0651C13.4642 41.0651 13.9457 40.5836 13.9457 40.0334Z" fill="#005EA6"/>
<path d="M8.44275 40.0334V25.7946C8.44275 25.2443 7.96124 24.7628 7.41095 24.7628C6.86066 24.7628 6.37915 25.2443 6.37915 25.7946V40.0334C6.37915 40.5836 6.86066 41.0651 7.41095 41.0651C7.96124 41.0651 8.44275 40.5836 8.44275 40.0334Z" fill="#005EA6"/>
<path d="M3.55963 44.2297C3.55963 44.78 4.04114 45.2615 4.59143 45.2615H36.8527C37.403 45.2615 37.8845 44.78 37.8845 44.2297C37.8845 43.6794 37.403 43.1979 36.8527 43.1979H4.59143C4.04114 43.1979 3.55963 43.6794 3.55963 44.2297Z" fill="#005EA6"/>
<path d="M20.4816 7.6353L1.15216 21.8053H39.8786L20.4816 7.6353ZM20.4816 10.2492L33.551 19.8104H7.41213L20.4816 10.2492Z" fill="#005EA6"/>
</svg>
