<svg width="511" height="844" viewBox="0 0 511 844" fill="none" xmlns="http://www.w3.org/2000/svg">
<g clip-path="url(#clip0_398_1157)">
<rect width="511" height="844" fill="white"/>
<path d="M25 14C21.2725 8.02748 10 4 10 4C10 4 24.4964 -5.50626 35 -6C43.6742 -6.40774 56.6667 -1 56.6667 -1L93.3333 -16L27.5 31.5C27.5 31.5 28.6551 19.8565 25 14Z" fill="#EFF8FF"/>
<path d="M102.5 -12.6667L38.3332 34L75.8332 19C75.8332 19 88.3017 24.1888 96.6665 24C106.647 23.7746 120.833 15.6666 120.833 15.6666C120.833 15.6666 111.246 10.3989 107.5 4.8333C103.531 -1.06293 102.5 -12.6667 102.5 -12.6667Z" fill="#EFF8FF"/>
<path d="M25 94C21.2725 88.0275 10 84 10 84C10 84 24.4964 74.4937 35 74C43.6742 73.5923 56.6667 79 56.6667 79L93.3333 64L27.5 111.5C27.5 111.5 28.6551 99.8565 25 94Z" fill="#EFF8FF"/>
<path d="M102.5 67.3333L38.3332 114L75.8332 99C75.8332 99 88.3017 104.189 96.6665 104C106.647 103.775 120.833 95.6666 120.833 95.6666C120.833 95.6666 111.246 90.3989 107.5 84.8333C103.531 78.9371 102.5 67.3333 102.5 67.3333Z" fill="#EFF8FF"/>
<path d="M25 174C21.2725 168.027 10 164 10 164C10 164 24.4964 154.494 35 154C43.6742 153.592 56.6667 159 56.6667 159L93.3333 144L27.5 191.5C27.5 191.5 28.6551 179.857 25 174Z" fill="#EFF8FF"/>
<path d="M102.5 147.333L38.3332 194L75.8332 179C75.8332 179 88.3017 184.189 96.6665 184C106.647 183.775 120.833 175.667 120.833 175.667C120.833 175.667 111.246 170.399 107.5 164.833C103.531 158.937 102.5 147.333 102.5 147.333Z" fill="#EFF8FF"/>
<path d="M25 254C21.2725 248.027 10 244 10 244C10 244 24.4964 234.494 35 234C43.6742 233.592 56.6667 239 56.6667 239L93.3333 224L27.5 271.5C27.5 271.5 28.6551 259.857 25 254Z" fill="#EFF8FF"/>
<path d="M102.5 227.333L38.3332 274L75.8332 259C75.8332 259 88.3017 264.189 96.6665 264C106.647 263.775 120.833 255.667 120.833 255.667C120.833 255.667 111.246 250.399 107.5 244.833C103.531 238.937 102.5 227.333 102.5 227.333Z" fill="#EFF8FF"/>
<path d="M25 334C21.2725 328.027 10 324 10 324C10 324 24.4964 314.494 35 314C43.6742 313.592 56.6667 319 56.6667 319L93.3333 304L27.5 351.5C27.5 351.5 28.6551 339.857 25 334Z" fill="#EFF8FF"/>
<path d="M102.5 307.333L38.3332 354L75.8332 339C75.8332 339 88.3017 344.189 96.6665 344C106.647 343.775 120.833 335.667 120.833 335.667C120.833 335.667 111.246 330.399 107.5 324.833C103.531 318.937 102.5 307.333 102.5 307.333Z" fill="#EFF8FF"/>
<path d="M25 414C21.2725 408.027 10 404 10 404C10 404 24.4964 394.494 35 394C43.6742 393.592 56.6667 399 56.6667 399L93.3333 384L27.5 431.5C27.5 431.5 28.6551 419.857 25 414Z" fill="#EFF8FF"/>
<path d="M102.5 387.333L38.3332 434L75.8332 419C75.8332 419 88.3017 424.189 96.6665 424C106.647 423.775 120.833 415.667 120.833 415.667C120.833 415.667 111.246 410.399 107.5 404.833C103.531 398.937 102.5 387.333 102.5 387.333Z" fill="#EFF8FF"/>
<path d="M25 494C21.2725 488.027 10 484 10 484C10 484 24.4964 474.494 35 474C43.6742 473.592 56.6667 479 56.6667 479L93.3333 464L27.5 511.5C27.5 511.5 28.6551 499.857 25 494Z" fill="#EFF8FF"/>
<path d="M102.5 467.333L38.3332 514L75.8332 499C75.8332 499 88.3017 504.189 96.6665 504C106.647 503.775 120.833 495.667 120.833 495.667C120.833 495.667 111.246 490.399 107.5 484.833C103.531 478.937 102.5 467.333 102.5 467.333Z" fill="#EFF8FF"/>
<path d="M25 574C21.2725 568.027 10 564 10 564C10 564 24.4964 554.494 35 554C43.6742 553.592 56.6667 559 56.6667 559L93.3333 544L27.5 591.5C27.5 591.5 28.6551 579.857 25 574Z" fill="#EFF8FF"/>
<path d="M102.5 547.333L38.3332 594L75.8332 579C75.8332 579 88.3017 584.189 96.6665 584C106.647 583.775 120.833 575.667 120.833 575.667C120.833 575.667 111.246 570.399 107.5 564.833C103.531 558.937 102.5 547.333 102.5 547.333Z" fill="#EFF8FF"/>
<path d="M25 654C21.2725 648.027 10 644 10 644C10 644 24.4964 634.494 35 634C43.6742 633.592 56.6667 639 56.6667 639L93.3333 624L27.5 671.5C27.5 671.5 28.6551 659.857 25 654Z" fill="#EFF8FF"/>
<path d="M102.5 627.333L38.3332 674L75.8332 659C75.8332 659 88.3017 664.189 96.6665 664C106.647 663.775 120.833 655.667 120.833 655.667C120.833 655.667 111.246 650.399 107.5 644.833C103.531 638.937 102.5 627.333 102.5 627.333Z" fill="#EFF8FF"/>
<path d="M25 734C21.2725 728.027 10 724 10 724C10 724 24.4964 714.494 35 714C43.6742 713.592 56.6667 719 56.6667 719L93.3333 704L27.5 751.5C27.5 751.5 28.6551 739.857 25 734Z" fill="#EFF8FF"/>
<path d="M102.5 707.333L38.3332 754L75.8332 739C75.8332 739 88.3017 744.189 96.6665 744C106.647 743.775 120.833 735.667 120.833 735.667C120.833 735.667 111.246 730.399 107.5 724.833C103.531 718.937 102.5 707.333 102.5 707.333Z" fill="#EFF8FF"/>
<path d="M25 814C21.2725 808.027 10 804 10 804C10 804 24.4964 794.494 35 794C43.6742 793.592 56.6667 799 56.6667 799L93.3333 784L27.5 831.5C27.5 831.5 28.6551 819.857 25 814Z" fill="#EFF8FF"/>
<path d="M102.5 787.333L38.3332 834L75.8332 819C75.8332 819 88.3017 824.189 96.6665 824C106.647 823.775 120.833 815.667 120.833 815.667C120.833 815.667 111.246 810.399 107.5 804.833C103.531 798.937 102.5 787.333 102.5 787.333Z" fill="#EFF8FF"/>
<path d="M155 47C151.272 41.0275 140 37 140 37C140 37 154.496 27.4937 165 27C173.674 26.5923 186.667 32 186.667 32L223.333 17L157.5 64.5C157.5 64.5 158.655 52.8565 155 47Z" fill="#EFF8FF"/>
<path d="M232.5 20.3333L168.333 67L205.833 52C205.833 52 218.302 57.1888 226.667 57C236.647 56.7746 250.833 48.6666 250.833 48.6666C250.833 48.6666 241.246 43.3989 237.5 37.8333C233.531 31.9371 232.5 20.3333 232.5 20.3333Z" fill="#EFF8FF"/>
<path d="M155 127C151.272 121.027 140 117 140 117C140 117 154.496 107.494 165 107C173.674 106.592 186.667 112 186.667 112L223.333 97L157.5 144.5C157.5 144.5 158.655 132.857 155 127Z" fill="#EFF8FF"/>
<path d="M232.5 100.333L168.333 147L205.833 132C205.833 132 218.302 137.189 226.667 137C236.647 136.775 250.833 128.667 250.833 128.667C250.833 128.667 241.246 123.399 237.5 117.833C233.531 111.937 232.5 100.333 232.5 100.333Z" fill="#EFF8FF"/>
<path d="M155 207C151.272 201.027 140 197 140 197C140 197 154.496 187.494 165 187C173.674 186.592 186.667 192 186.667 192L223.333 177L157.5 224.5C157.5 224.5 158.655 212.857 155 207Z" fill="#EFF8FF"/>
<path d="M232.5 180.333L168.333 227L205.833 212C205.833 212 218.302 217.189 226.667 217C236.647 216.775 250.833 208.667 250.833 208.667C250.833 208.667 241.246 203.399 237.5 197.833C233.531 191.937 232.5 180.333 232.5 180.333Z" fill="#EFF8FF"/>
<path d="M155 287C151.272 281.027 140 277 140 277C140 277 154.496 267.494 165 267C173.674 266.592 186.667 272 186.667 272L223.333 257L157.5 304.5C157.5 304.5 158.655 292.857 155 287Z" fill="#EFF8FF"/>
<path d="M232.5 260.333L168.333 307L205.833 292C205.833 292 218.302 297.189 226.667 297C236.647 296.775 250.833 288.667 250.833 288.667C250.833 288.667 241.246 283.399 237.5 277.833C233.531 271.937 232.5 260.333 232.5 260.333Z" fill="#EFF8FF"/>
<path d="M155 367C151.272 361.027 140 357 140 357C140 357 154.496 347.494 165 347C173.674 346.592 186.667 352 186.667 352L223.333 337L157.5 384.5C157.5 384.5 158.655 372.857 155 367Z" fill="#EFF8FF"/>
<path d="M232.5 340.333L168.333 387L205.833 372C205.833 372 218.302 377.189 226.667 377C236.647 376.775 250.833 368.667 250.833 368.667C250.833 368.667 241.246 363.399 237.5 357.833C233.531 351.937 232.5 340.333 232.5 340.333Z" fill="#EFF8FF"/>
<path d="M155 447C151.272 441.027 140 437 140 437C140 437 154.496 427.494 165 427C173.674 426.592 186.667 432 186.667 432L223.333 417L157.5 464.5C157.5 464.5 158.655 452.857 155 447Z" fill="#EFF8FF"/>
<path d="M232.5 420.333L168.333 467L205.833 452C205.833 452 218.302 457.189 226.667 457C236.647 456.775 250.833 448.667 250.833 448.667C250.833 448.667 241.246 443.399 237.5 437.833C233.531 431.937 232.5 420.333 232.5 420.333Z" fill="#EFF8FF"/>
<path d="M155 527C151.272 521.027 140 517 140 517C140 517 154.496 507.494 165 507C173.674 506.592 186.667 512 186.667 512L223.333 497L157.5 544.5C157.5 544.5 158.655 532.857 155 527Z" fill="#EFF8FF"/>
<path d="M232.5 500.333L168.333 547L205.833 532C205.833 532 218.302 537.189 226.667 537C236.647 536.775 250.833 528.667 250.833 528.667C250.833 528.667 241.246 523.399 237.5 517.833C233.531 511.937 232.5 500.333 232.5 500.333Z" fill="#EFF8FF"/>
<path d="M155 607C151.272 601.027 140 597 140 597C140 597 154.496 587.494 165 587C173.674 586.592 186.667 592 186.667 592L223.333 577L157.5 624.5C157.5 624.5 158.655 612.857 155 607Z" fill="#EFF8FF"/>
<path d="M232.5 580.333L168.333 627L205.833 612C205.833 612 218.302 617.189 226.667 617C236.647 616.775 250.833 608.667 250.833 608.667C250.833 608.667 241.246 603.399 237.5 597.833C233.531 591.937 232.5 580.333 232.5 580.333Z" fill="#EFF8FF"/>
<path d="M155 687C151.272 681.027 140 677 140 677C140 677 154.496 667.494 165 667C173.674 666.592 186.667 672 186.667 672L223.333 657L157.5 704.5C157.5 704.5 158.655 692.857 155 687Z" fill="#EFF8FF"/>
<path d="M232.5 660.333L168.333 707L205.833 692C205.833 692 218.302 697.189 226.667 697C236.647 696.775 250.833 688.667 250.833 688.667C250.833 688.667 241.246 683.399 237.5 677.833C233.531 671.937 232.5 660.333 232.5 660.333Z" fill="#EFF8FF"/>
<path d="M155 767C151.272 761.027 140 757 140 757C140 757 154.496 747.494 165 747C173.674 746.592 186.667 752 186.667 752L223.333 737L157.5 784.5C157.5 784.5 158.655 772.857 155 767Z" fill="#EFF8FF"/>
<path d="M232.5 740.333L168.333 787L205.833 772C205.833 772 218.302 777.189 226.667 777C236.647 776.775 250.833 768.667 250.833 768.667C250.833 768.667 241.246 763.399 237.5 757.833C233.531 751.937 232.5 740.333 232.5 740.333Z" fill="#EFF8FF"/>
<path d="M155 847C151.272 841.027 140 837 140 837C140 837 154.496 827.494 165 827C173.674 826.592 186.667 832 186.667 832L223.333 817L157.5 864.5C157.5 864.5 158.655 852.857 155 847Z" fill="#EFF8FF"/>
<path d="M232.5 820.333L168.333 867L205.833 852C205.833 852 218.302 857.189 226.667 857C236.647 856.775 250.833 848.667 250.833 848.667C250.833 848.667 241.246 843.399 237.5 837.833C233.531 831.937 232.5 820.333 232.5 820.333Z" fill="#EFF8FF"/>
<path d="M285 0C281.272 -5.97252 270 -10 270 -10C270 -10 284.496 -19.5063 295 -20C303.674 -20.4077 316.667 -15 316.667 -15L353.333 -30L287.5 17.5C287.5 17.5 288.655 5.85654 285 0Z" fill="#EFF8FF"/>
<path d="M362.5 -26.6667L298.333 20L335.833 4.99997C335.833 4.99997 348.302 10.1888 356.667 9.99997C366.647 9.77462 380.833 1.66664 380.833 1.66664C380.833 1.66664 371.246 -3.60112 367.5 -9.1667C363.531 -15.0629 362.5 -26.6667 362.5 -26.6667Z" fill="#EFF8FF"/>
<path d="M285 80C281.272 74.0275 270 70 270 70C270 70 284.496 60.4937 295 60C303.674 59.5923 316.667 65 316.667 65L353.333 50L287.5 97.5C287.5 97.5 288.655 85.8565 285 80Z" fill="#EFF8FF"/>
<path d="M362.5 53.3333L298.333 100L335.833 85C335.833 85 348.302 90.1888 356.667 90C366.647 89.7746 380.833 81.6666 380.833 81.6666C380.833 81.6666 371.246 76.3989 367.5 70.8333C363.531 64.9371 362.5 53.3333 362.5 53.3333Z" fill="#EFF8FF"/>
<path d="M285 160C281.272 154.027 270 150 270 150C270 150 284.496 140.494 295 140C303.674 139.592 316.667 145 316.667 145L353.333 130L287.5 177.5C287.5 177.5 288.655 165.857 285 160Z" fill="#EFF8FF"/>
<path d="M362.5 133.333L298.333 180L335.833 165C335.833 165 348.302 170.189 356.667 170C366.647 169.775 380.833 161.667 380.833 161.667C380.833 161.667 371.246 156.399 367.5 150.833C363.531 144.937 362.5 133.333 362.5 133.333Z" fill="#EFF8FF"/>
<path d="M285 240C281.272 234.027 270 230 270 230C270 230 284.496 220.494 295 220C303.674 219.592 316.667 225 316.667 225L353.333 210L287.5 257.5C287.5 257.5 288.655 245.857 285 240Z" fill="#EFF8FF"/>
<path d="M362.5 213.333L298.333 260L335.833 245C335.833 245 348.302 250.189 356.667 250C366.647 249.775 380.833 241.667 380.833 241.667C380.833 241.667 371.246 236.399 367.5 230.833C363.531 224.937 362.5 213.333 362.5 213.333Z" fill="#EFF8FF"/>
<path d="M285 320C281.272 314.027 270 310 270 310C270 310 284.496 300.494 295 300C303.674 299.592 316.667 305 316.667 305L353.333 290L287.5 337.5C287.5 337.5 288.655 325.857 285 320Z" fill="#EFF8FF"/>
<path d="M362.5 293.333L298.333 340L335.833 325C335.833 325 348.302 330.189 356.667 330C366.647 329.775 380.833 321.667 380.833 321.667C380.833 321.667 371.246 316.399 367.5 310.833C363.531 304.937 362.5 293.333 362.5 293.333Z" fill="#EFF8FF"/>
<path d="M285 400C281.272 394.027 270 390 270 390C270 390 284.496 380.494 295 380C303.674 379.592 316.667 385 316.667 385L353.333 370L287.5 417.5C287.5 417.5 288.655 405.857 285 400Z" fill="#EFF8FF"/>
<path d="M362.5 373.333L298.333 420L335.833 405C335.833 405 348.302 410.189 356.667 410C366.647 409.775 380.833 401.667 380.833 401.667C380.833 401.667 371.246 396.399 367.5 390.833C363.531 384.937 362.5 373.333 362.5 373.333Z" fill="#EFF8FF"/>
<path d="M285 480C281.272 474.027 270 470 270 470C270 470 284.496 460.494 295 460C303.674 459.592 316.667 465 316.667 465L353.333 450L287.5 497.5C287.5 497.5 288.655 485.857 285 480Z" fill="#EFF8FF"/>
<path d="M362.5 453.333L298.333 500L335.833 485C335.833 485 348.302 490.189 356.667 490C366.647 489.775 380.833 481.667 380.833 481.667C380.833 481.667 371.246 476.399 367.5 470.833C363.531 464.937 362.5 453.333 362.5 453.333Z" fill="#EFF8FF"/>
<path d="M285 560C281.272 554.027 270 550 270 550C270 550 284.496 540.494 295 540C303.674 539.592 316.667 545 316.667 545L353.333 530L287.5 577.5C287.5 577.5 288.655 565.857 285 560Z" fill="#EFF8FF"/>
<path d="M362.5 533.333L298.333 580L335.833 565C335.833 565 348.302 570.189 356.667 570C366.647 569.775 380.833 561.667 380.833 561.667C380.833 561.667 371.246 556.399 367.5 550.833C363.531 544.937 362.5 533.333 362.5 533.333Z" fill="#EFF8FF"/>
<path d="M285 640C281.272 634.027 270 630 270 630C270 630 284.496 620.494 295 620C303.674 619.592 316.667 625 316.667 625L353.333 610L287.5 657.5C287.5 657.5 288.655 645.857 285 640Z" fill="#EFF8FF"/>
<path d="M362.5 613.333L298.333 660L335.833 645C335.833 645 348.302 650.189 356.667 650C366.647 649.775 380.833 641.667 380.833 641.667C380.833 641.667 371.246 636.399 367.5 630.833C363.531 624.937 362.5 613.333 362.5 613.333Z" fill="#EFF8FF"/>
<path d="M285 720C281.272 714.027 270 710 270 710C270 710 284.496 700.494 295 700C303.674 699.592 316.667 705 316.667 705L353.333 690L287.5 737.5C287.5 737.5 288.655 725.857 285 720Z" fill="#EFF8FF"/>
<path d="M362.5 693.333L298.333 740L335.833 725C335.833 725 348.302 730.189 356.667 730C366.647 729.775 380.833 721.667 380.833 721.667C380.833 721.667 371.246 716.399 367.5 710.833C363.531 704.937 362.5 693.333 362.5 693.333Z" fill="#EFF8FF"/>
<path d="M285 800C281.272 794.027 270 790 270 790C270 790 284.496 780.494 295 780C303.674 779.592 316.667 785 316.667 785L353.333 770L287.5 817.5C287.5 817.5 288.655 805.857 285 800Z" fill="#EFF8FF"/>
<path d="M362.5 773.333L298.333 820L335.833 805C335.833 805 348.302 810.189 356.667 810C366.647 809.775 380.833 801.667 380.833 801.667C380.833 801.667 371.246 796.399 367.5 790.833C363.531 784.937 362.5 773.333 362.5 773.333Z" fill="#EFF8FF"/>
<path d="M414.833 20C411.106 14.0275 399.833 10 399.833 10C399.833 10 414.33 0.493736 424.833 0C433.508 -0.407742 446.5 5 446.5 5L483.167 -10L417.333 37.5C417.333 37.5 418.488 25.8565 414.833 20Z" fill="#EFF8FF"/>
<path d="M492.333 -6.6667L428.167 40L465.667 25C465.667 25 478.135 30.1888 486.5 30C496.48 29.7746 510.667 21.6666 510.667 21.6666C510.667 21.6666 501.08 16.3989 497.333 10.8333C493.364 4.93707 492.333 -6.6667 492.333 -6.6667Z" fill="#EFF8FF"/>
<path d="M414.833 100C411.106 94.0275 399.833 90 399.833 90C399.833 90 414.33 80.4937 424.833 80C433.508 79.5923 446.5 85 446.5 85L483.167 70L417.333 117.5C417.333 117.5 418.488 105.857 414.833 100Z" fill="#EFF8FF"/>
<path d="M492.333 73.3333L428.167 120L465.667 105C465.667 105 478.135 110.189 486.5 110C496.48 109.775 510.667 101.667 510.667 101.667C510.667 101.667 501.08 96.3989 497.333 90.8333C493.364 84.9371 492.333 73.3333 492.333 73.3333Z" fill="#EFF8FF"/>
<path d="M414.833 180C411.106 174.027 399.833 170 399.833 170C399.833 170 414.33 160.494 424.833 160C433.508 159.592 446.5 165 446.5 165L483.167 150L417.333 197.5C417.333 197.5 418.488 185.857 414.833 180Z" fill="#EFF8FF"/>
<path d="M492.333 153.333L428.167 200L465.667 185C465.667 185 478.135 190.189 486.5 190C496.48 189.775 510.667 181.667 510.667 181.667C510.667 181.667 501.08 176.399 497.333 170.833C493.364 164.937 492.333 153.333 492.333 153.333Z" fill="#EFF8FF"/>
<path d="M414.833 260C411.106 254.027 399.833 250 399.833 250C399.833 250 414.33 240.494 424.833 240C433.508 239.592 446.5 245 446.5 245L483.167 230L417.333 277.5C417.333 277.5 418.488 265.857 414.833 260Z" fill="#EFF8FF"/>
<path d="M492.333 233.333L428.167 280L465.667 265C465.667 265 478.135 270.189 486.5 270C496.48 269.775 510.667 261.667 510.667 261.667C510.667 261.667 501.08 256.399 497.333 250.833C493.364 244.937 492.333 233.333 492.333 233.333Z" fill="#EFF8FF"/>
<path d="M414.833 340C411.106 334.027 399.833 330 399.833 330C399.833 330 414.33 320.494 424.833 320C433.508 319.592 446.5 325 446.5 325L483.167 310L417.333 357.5C417.333 357.5 418.488 345.857 414.833 340Z" fill="#EFF8FF"/>
<path d="M492.333 313.333L428.167 360L465.667 345C465.667 345 478.135 350.189 486.5 350C496.48 349.775 510.667 341.667 510.667 341.667C510.667 341.667 501.08 336.399 497.333 330.833C493.364 324.937 492.333 313.333 492.333 313.333Z" fill="#EFF8FF"/>
<path d="M414.833 420C411.106 414.027 399.833 410 399.833 410C399.833 410 414.33 400.494 424.833 400C433.508 399.592 446.5 405 446.5 405L483.167 390L417.333 437.5C417.333 437.5 418.488 425.857 414.833 420Z" fill="#EFF8FF"/>
<path d="M492.333 393.333L428.167 440L465.667 425C465.667 425 478.135 430.189 486.5 430C496.48 429.775 510.667 421.667 510.667 421.667C510.667 421.667 501.08 416.399 497.333 410.833C493.364 404.937 492.333 393.333 492.333 393.333Z" fill="#EFF8FF"/>
<path d="M414.833 500C411.106 494.027 399.833 490 399.833 490C399.833 490 414.33 480.494 424.833 480C433.508 479.592 446.5 485 446.5 485L483.167 470L417.333 517.5C417.333 517.5 418.488 505.857 414.833 500Z" fill="#EFF8FF"/>
<path d="M492.333 473.333L428.167 520L465.667 505C465.667 505 478.135 510.189 486.5 510C496.48 509.775 510.667 501.667 510.667 501.667C510.667 501.667 501.08 496.399 497.333 490.833C493.364 484.937 492.333 473.333 492.333 473.333Z" fill="#EFF8FF"/>
<path d="M414.833 580C411.106 574.027 399.833 570 399.833 570C399.833 570 414.33 560.494 424.833 560C433.508 559.592 446.5 565 446.5 565L483.167 550L417.333 597.5C417.333 597.5 418.488 585.857 414.833 580Z" fill="#EFF8FF"/>
<path d="M492.333 553.333L428.167 600L465.667 585C465.667 585 478.135 590.189 486.5 590C496.48 589.775 510.667 581.667 510.667 581.667C510.667 581.667 501.08 576.399 497.333 570.833C493.364 564.937 492.333 553.333 492.333 553.333Z" fill="#EFF8FF"/>
<path d="M414.833 660C411.106 654.027 399.833 650 399.833 650C399.833 650 414.33 640.494 424.833 640C433.508 639.592 446.5 645 446.5 645L483.167 630L417.333 677.5C417.333 677.5 418.488 665.857 414.833 660Z" fill="#EFF8FF"/>
<path d="M492.333 633.333L428.167 680L465.667 665C465.667 665 478.135 670.189 486.5 670C496.48 669.775 510.667 661.667 510.667 661.667C510.667 661.667 501.08 656.399 497.333 650.833C493.364 644.937 492.333 633.333 492.333 633.333Z" fill="#EFF8FF"/>
<path d="M414.833 740C411.106 734.027 399.833 730 399.833 730C399.833 730 414.33 720.494 424.833 720C433.508 719.592 446.5 725 446.5 725L483.167 710L417.333 757.5C417.333 757.5 418.488 745.857 414.833 740Z" fill="#EFF8FF"/>
<path d="M492.333 713.333L428.167 760L465.667 745C465.667 745 478.135 750.189 486.5 750C496.48 749.775 510.667 741.667 510.667 741.667C510.667 741.667 501.08 736.399 497.333 730.833C493.364 724.937 492.333 713.333 492.333 713.333Z" fill="#EFF8FF"/>
<path d="M414.833 820C411.106 814.027 399.833 810 399.833 810C399.833 810 414.33 800.494 424.833 800C433.508 799.592 446.5 805 446.5 805L483.167 790L417.333 837.5C417.333 837.5 418.488 825.857 414.833 820Z" fill="#EFF8FF"/>
<path d="M492.333 793.333L428.167 840L465.667 825C465.667 825 478.135 830.189 486.5 830C496.48 829.775 510.667 821.667 510.667 821.667C510.667 821.667 501.08 816.399 497.333 810.833C493.364 804.937 492.333 793.333 492.333 793.333Z" fill="#EFF8FF"/>
</g>
<defs>
<clipPath id="clip0_398_1157">
<rect width="511" height="844" fill="white"/>
</clipPath>
</defs>
</svg>
