<svg width="55" height="65" viewBox="0 0 55 65" fill="none" xmlns="http://www.w3.org/2000/svg">
<g clip-path="url(#clip0_253_199)">
<path d="M39.2864 64.5132H14.662C11.6595 64.5132 9.2168 62.0631 9.2168 59.0516V5.97462C9.2168 2.96317 11.6595 0.513153 14.662 0.513153H39.2864C42.2888 0.513153 44.7316 2.96317 44.7316 5.97462V59.0516C44.7316 62.0631 42.2888 64.5132 39.2864 64.5132Z" fill="#005EA6"/>
<path d="M43.0809 6.75904V58.1094C43.0809 60.6454 41.1603 62.7199 38.7318 62.8808H38.7307C38.6948 62.883 38.6589 62.8853 38.6219 62.8864C38.5577 62.8897 38.4936 62.8909 38.4283 62.8909C38.4283 62.8909 38.1891 62.873 37.7519 62.8394C37.3103 62.8059 36.6676 62.7556 35.866 62.6897C35.6257 62.6707 35.3723 62.6494 35.1047 62.6271C34.5718 62.5824 33.9867 62.5332 33.3592 62.4773C33.109 62.4561 32.8502 62.4326 32.5859 62.4091C31.2352 62.2896 29.7223 62.1498 28.1269 61.9911C27.8572 61.9654 27.5853 61.9386 27.3112 61.9107C27.2394 61.9028 27.1666 61.8961 27.0937 61.8883C25.9561 61.7732 10.5256 58.7085 10.5256 58.1094V6.75904C10.5256 4.11798 12.6083 1.97763 15.1782 1.97763H17.9559C18.3996 1.97763 18.7563 2.33305 18.7944 2.78795C18.7977 2.81812 18.8009 2.8483 18.8064 2.87848C18.8868 3.33561 19.2947 3.65414 19.7471 3.65414H33.8595C34.3119 3.65414 34.7197 3.33561 34.8002 2.87848C34.8056 2.8483 34.8089 2.81812 34.8122 2.78795C34.8502 2.33305 35.2069 1.97763 35.6507 1.97763H38.4283C40.9982 1.97763 43.0809 4.11798 43.0809 6.75904Z" fill="white"/>
<path d="M9.21685 10.3574C8.64077 10.3574 8.1723 10.6224 8.1723 10.9482V15.6743C8.1723 16.0002 8.64077 16.2651 9.21685 16.2651C9.79293 16.2651 10.2614 16.0002 10.2614 15.6743V10.9482C10.2614 10.6224 9.79293 10.3574 9.21685 10.3574Z" fill="#005EA6"/>
<path d="M9.21685 18.2384C8.64077 18.2384 8.1723 18.5034 8.1723 18.8292V23.5554C8.1723 23.8812 8.64077 24.1461 9.21685 24.1461C9.79293 24.1461 10.2614 23.8812 10.2614 23.5554V18.8292C10.2614 18.5034 9.79293 18.2384 9.21685 18.2384Z" fill="#005EA6"/>
<path d="M44.7313 12.3287C44.1552 12.3287 43.6867 12.5053 43.6867 12.7225V18.8271C43.6867 19.0443 44.1552 19.221 44.7313 19.221C45.3073 19.221 45.7758 19.0443 45.7758 18.8271V12.7225C45.7758 12.5053 45.3073 12.3287 44.7313 12.3287Z" fill="#005EA6"/>
<rect x="14.3015" y="8.68546" width="14.3015" height="14.3015" rx="7.15077" fill="white" stroke="#005EA6" stroke-width="0.5"/>
<path d="M19.4524 11.4531C19.493 11.4531 19.8103 11.4579 19.848 11.4678C20.0029 11.4786 20.1687 11.4919 20.9333 11.4961C20.9957 11.4166 21.0771 11.352 21.1709 11.3074C21.2647 11.2628 21.3684 11.2395 21.4735 11.2393C21.6937 11.2393 21.8892 11.34 22.013 11.4961C22.7775 11.4919 22.9434 11.4786 23.0983 11.4678C23.136 11.4579 23.4538 11.4531 23.4944 11.4531C23.7447 11.4531 23.948 11.6475 23.948 11.8873C23.948 12.127 23.7449 12.3214 23.4944 12.3214C23.4538 12.3214 23.136 12.3161 23.0983 12.3067C22.9434 12.2955 22.7775 12.2826 22.013 12.2785C21.9802 12.32 21.9422 12.3577 21.8997 12.3906V12.9167H22.15C22.288 12.9167 22.3998 13.0241 22.3998 13.1565C22.3998 13.2889 22.288 13.3962 22.15 13.3962H20.7963C20.6583 13.3962 20.5465 13.2889 20.5465 13.1565C20.5465 13.0241 20.6583 12.9167 20.7963 12.9167H21.0471V12.3906C21.0046 12.3576 20.9664 12.3199 20.9333 12.2785C20.1687 12.2826 20.0029 12.2955 19.848 12.3067C19.8103 12.3161 19.493 12.3214 19.4524 12.3214C19.2016 12.3214 18.9985 12.127 18.9985 11.8873C18.9985 11.6475 19.2016 11.4531 19.4524 11.4531ZM19.7765 20.4332H17.7371L17.3661 17.2162H20.1472L19.7765 20.4332ZM24.0877 15.6011H22.9097C22.8534 15.6011 22.7893 15.6519 22.7616 15.6967C22.5099 16.1295 22.0272 16.4221 21.4735 16.4221C20.9216 16.4221 20.4408 16.1316 20.1881 15.702C20.1619 15.6558 20.0953 15.6011 20.0366 15.6011H19.8813C19.6442 15.6011 19.4526 15.7848 19.4526 16.0114V16.4221H18.0615V15.2504C18.0615 14.7091 18.5202 14.2698 19.0861 14.2698H20.296C20.4339 14.2698 20.5462 14.1625 20.5462 14.0301V13.7906H22.3998V14.0303C22.3998 14.1627 22.5121 14.2701 22.6506 14.2701H24.0875L24.0877 15.6011ZM25.1953 16.0181H24.5V13.7906H25.1953V16.0181Z" fill="#005EA6"/>
<path d="M1.53231 24.4172C2.37858 24.4172 3.06462 23.7311 3.06462 22.8849C3.06462 22.0386 2.37858 21.3526 1.53231 21.3526C0.686037 21.3526 0 22.0386 0 22.8849C0 23.7311 0.686037 24.4172 1.53231 24.4172Z" fill="#FECF0D"/>
<path d="M21.3652 23.2732L3.15172 23.2935C3.12863 23.2935 3.10647 23.2677 3.09014 23.2217C3.07381 23.1757 3.06464 23.1133 3.06464 23.0483C3.06464 22.9833 3.07381 22.9209 3.09014 22.8749C3.10647 22.8289 3.12863 22.8031 3.15172 22.8031L21.3652 22.7827C21.3883 22.7827 21.4105 22.8086 21.4268 22.8546C21.4432 22.9006 21.4523 22.9629 21.4523 23.028C21.4523 23.093 21.4432 23.1554 21.4268 23.2014C21.4105 23.2474 21.3883 23.2732 21.3652 23.2732Z" fill="#005EA6"/>
<rect width="14.3015" height="14.3015" rx="7.15077" transform="matrix(-1 0 0 1 28.6031 42.3963)" fill="white" stroke="#005EA6" stroke-width="0.5"/>
<path d="M22.7032 44.9622L18.0241 49.7015C17.735 49.9978 17.8976 50.5442 18.2861 50.5851L21.9399 50.9834L19.7494 54.4357C19.65 54.5941 19.6636 54.8137 19.7855 54.9516C19.921 55.1048 20.1333 55.1099 20.2733 54.9618L24.9524 50.2225C25.2414 49.9263 25.0788 49.3798 24.6904 49.3389L21.0366 48.9406L23.2271 45.4883C23.3264 45.3299 23.3129 45.1103 23.1909 44.9725C23.1271 44.8987 23.0401 44.8563 22.9489 44.8544C22.8576 44.8525 22.7694 44.8912 22.7032 44.9622Z" fill="#005EA6"/>
<path d="M2.55385 58.128C3.40012 58.128 4.08616 57.4419 4.08616 56.5957C4.08616 55.7494 3.40012 55.0634 2.55385 55.0634C1.70758 55.0634 1.02155 55.7494 1.02155 56.5957C1.02155 57.4419 1.70758 58.128 2.55385 58.128Z" fill="#FECF0D"/>
<path d="M22.3868 56.984L4.17327 57.0043C4.15017 57.0043 4.12802 56.9785 4.11168 56.9325C4.09535 56.8865 4.08618 56.8241 4.08618 56.7591C4.08618 56.694 4.09535 56.6317 4.11168 56.5857C4.12802 56.5397 4.15017 56.5139 4.17327 56.5139L22.3868 56.4935C22.4099 56.4935 22.432 56.5194 22.4484 56.5654C22.4647 56.6113 22.4739 56.6737 22.4739 56.7388C22.4739 56.8038 22.4647 56.8662 22.4484 56.9122C22.432 56.9581 22.4099 56.984 22.3868 56.984Z" fill="#005EA6"/>
<rect width="14.3015" height="14.3015" rx="7.15077" transform="matrix(-1 0 0 1 40.8615 25.0301)" fill="white" stroke="#005EA6" stroke-width="0.5"/>
<path fill-rule="evenodd" clip-rule="evenodd" d="M38.6141 32.1808C38.6141 33.4 38.0986 34.5693 37.1809 35.4314C36.2633 36.2935 35.0187 36.7778 33.7209 36.7778C32.4232 36.7778 31.1786 36.2935 30.2609 35.4314C29.3433 34.5693 28.8277 33.4 28.8277 32.1808C28.8277 30.9617 29.3433 29.7924 30.2609 28.9303C31.1786 28.0682 32.4232 27.5839 33.7209 27.5839C35.0187 27.5839 36.2633 28.0682 37.1809 28.9303C38.0986 29.7924 38.6141 30.9617 38.6141 32.1808ZM29.6666 32.1808C29.6666 33.191 30.0937 34.1598 30.8541 34.8741C31.6144 35.5884 32.6456 35.9897 33.7209 35.9897C34.7962 35.9897 35.8275 35.5884 36.5878 34.8741C37.3481 34.1598 37.7753 33.191 37.7753 32.1808C37.7753 31.1707 37.3481 30.2019 36.5878 29.4876C35.8275 28.7733 34.7962 28.372 33.7209 28.372C32.6456 28.372 31.6144 28.7733 30.8541 29.4876C30.0937 30.2019 29.6666 31.1707 29.6666 32.1808Z" fill="#005EA6"/>
<path fill-rule="evenodd" clip-rule="evenodd" d="M35.8187 32.1813C35.8187 34.5569 34.9849 36.5155 33.7216 36.5155C32.4583 36.5155 31.6245 34.5569 31.6245 32.1813C31.6245 29.8056 32.4583 27.847 33.7216 27.847C34.9849 27.847 35.8187 29.8056 35.8187 32.1813ZM32.4633 32.1813C32.4633 34.1577 33.1316 35.7275 33.7216 35.7275C34.3116 35.7275 34.9798 34.1577 34.9798 32.1813C34.9798 30.2048 34.3116 28.6351 33.7216 28.6351C33.1316 28.6351 32.4633 30.2048 32.4633 32.1813Z" fill="#005EA6"/>
<path d="M37.2988 29.7989L36.7362 29.2147C36.6803 29.262 36.6193 29.3093 36.5545 29.355C35.8437 29.8551 34.709 30.1641 33.4703 30.1641C32.4129 30.1641 31.4281 29.9397 30.7128 29.5557C30.5406 29.4632 30.3873 29.3629 30.2548 29.2562L29.7101 29.8557C29.8921 30.0007 30.0883 30.1291 30.2962 30.2392C31.144 30.6952 32.2725 30.9516 33.4703 30.9516C34.8807 30.9516 36.191 30.5954 37.0578 29.9854C37.1411 29.9268 37.2215 29.8645 37.2988 29.7989ZM37.2988 34.5703L36.7362 35.1545C36.6803 35.1067 36.6193 35.0599 36.5545 35.0142C35.8437 34.5141 34.709 34.2051 33.4703 34.2051C32.4129 34.2051 31.4281 34.4295 30.7128 34.8135C30.5406 34.906 30.3873 35.0063 30.2548 35.113L29.7101 34.5135C29.8923 34.3688 30.0885 34.2404 30.2962 34.13C31.144 33.674 32.2725 33.4176 33.4703 33.4176C34.8807 33.4176 36.191 33.7738 37.0578 34.3838C37.1411 34.4424 37.2215 34.5047 37.2988 34.5703ZM38.3345 32.5744V31.7864H29.1073V32.5744H38.3345Z" fill="#005EA6"/>
<path d="M53.6308 40.7618C54.477 40.7618 55.1631 40.0758 55.1631 39.2295C55.1631 38.3832 54.477 37.6972 53.6308 37.6972C52.7845 37.6972 52.0984 38.3832 52.0984 39.2295C52.0984 40.0758 52.7845 40.7618 53.6308 40.7618Z" fill="#FECF0D"/>
<path d="M52.0114 39.6178L33.7978 39.6381C33.7747 39.6381 33.7526 39.6123 33.7363 39.5663C33.7199 39.5203 33.7108 39.4579 33.7108 39.3929C33.7108 39.3279 33.7199 39.2655 33.7363 39.2195C33.7526 39.1735 33.7747 39.1477 33.7978 39.1477L52.0114 39.1273C52.0345 39.1273 52.0566 39.1532 52.0729 39.1992C52.0893 39.2452 52.0984 39.3075 52.0984 39.3726C52.0984 39.4376 52.0893 39.5 52.0729 39.546C52.0566 39.592 52.0345 39.6178 52.0114 39.6178Z" fill="#005EA6"/>
</g>
<defs>
<clipPath id="clip0_253_199">
<rect width="55" height="64" fill="white" transform="translate(0 0.513153)"/>
</clipPath>
</defs>
</svg>
