<svg width="250" height="250" viewBox="0 0 250 250" fill="none" xmlns="http://www.w3.org/2000/svg">
<g clip-path="url(#clip0_148_323)">
<path d="M148.45 69.394H147.261V36.8413C147.261 31.8443 145.276 27.0519 141.743 23.5185C138.209 19.9851 133.417 18 128.42 18H59.4506C56.9763 18 54.5263 18.4873 52.2403 19.4342C49.9544 20.3811 47.8773 21.7689 46.1278 23.5185C44.3782 25.2681 42.9903 27.3451 42.0435 29.6311C41.0966 31.917 40.6093 34.3671 40.6093 36.8413V215.431C40.6093 220.428 42.5943 225.22 46.1278 228.754C49.6612 232.287 54.4535 234.272 59.4506 234.272H128.42C133.417 234.272 138.209 232.287 141.743 228.753C145.276 225.22 147.261 220.428 147.261 215.431V92.5656H148.449L148.45 69.394Z" fill="#005EA6"/>
<path d="M129.18 22.9H120.178C120.592 23.9151 120.75 25.0164 120.638 26.107C120.527 27.1975 120.148 28.2438 119.537 29.1537C118.925 30.0635 118.099 30.809 117.132 31.3245C116.164 31.8399 115.085 32.1095 113.988 32.1094H74.4765C73.3803 32.1094 72.3009 31.8397 71.3334 31.3243C70.3659 30.8088 69.5401 30.0633 68.9286 29.1534C68.3172 28.2436 67.9388 27.1973 67.8269 26.1068C67.7151 25.0163 67.8731 23.9151 68.2871 22.9H59.8786C56.1469 22.9 52.568 24.3825 49.9293 27.0212C47.2905 29.6599 45.8081 33.2388 45.8081 36.9705V215.301C45.8081 219.032 47.2905 222.611 49.9293 225.25C52.568 227.889 56.1469 229.371 59.8786 229.371H129.18C132.912 229.371 136.491 227.889 139.13 225.25C141.768 222.611 143.251 219.032 143.251 215.301V36.9703C143.251 33.2386 141.768 29.6598 139.13 27.0211C136.491 24.3824 132.912 22.9 129.18 22.9Z" fill="white"/>
<path d="M177.684 201.048L112.652 201.074C112.57 201.074 112.491 201.041 112.433 200.983C112.374 200.924 112.342 200.845 112.342 200.763C112.342 200.68 112.374 200.601 112.433 200.543C112.491 200.485 112.57 200.452 112.652 200.452L177.684 200.426C177.766 200.426 177.846 200.459 177.904 200.517C177.962 200.576 177.995 200.655 177.995 200.737C177.995 200.82 177.962 200.899 177.904 200.957C177.846 201.015 177.766 201.048 177.684 201.048Z" fill="#ADB0B3"/>
<path d="M176.818 205.09C179.223 205.09 181.172 203.141 181.172 200.737C181.172 198.333 179.223 196.384 176.818 196.384C174.414 196.384 172.465 198.333 172.465 200.737C172.465 203.141 174.414 205.09 176.818 205.09Z" fill="#FECF0D"/>
<path d="M176.129 117.715L110.476 117.74C110.393 117.74 110.314 117.708 110.256 117.649C110.198 117.591 110.165 117.512 110.165 117.43C110.165 117.347 110.198 117.268 110.256 117.21C110.314 117.151 110.393 117.119 110.476 117.119L176.129 117.093C176.212 117.093 176.291 117.126 176.349 117.184C176.407 117.242 176.44 117.321 176.44 117.404C176.44 117.486 176.407 117.565 176.349 117.624C176.291 117.682 176.212 117.715 176.129 117.715Z" fill="#ADB0B3"/>
<path d="M176.818 122.068C179.223 122.068 181.172 120.119 181.172 117.715C181.172 115.31 179.223 113.361 176.818 113.361C174.414 113.361 172.465 115.31 172.465 117.715C172.465 120.119 174.414 122.068 176.818 122.068Z" fill="#FECF0D"/>
<path d="M8.04239 75.1152L73.6958 75.141C73.7782 75.141 73.8573 75.1082 73.9157 75.0499C73.974 74.9916 74.0067 74.9125 74.0067 74.8301C74.0067 74.7476 73.974 74.6685 73.9157 74.6102C73.8573 74.5519 73.7782 74.5191 73.6958 74.5191L8.04239 74.4933C7.95992 74.4933 7.88083 74.5261 7.82251 74.5844C7.7642 74.6427 7.73145 74.7218 7.73145 74.8043C7.73145 74.8868 7.7642 74.9658 7.82251 75.0242C7.88083 75.0825 7.95992 75.1152 8.04239 75.1152Z" fill="#ADB0B3"/>
<path d="M7.35323 79.4684C9.75746 79.4684 11.7065 77.5194 11.7065 75.1152C11.7065 72.711 9.75746 70.762 7.35323 70.762C4.94901 70.762 3 72.711 3 75.1152C3 77.5194 4.94901 79.4684 7.35323 79.4684Z" fill="#FECF0D"/>
<path d="M8.04239 159.381L73.6958 159.407C73.7782 159.407 73.8573 159.374 73.9157 159.316C73.974 159.258 74.0067 159.179 74.0067 159.096C74.0067 159.014 73.974 158.935 73.9157 158.876C73.8573 158.818 73.7782 158.785 73.6958 158.785L8.04239 158.76C7.95992 158.76 7.88083 158.792 7.82251 158.851C7.7642 158.909 7.73145 158.988 7.73145 159.07C7.73145 159.153 7.7642 159.232 7.82251 159.29C7.88083 159.349 7.95992 159.381 8.04239 159.381Z" fill="#ADB0B3"/>
<path d="M7.35323 163.735C9.75746 163.735 11.7065 161.786 11.7065 159.381C11.7065 156.977 9.75746 155.028 7.35323 155.028C4.94901 155.028 3 156.977 3 159.381C3 161.786 4.94901 163.735 7.35323 163.735Z" fill="#FECF0D"/>
<path d="M114.275 201.074C111.507 201.074 108.802 200.253 106.501 198.716C104.2 197.178 102.406 194.993 101.347 192.436C100.288 189.879 100.011 187.066 100.551 184.351C101.091 181.637 102.423 179.144 104.38 177.187C106.337 175.23 108.83 173.898 111.545 173.358C114.259 172.818 117.072 173.095 119.629 174.154C122.186 175.213 124.371 177.006 125.909 179.307C127.446 181.609 128.267 184.314 128.267 187.081C128.263 190.791 126.787 194.348 124.164 196.971C121.541 199.594 117.984 201.07 114.275 201.074ZM114.275 173.711C111.63 173.711 109.045 174.495 106.846 175.964C104.647 177.433 102.934 179.521 101.922 181.965C100.91 184.408 100.645 187.096 101.161 189.69C101.677 192.283 102.95 194.666 104.82 196.536C106.69 198.406 109.072 199.679 111.666 200.195C114.26 200.711 116.948 200.446 119.391 199.434C121.834 198.422 123.923 196.708 125.392 194.51C126.861 192.311 127.645 189.726 127.645 187.081C127.641 183.536 126.231 180.138 123.725 177.631C121.218 175.125 117.819 173.715 114.275 173.711Z" fill="#ADB0B3"/>
<path d="M73.8517 159.407C71.0842 159.407 68.3789 158.586 66.0778 157.049C63.7768 155.511 61.9833 153.326 60.9242 150.769C59.8652 148.213 59.5881 145.399 60.128 142.685C60.6679 139.971 62.0006 137.477 63.9575 135.52C65.9144 133.563 68.4076 132.231 71.1219 131.691C73.8362 131.151 76.6496 131.428 79.2064 132.487C81.7632 133.546 83.9485 135.34 85.486 137.641C87.0236 139.942 87.8442 142.647 87.8442 145.415C87.84 149.124 86.3644 152.681 83.7412 155.304C81.118 157.927 77.5614 159.403 73.8517 159.407ZM73.8517 132.044C71.2072 132.044 68.6221 132.828 66.4233 134.297C64.2245 135.766 62.5108 137.855 61.4988 140.298C60.4868 142.741 60.222 145.429 60.7379 148.023C61.2538 150.617 62.5273 152.999 64.3972 154.869C66.2671 156.739 68.6495 158.012 71.2432 158.528C73.8368 159.044 76.5252 158.779 78.9684 157.767C81.4116 156.755 83.4998 155.042 84.969 152.843C86.4382 150.644 87.2223 148.059 87.2223 145.415C87.2183 141.87 85.8084 138.471 83.3017 135.965C80.7951 133.458 77.3966 132.048 73.8517 132.044Z" fill="#ADB0B3"/>
<path d="M111.476 117.741C108.708 117.741 106.003 116.92 103.702 115.382C101.401 113.845 99.6076 111.659 98.5485 109.103C97.4895 106.546 97.2124 103.732 97.7523 101.018C98.2922 98.3039 99.6248 95.8106 101.582 93.8538C103.539 91.8969 106.032 90.5642 108.746 90.0243C111.46 89.4844 114.274 89.7615 116.831 90.8206C119.387 91.8796 121.573 93.6731 123.11 95.9741C124.648 98.2752 125.468 100.981 125.468 103.748C125.464 107.458 123.989 111.014 121.366 113.638C118.742 116.261 115.186 117.736 111.476 117.741ZM111.476 90.3773C108.831 90.3773 106.246 91.1615 104.048 92.6307C101.849 94.0999 100.135 96.1881 99.1231 98.6312C98.1111 101.074 97.8463 103.763 98.3622 106.356C98.8781 108.95 100.152 111.333 102.021 113.202C103.891 115.072 106.274 116.346 108.867 116.862C111.461 117.378 114.149 117.113 116.593 116.101C119.036 115.089 121.124 113.375 122.593 111.176C124.062 108.978 124.847 106.392 124.847 103.748C124.843 100.203 123.433 96.8045 120.926 94.2979C118.419 91.7913 115.021 90.3813 111.476 90.3773Z" fill="#ADB0B3"/>
<path d="M74.1625 75.1152C71.395 75.1152 68.6897 74.2946 66.3886 72.757C64.0876 71.2195 62.2941 69.0342 61.235 66.4774C60.176 63.9206 59.8989 61.1071 60.4388 58.3929C60.9787 55.6786 62.3114 53.1853 64.2683 51.2285C66.2251 49.2716 68.7184 47.9389 71.4327 47.399C74.1469 46.8591 76.9604 47.1362 79.5172 48.1953C82.074 49.2543 84.2593 51.0478 85.7968 53.3488C87.3344 55.6499 88.155 58.3552 88.155 61.1227C88.1508 64.8324 86.6752 68.389 84.052 71.0122C81.4288 73.6354 77.8722 75.111 74.1625 75.1152ZM74.1625 47.752C71.518 47.752 68.9329 48.5362 66.7341 50.0054C64.5353 51.4746 62.8216 53.5628 61.8096 56.0059C60.7976 58.4491 60.5328 61.1375 61.0487 63.7312C61.5646 66.3248 62.8381 68.7072 64.708 70.5771C66.5779 72.4471 68.9603 73.7205 71.554 74.2364C74.1476 74.7523 76.836 74.4875 79.2792 73.4755C81.7224 72.4635 83.8106 70.7498 85.2798 68.551C86.7489 66.3522 87.5331 63.7671 87.5331 61.1227C87.5291 57.5778 86.1191 54.1792 83.6125 51.6726C81.1059 49.166 77.7073 47.756 74.1625 47.752Z" fill="#ADB0B3"/>
<path d="M185.655 231.087C186.604 230.318 187.296 229.277 187.638 228.103C187.891 226.916 187.385 225.522 186.254 225.063C184.984 224.572 183.626 225.455 182.599 226.343C181.572 227.231 180.389 228.248 179.042 228.057C179.732 227.428 180.248 226.631 180.538 225.743C180.828 224.856 180.884 223.908 180.699 222.992C180.643 222.612 180.483 222.254 180.235 221.96C179.532 221.206 178.252 221.531 177.405 222.125C174.721 224.015 173.972 227.659 173.962 230.943C173.688 229.755 173.916 228.522 173.91 227.329C173.905 226.136 173.57 224.748 172.547 224.118C171.914 223.777 171.202 223.608 170.482 223.628C169.274 223.586 167.932 223.705 167.106 224.588C166.074 225.682 166.347 227.525 167.24 228.718C168.133 229.91 169.486 230.68 170.73 231.516C171.732 232.11 172.587 232.924 173.229 233.896C173.305 234.03 173.367 234.172 173.415 234.319H180.978C182.676 233.458 184.249 232.371 185.655 231.087Z" fill="#F2F2F2"/>
<path fill-rule="evenodd" clip-rule="evenodd" d="M82.0481 60.9874C82.0481 63.0014 81.248 64.9329 79.8239 66.357C78.3998 67.7811 76.4683 68.5812 74.4543 68.5812C72.4404 68.5812 70.5089 67.7811 69.0848 66.357C67.6606 64.9329 66.8606 63.0014 66.8606 60.9874C66.8606 58.9734 67.6606 57.0419 69.0848 55.6178C70.5089 54.1937 72.4404 53.3937 74.4543 53.3937C76.4683 53.3937 78.3998 54.1937 79.8239 55.6178C81.248 57.0419 82.0481 58.9734 82.0481 60.9874ZM68.1624 60.9874C68.1624 62.6562 68.8253 64.2565 70.0053 65.4365C71.1852 66.6165 72.7856 67.2794 74.4543 67.2794C76.1231 67.2794 77.7235 66.6165 78.9034 65.4365C80.0834 64.2565 80.7463 62.6562 80.7463 60.9874C80.7463 59.3187 80.0834 57.7183 78.9034 56.5383C77.7235 55.3584 76.1231 54.6955 74.4543 54.6955C72.7856 54.6955 71.1852 55.3584 70.0053 56.5383C68.8253 57.7183 68.1624 59.3187 68.1624 60.9874Z" fill="#005EA6"/>
<path fill-rule="evenodd" clip-rule="evenodd" d="M77.7089 60.9868C77.7089 64.9112 76.4149 68.1466 74.4544 68.1466C72.4939 68.1466 71.1999 64.9112 71.1999 60.9868C71.1999 57.0623 72.4939 53.827 74.4544 53.827C76.4149 53.827 77.7089 57.0623 77.7089 60.9868ZM72.5017 60.9868C72.5017 64.2517 73.5388 66.8448 74.4544 66.8448C75.37 66.8448 76.4071 64.2517 76.4071 60.9868C76.4071 57.7219 75.37 55.1288 74.4544 55.1288C73.5388 55.1288 72.5017 57.7219 72.5017 60.9868Z" fill="#005EA6"/>
<path d="M80.007 57.0539L79.1339 56.0888C79.0471 56.1669 78.9525 56.245 78.8519 56.3205C77.7488 57.1467 75.9879 57.657 74.0656 57.657C72.4245 57.657 70.8962 57.2864 69.7862 56.652C69.5189 56.4993 69.2811 56.3335 69.0755 56.1574L68.2302 57.1476C68.5126 57.3871 68.8171 57.5993 69.1397 57.7811C70.4554 58.5344 72.2067 58.9579 74.0656 58.9579C76.2544 58.9579 78.2878 58.3695 79.6329 57.362C79.7623 57.2651 79.8871 57.1622 80.007 57.0539ZM80.007 64.9357L79.1339 65.9008C79.0471 65.8218 78.9525 65.7446 78.8519 65.6691C77.7488 64.8429 75.9879 64.3326 74.0656 64.3326C72.4245 64.3326 70.8962 64.7032 69.7862 65.3376C69.5189 65.4903 69.2811 65.6561 69.0755 65.8322L68.2302 64.842C68.5129 64.6029 68.8174 64.3908 69.1397 64.2085C70.4554 63.4552 72.2067 63.0317 74.0656 63.0317C76.2544 63.0317 78.2878 63.6201 79.6329 64.6277C79.7623 64.7245 79.8871 64.8274 80.007 64.9357ZM81.6143 61.6388V60.337H67.2946V61.6388H81.6143Z" fill="#005EA6"/>
<path d="M107.834 95.391C107.9 95.391 108.419 95.3994 108.481 95.4166C108.734 95.4354 109.005 95.4586 110.255 95.4658C110.357 95.3275 110.49 95.2151 110.644 95.1375C110.797 95.0599 110.966 95.0193 111.138 95.019C111.498 95.019 111.818 95.1942 112.02 95.4658C113.27 95.4586 113.541 95.4354 113.795 95.4166C113.856 95.3994 114.376 95.391 114.442 95.391C114.851 95.391 115.184 95.7294 115.184 96.1466C115.184 96.5638 114.852 96.9022 114.442 96.9022C114.376 96.9022 113.856 96.893 113.795 96.8766C113.541 96.857 113.27 96.8346 112.02 96.8274C111.967 96.8998 111.905 96.9653 111.835 97.0226V97.9382H112.244C112.47 97.9382 112.653 98.125 112.653 98.3554C112.653 98.5858 112.47 98.7726 112.244 98.7726H110.031C109.805 98.7726 109.623 98.5858 109.623 98.3554C109.623 98.125 109.805 97.9382 110.031 97.9382H110.441V97.0226C110.372 96.9651 110.309 96.8996 110.255 96.8274C109.005 96.8346 108.734 96.857 108.481 96.8766C108.419 96.893 107.9 96.9022 107.834 96.9022C107.424 96.9022 107.092 96.5638 107.092 96.1466C107.092 95.7294 107.424 95.391 107.834 95.391ZM108.364 111.019H105.029L104.423 105.421H108.97L108.364 111.019ZM115.412 102.61H113.486C113.394 102.61 113.289 102.698 113.244 102.776C112.833 103.529 112.043 104.039 111.138 104.039C110.236 104.039 109.45 103.533 109.037 102.785C108.994 102.705 108.885 102.61 108.789 102.61H108.535C108.147 102.61 107.834 102.929 107.834 103.324V104.039H105.56V101.999C105.56 101.057 106.31 100.293 107.235 100.293H109.213C109.439 100.293 109.622 100.106 109.622 99.8758V99.459H112.653V99.8762C112.653 100.107 112.836 100.293 113.063 100.293H115.412L115.412 102.61ZM117.223 103.335H116.086V99.459H117.223V103.335Z" fill="#005EA6"/>
<path d="M76.1907 136.335L68.4207 144.713C67.9407 145.236 68.2107 146.202 68.8557 146.274L74.9232 146.979L71.2857 153.081C71.1207 153.361 71.1432 153.749 71.3457 153.993C71.5707 154.264 71.9232 154.273 72.1557 154.011L79.9257 145.634C80.4057 145.11 80.1357 144.144 79.4907 144.072L73.4232 143.368L77.0607 137.265C77.2257 136.985 77.2032 136.597 77.0007 136.353C76.8947 136.223 76.7503 136.148 76.5988 136.145C76.4473 136.141 76.3007 136.21 76.1907 136.335Z" fill="#005EA6"/>
<path d="M119.977 181.172H107.834C107.009 181.172 106.342 181.847 106.342 182.672V185.672C107.167 185.672 107.834 186.347 107.834 187.172C107.834 187.997 107.167 188.672 106.334 188.672V191.672C106.334 192.497 107.009 193.172 107.834 193.172H119.834C120.659 193.172 121.334 192.497 121.334 191.672V182.672C121.334 181.847 120.727 181.172 119.977 181.172ZM119.834 191.672H107.834V189.767C108.727 189.249 109.334 188.274 109.334 187.172C109.334 186.062 108.734 185.094 107.842 184.577L107.834 182.672H119.834V191.672ZM111.487 189.917L110.242 187.757L110.939 187.569L111.884 188.312L113.677 187.832L111.877 184.712L112.927 184.427L115.934 187.232L117.764 186.744C117.949 186.695 118.146 186.722 118.312 186.817C118.478 186.913 118.599 187.07 118.649 187.254C118.696 187.441 118.668 187.639 118.572 187.805C118.475 187.972 118.317 188.095 118.132 188.147L111.487 189.917Z" fill="#005EA6"/>
<path d="M227.24 224.338L224.856 224.394L223.527 213.662L227.045 213.579L227.24 224.338Z" fill="#A0616A"/>
<path d="M219.06 229.321C219.06 229.725 219.346 230.052 219.699 230.052H224.431C224.431 230.052 224.896 228.176 226.795 227.369L226.926 230.052H229.367L229.072 225.738C229.072 225.738 229.725 223.43 228.368 222.25C227.012 221.071 228.111 221.235 228.111 221.235L227.577 218.565L223.888 219L223.861 223.191L222.071 227.351L219.445 228.65C219.212 228.766 219.06 229.03 219.06 229.321Z" fill="#005EA6"/>
<path d="M207.804 223.942L205.436 224.223L203.104 213.665L206.599 213.25L207.804 223.942Z" fill="#A0616A"/>
<path d="M200.129 229.675C200.167 230.077 200.482 230.376 200.833 230.342L205.545 229.896C205.545 229.896 205.832 227.985 207.646 227.002L208.029 229.66L210.459 229.43L209.759 225.163C209.759 225.163 210.193 222.804 208.732 221.758C207.27 220.711 208.379 220.771 208.379 220.771L207.597 218.163L203.966 218.944L204.333 223.119L202.941 227.43L200.449 228.971C200.228 229.108 200.102 229.385 200.129 229.675Z" fill="#005EA6"/>
<path d="M210.239 125.109C209.962 120.394 209.831 116.252 211.206 118C211.206 113.815 214.592 110.422 218.769 110.422C222.946 110.422 226.332 113.815 226.332 118V123.655C226.331 124.217 225.877 124.672 225.317 124.673L211.255 126.126C210.694 126.125 210.24 125.67 210.239 125.109Z" fill="#005EA6"/>
<path d="M216.903 124.587C219.965 124.587 222.448 122.1 222.448 119.032C222.448 115.963 219.965 113.476 216.903 113.476C213.84 113.476 211.358 115.963 211.358 119.032C211.358 122.1 213.84 124.587 216.903 124.587Z" fill="#A0616A"/>
<path d="M209.417 118.452C209.341 114.479 211.929 111.056 215.4 112.458H216.528C219.831 112.462 222.507 115.143 222.511 118.452L220.657 124.201L220.125 118.566L219.312 116.283L219.149 118.566H217.916C216.854 118.593 215.798 118.424 214.788 118.095C212.941 117.493 211.187 118.137 209.417 118.566V118.452Z" fill="#005EA6"/>
<path d="M220.136 149.565L206.018 149.027C206.117 148.515 206.064 147.768 206.358 147.726C205.947 146.689 206.52 146.679 206.543 146.148C206.632 144.095 206.156 141.965 205.229 139.773C204.62 138.079 204.61 136.623 205.2 135.45C205.706 134.485 206.558 133.748 207.584 133.385L210.673 129.647C211.478 128.674 212.665 126.574 213.926 126.582L220.696 126.34C220.889 126.224 223.266 128.272 225.581 129.277C228.091 130.367 227.573 133.345 227.567 133.383L227.561 133.419L227.534 133.443L222.195 137.949L220.51 147.455C220.679 147.946 220.636 148.314 220.32 148.526C220.774 148.862 220.462 149.213 220.136 149.565Z" fill="#FECF0D"/>
<path d="M206.131 148.032L199.478 167.996L196.657 190.889L201.046 217.797L209.345 216.42L205.289 195.281L210.237 174.066L221.987 216.249L228.845 216.42L224.176 167.74L220.454 149.111L206.131 148.032Z" fill="#005EA6"/>
<path d="M218.049 164.187C217.477 165.661 216.254 166.56 215.318 166.195C214.382 165.831 214.087 164.34 214.659 162.866C214.909 162.221 215.284 161.686 215.705 161.319L218.206 155.104L221.092 156.342L218.32 162.337C218.383 162.893 218.299 163.541 218.049 164.187Z" fill="#FFB6B6"/>
<path d="M221.667 127.998C221.667 127.998 228.014 129.168 227.701 132.078C227.389 134.989 222.809 150.948 222.809 150.948L219.79 161.268L215.869 159.943L218.775 144.799L221.667 127.998Z" fill="#FECF0D"/>
<path d="M185.91 137.075C186.459 137.303 186.91 137.636 187.217 138.006L192.578 139.847L191.629 142.377L186.293 140.237C185.815 140.281 185.261 140.196 184.712 139.968C183.46 139.447 182.712 138.377 183.043 137.578C183.374 136.779 184.657 136.554 185.91 137.075Z" fill="#FFB6B6"/>
<path d="M216.28 129.881L204.05 146.422L189.714 142.466L190.338 138.719L201.254 140.791L207.344 131.41C209.333 127.558 213.252 126.783 216.28 129.881Z" fill="#FECF0D"/>
</g>
<defs>
<clipPath id="clip0_148_323">
<rect width="250" height="250" fill="white"/>
</clipPath>
</defs>
</svg>
