<svg width="53" height="64" viewBox="0 0 53 64" fill="none" xmlns="http://www.w3.org/2000/svg">
<g clip-path="url(#clip0_195_443)">
<path d="M38.4581 63.6155H14.353C11.4138 63.6155 9.02252 61.2171 9.02252 58.2691V6.31116C9.02252 3.36321 11.4138 0.964844 14.353 0.964844H38.4581C41.3972 0.964844 43.7885 3.36321 43.7885 6.31116V58.2691C43.7885 61.2171 41.3972 63.6155 38.4581 63.6155Z" fill="#005EA6"/>
<path d="M42.1726 7.07903V57.3468C42.1726 59.8293 40.2925 61.86 37.9151 62.0175H37.9141C37.8789 62.0197 37.8438 62.0219 37.8076 62.023C37.7448 62.0263 37.682 62.0274 37.6181 62.0274C37.6181 62.0274 37.3839 62.0098 36.9559 61.977C36.5236 61.9442 35.8944 61.895 35.1098 61.8304C34.8745 61.8118 34.6265 61.791 34.3646 61.7691C33.8429 61.7254 33.2701 61.6772 32.6558 61.6225C32.411 61.6017 32.1576 61.5788 31.8989 61.5558C30.5766 61.4387 29.0957 61.302 27.5339 61.1466C27.2698 61.1214 27.0037 61.0952 26.7354 61.0678C26.6651 61.0602 26.5938 61.0536 26.5225 61.0459C25.4088 60.9333 10.3037 57.9332 10.3037 57.3468V7.07903C10.3037 4.49366 12.3425 2.39844 14.8582 2.39844H17.5773C18.0117 2.39844 18.3609 2.74636 18.3981 3.19167C18.4013 3.22121 18.4045 3.25075 18.4099 3.28029C18.4886 3.72778 18.8879 4.0396 19.3308 4.0396H33.1456C33.5884 4.0396 33.9877 3.72778 34.0665 3.28029C34.0718 3.25075 34.075 3.22121 34.0782 3.19167C34.1154 2.74636 34.4646 2.39844 34.899 2.39844H37.6181C40.1338 2.39844 42.1726 4.49366 42.1726 7.07903Z" fill="white"/>
<path d="M9.02253 10.6016C8.45859 10.6016 8 10.8609 8 11.1799V15.8064C8 16.1253 8.45859 16.3847 9.02253 16.3847C9.58646 16.3847 10.0451 16.1253 10.0451 15.8064V11.1799C10.0451 10.8609 9.58646 10.6016 9.02253 10.6016Z" fill="#005EA6"/>
<path d="M9.02253 18.3164C8.45859 18.3164 8 18.5758 8 18.8947V23.5212C8 23.8402 8.45859 24.0995 9.02253 24.0995C9.58646 24.0995 10.0451 23.8402 10.0451 23.5212V18.8947C10.0451 18.5758 9.58646 18.3164 9.02253 18.3164Z" fill="#005EA6"/>
<path d="M17.5037 3.16406H13.4316C13.4095 3.16406 13.3916 3.18248 13.3916 3.20519V3.66999C13.3916 3.6927 13.4095 3.71112 13.4316 3.71112H17.5037C17.5258 3.71112 17.5437 3.6927 17.5437 3.66999V3.20519C17.5437 3.18248 17.5258 3.16406 17.5037 3.16406Z" fill="#E6E6E6"/>
<path d="M35.5723 3.71123C35.8075 3.71123 35.9982 3.51529 35.9982 3.27358C35.9982 3.03188 35.8075 2.83594 35.5723 2.83594C35.3371 2.83594 35.1465 3.03188 35.1465 3.27358C35.1465 3.51529 35.3371 3.71123 35.5723 3.71123Z" fill="#E6E6E6"/>
<path d="M36.7432 3.71123C36.9784 3.71123 37.1691 3.51529 37.1691 3.27358C37.1691 3.03188 36.9784 2.83594 36.7432 2.83594C36.508 2.83594 36.3174 3.03188 36.3174 3.27358C36.3174 3.51529 36.508 3.71123 36.7432 3.71123Z" fill="#E6E6E6"/>
<path d="M37.9136 3.71123C38.1488 3.71123 38.3395 3.51529 38.3395 3.27358C38.3395 3.03188 38.1488 2.83594 37.9136 2.83594C37.6785 2.83594 37.4878 3.03188 37.4878 3.27358C37.4878 3.51529 37.6785 3.71123 37.9136 3.71123Z" fill="#E6E6E6"/>
<path d="M43.7882 12.5312C43.2242 12.5312 42.7656 12.7042 42.7656 12.9168V18.8927C42.7656 19.1053 43.2242 19.2782 43.7882 19.2782C44.3521 19.2782 44.8107 19.1053 44.8107 18.8927V12.9168C44.8107 12.7042 44.3521 12.5312 43.7882 12.5312Z" fill="#005EA6"/>
<path d="M24.4211 42.9992C24.4188 42.2928 24.4164 41.5864 24.4141 40.8801H25.9549C25.9541 40.3907 25.9533 39.9005 25.9525 39.4111L24.4141 39.3986V38.2481C24.9277 38.2481 25.4413 38.2481 25.9549 38.2481C25.9549 37.6627 25.9549 37.0773 25.9549 36.4919H24.4141C24.4141 35.9244 24.4125 35.357 24.4117 34.7895C24.7645 33.6499 25.7894 32.8522 26.9547 32.7992C28.2012 32.743 29.3557 33.55 29.7459 34.7685C29.7444 37.512 29.7428 40.2556 29.7412 43H31.6754C31.6567 40.2182 31.6379 37.4363 31.6192 34.6537C31.0947 32.4791 29.1332 30.9602 26.9547 31.0008C24.905 31.039 23.0856 32.451 22.515 34.4711C22.5236 35.1681 22.5322 35.8651 22.5408 36.5621C22.0272 36.5621 21.5136 36.5621 21 36.5621C21 37.1241 21 37.6861 21 38.2481C21.5136 38.2481 22.0272 38.2481 22.5408 38.2481V39.3994C22.0272 39.3994 21.5136 39.3994 21 39.3994C21 39.8935 21 40.3875 21 40.8808H22.5408C22.5431 41.5872 22.5447 42.2936 22.547 43H24.4211V42.9992Z" fill="#FECF0D"/>
<rect x="16.5" y="26.5" width="21" height="21" rx="10.5" stroke="#005EA6"/>
<path d="M51.6912 10.1894C51.4576 9.99643 51.1367 9.94564 50.8523 10.0614L32.7842 17.4146C32.7801 17.4166 32.776 17.4187 32.772 17.4207C32.2723 17.6462 31.9717 18.1397 32.0021 18.6801V18.6841C32.0366 19.2285 32.3942 19.6794 32.9162 19.8358L39.7553 21.9037L40.0031 26.535V26.537C40.0234 26.8702 40.2407 27.1545 40.5576 27.2663C40.6429 27.2988 40.7344 27.315 40.8319 27.315C41.0715 27.315 41.2909 27.2175 41.4514 27.0388L43.7467 24.4977L47.0393 26.7767C47.2567 26.9291 47.5086 27.0083 47.7726 27.0083C48.3759 27.0083 48.9081 26.5756 49.034 25.9805C49.034 25.9784 49.034 25.9764 49.0361 25.9744L51.9773 10.9898C52.0342 10.6933 51.9228 10.3803 51.6912 10.1894ZM49.8001 13.482L47.519 25.0966L41.8499 21.1721L49.8001 13.482ZM42.3738 23.5448L41.545 24.4609L41.4638 22.9151L42.3738 23.5448ZM47.8356 13.0757L40.3242 20.3434L34.3888 18.5498L47.8356 13.0757Z" fill="#005EA6"/>
<path d="M47.8356 13.0757L40.3242 20.3434L34.3888 18.5498L47.8356 13.0757Z" fill="white"/>
<path d="M49.8001 13.482L47.519 25.0966L41.8499 21.1721L49.8001 13.482Z" fill="white"/>
</g>
<defs>
<clipPath id="clip0_195_443">
<rect width="53" height="64" fill="white"/>
</clipPath>
</defs>
</svg>
