<svg width="148" height="41" viewBox="0 0 148 41" fill="none" xmlns="http://www.w3.org/2000/svg">
<path d="M120.023 21.7366L122.564 14.6164H117.12C116.047 17.5496 114.973 20.4808 113.898 23.4101H119.342L115.348 34.2978H120.98C122.473 30.1098 123.969 25.9227 125.467 21.7366H120.023Z" fill="#F5EB1B"/>
<path d="M92.0325 24.0801H97.7809L100.588 16.3624H102.929C101.945 19.0694 100.962 21.7705 99.9822 24.4658L96.4003 34.2978H102.149L106.134 23.3405C107.189 20.4402 108.246 17.5332 109.304 14.6193H95.4693L92.0325 24.0801Z" fill="#F5EB1B"/>
<path d="M56.5937 24.2483L57.5508 22.5719H55.5699C56.5367 19.9211 57.5092 17.2692 58.4876 14.6164H29.1133L28.5333 16.2928H29.2351L26.3958 24.2483H39.8909L42.8086 16.2928H44.9403L42.098 24.2483H49.4154L45.8278 34.2978H51.2716L54.955 24.2483H56.5937ZM34.94 22.5719H32.5386C33.312 20.4779 34.0796 18.3849 34.8414 16.2928H37.1849L34.94 22.5719ZM48.2408 22.5719L50.5466 16.2928H52.2577C51.5095 18.3868 50.7622 20.4798 50.0158 22.5719H48.2408Z" fill="#F5EB1B"/>
<path d="M18.0921 14.6164H12.2915L5.62085 34.2978H11.0734C13.0166 28.8549 14.9608 23.4111 16.9059 17.9663H19.5423L13.994 34.2978H19.4379C21.383 28.8549 23.3272 23.4111 25.2704 17.9663H25.5604L26.1579 16.2725L17.5121 16.2754C17.7035 15.7301 17.9036 15.1733 18.0921 14.6164Z" fill="#F5EB1B"/>
<path d="M66.6866 24.4456H66.733H66.675C65.7083 27.0984 64.7357 29.7512 63.7573 32.404H61.6256L68.0585 14.3931H62.6146C60.2074 20.9536 57.8011 27.516 55.3958 34.0803H68.7778L71.7477 25.7768L72.9484 26.0929L72.8962 26.293C72.8266 28.0487 74.0776 29.3055 76.6492 30.0634L78.0993 30.4173C77.8559 29.7096 77.7785 28.9554 77.8731 28.213C77.8722 28.1976 77.8722 28.1821 77.8731 28.1666C77.9536 27.5762 78.133 27.0036 78.4039 26.4729C78.7827 25.7336 79.2939 25.0701 79.912 24.5152L66.7301 24.3991L66.6866 24.4456Z" fill="#F5EB1B"/>
<path d="M130.522 14.6164C129.48 17.4587 128.44 20.302 127.402 23.1462H129.6C128.44 24.4542 126.12 27.0645 126.12 27.0645L125.894 27.3197L123.46 34.2978H129.093L130.94 29.3006L136.285 23.1462H132.944C133.75 20.8607 134.558 18.5763 135.366 16.2928H141.022C138.819 22.2868 136.619 28.2884 134.42 34.2978H140.05L147.08 14.6164H130.522Z" fill="#F5EB1B"/>
<path d="M10.128 10.498C9.8428 11.2637 9.42235 11.972 8.88672 12.5891L21.9903 11.139L17.7007 10.5589L15.5052 10.2689L15.5313 10.0658C15.3921 8.34305 14.0222 7.26125 11.4216 6.82041L9.97143 6.64349C10.2926 7.30696 10.4573 8.03522 10.4529 8.77231V8.81582C10.4385 9.39066 10.3287 9.95911 10.128 10.498Z" fill="#FDCF0E"/>
<path d="M128.33 10.498C128.043 11.2635 127.621 11.9716 127.085 12.5891L140.189 11.139L135.899 10.5589L133.704 10.2689L133.733 10.0658C133.59 8.34305 132.219 7.26125 129.62 6.82041L128.17 6.64349C128.491 7.30696 128.656 8.03522 128.652 8.77231V8.81582C128.636 9.39031 128.528 9.95847 128.33 10.498Z" fill="#FDCF0E"/>
<path d="M130.522 14.6164C130.232 15.3763 129.965 16.1333 129.69 16.8932L146.996 14.863L147.089 14.6106L130.522 14.6164Z" fill="#FDCF0E"/>
<path d="M120.151 14.6164H111.122L110.519 16.2928H116.508C116.232 17.0392 115.958 17.7845 115.687 18.5289L121.407 17.8618L122.567 14.6164H120.151Z" fill="#FDCF0E"/>
<path d="M93.0911 21.1711L99.0947 20.4692L100.588 16.3624H102.929L101.54 20.1821L107.54 19.4802C108.132 17.8599 108.722 16.2387 109.31 14.6164H95.4751L93.0911 21.1711Z" fill="#FDCF0E"/>
<path d="M58.6558 25.1938L64.4564 24.518L68.0672 14.4047H62.6147L58.6558 25.1938Z" fill="#FDCF0E"/>
<path d="M29.1133 14.6164L28.5333 16.2928H29.2351L26.3958 24.2483H39.8909C40.8576 21.5936 41.8302 18.9418 42.8086 16.2928H44.9403C43.9909 18.9437 43.0435 21.5955 42.098 24.2483H49.4154C49.166 24.9541 48.9147 25.6589 48.6614 26.3627L54.4272 25.6898C54.6051 25.2083 54.781 24.7249 54.955 24.2396H56.5937L57.5508 22.5633H55.5699C56.5367 19.9124 57.5092 17.2605 58.4876 14.6077L29.1133 14.6164ZM34.9429 22.5719H32.5415C33.3149 20.4779 34.0825 18.3849 34.8443 16.2928H37.1878L34.9429 22.5719ZM50.0245 22.5719H48.2553L50.5611 16.2928H52.2722C51.5143 18.3868 50.7622 20.4799 50.0158 22.5719H50.0245Z" fill="#FDCF0E"/>
<path d="M18.0922 14.6164H12.2916L6.63599 31.2728L12.3728 30.6029C13.8751 26.3916 15.3794 22.1794 16.8857 17.9663H19.5423C18.1502 22.0653 16.759 26.1615 15.3688 30.2548L21.123 29.5819L25.2704 17.9663H25.5605L26.1579 16.2725L17.5121 16.2754C17.7035 15.7301 17.9037 15.1733 18.0922 14.6164Z" fill="#FDCF0E"/>
</svg>
