<svg width="201" height="162" viewBox="0 0 201 162" fill="none" xmlns="http://www.w3.org/2000/svg">
<path d="M167 -1.5L199 65.5L167 180.5" stroke="#0D6DC4" stroke-width="3"/>
<path d="M161 -2L193 65L161 180" stroke="#0D6DC4" stroke-width="3"/>
<path d="M155 -2L187 65L155 180" stroke="#0D6DC4" stroke-width="3"/>
<path d="M149 -2L181 65L149 180" stroke="#0D6DC4" stroke-width="3"/>
<path d="M143 -2L175 65L143 180" stroke="#0D6DC4" stroke-width="3"/>
<path d="M137 -2L169 65L137 180" stroke="#0D6DC4" stroke-width="3"/>
<path d="M131 -2L163 65L131 180" stroke="#0D6DC4" stroke-width="3"/>
<path d="M125 -2L157 65L125 180" stroke="#0D6DC4" stroke-width="3"/>
<path d="M119 -2L151 65L119 180" stroke="#0D6DC4" stroke-width="3"/>
<path d="M113 -2L145 65L113 180" stroke="#0D6DC4" stroke-width="3"/>
<path d="M107 -2L139 65L107 180" stroke="#0D6DC4" stroke-width="3"/>
<path d="M101 -2L133 65L101 180" stroke="#0D6DC4" stroke-width="3"/>
<path d="M95 -2L127 65L95 180" stroke="#0D6DC4" stroke-width="3"/>
<path d="M89 -2L121 65L89 180" stroke="#0D6DC4" stroke-width="3"/>
<path d="M83 -2L115 65L83 180" stroke="#0D6DC4" stroke-width="3"/>
<path d="M77 -2L109 65L77 180" stroke="#0D6DC4" stroke-width="3"/>
<path d="M71 -2L103 65L71 180" stroke="#0D6DC4" stroke-width="3"/>
<path d="M65 -2L97 65L65 180" stroke="#0D6DC4" stroke-width="3"/>
<path d="M59 -2L91 65L59 180" stroke="#0D6DC4" stroke-width="3"/>
<path d="M53 -2L85 65L53 180" stroke="#0D6DC4" stroke-width="3"/>
<path d="M47 -2L79 65L47 180" stroke="#0D6DC4" stroke-width="3"/>
<path d="M41 -2L73 65L41 180" stroke="#0D6DC4" stroke-width="3"/>
<path d="M35 -2L67 65L35 180" stroke="#0D6DC4" stroke-width="3"/>
<path d="M29 -2L61 65L29 180" stroke="#0D6DC4" stroke-width="3"/>
<path d="M23 -2L55 65L23 180" stroke="#0D6DC4" stroke-width="3"/>
<path d="M17 -2L49 65L17 180" stroke="#0D6DC4" stroke-width="3"/>
<path d="M12.5 0.5L43 65L11 177.5" stroke="#0D6DC4" stroke-width="3"/>
<path d="M8 3L37 65L6.5 175" stroke="#0D6DC4" stroke-width="3"/>
<path d="M4 7.5L31 65L2 167" stroke="#0D6DC4" stroke-width="3"/>
<path d="M1.5 14L25 65L1.5 146.5" stroke="#0D6DC4" stroke-width="3"/>
<path d="M1 27.5L19 65L1.5 126" stroke="#0D6DC4" stroke-width="3"/>
<path d="M1 39L13 65L1 110.5" stroke="#0D6DC4" stroke-width="3"/>
<path d="M0.5 51L7 65L2 87" stroke="#0D6DC4" stroke-width="3"/>
</svg>
