<svg width="53" height="64" viewBox="0 0 53 64" fill="none" xmlns="http://www.w3.org/2000/svg">
<path d="M38.6136 63.65H15.1768C12.3191 63.65 9.9942 61.2517 9.9942 58.3037V6.34627C9.9942 3.39834 12.3191 1 15.1768 1H38.6136C41.4712 1 43.7962 3.39834 43.7962 6.34627V58.3037C43.7962 61.2517 41.4712 63.65 38.6136 63.65Z" fill="#0047BA"/>
<path d="M42.225 7.11413V57.3814C42.225 59.8639 40.397 61.8945 38.0856 62.0521H38.0846C38.0504 62.0543 38.0163 62.0565 37.9811 62.0575C37.92 62.0608 37.8589 62.0619 37.7968 62.0619C37.7968 62.0619 37.5691 62.0444 37.153 62.0116C36.7327 61.9788 36.121 61.9295 35.3581 61.865C35.1293 61.8464 34.8881 61.8256 34.6335 61.8037C34.1263 61.7599 33.5694 61.7118 32.9721 61.6571C32.7341 61.6363 32.4877 61.6133 32.2362 61.5904C30.9506 61.4733 29.5107 61.3365 27.9922 61.1812C27.7355 61.156 27.4767 61.1297 27.2159 61.1024C27.1475 61.0947 27.0782 61.0882 27.0088 61.0805C25.9261 60.9678 11.2398 57.9678 11.2398 57.3814V7.11413C11.2398 4.52878 13.2221 2.43358 15.668 2.43358H18.3117C18.7341 2.43358 19.0736 2.7815 19.1098 3.2268C19.1129 3.25634 19.116 3.28588 19.1212 3.31542C19.1978 3.76291 19.586 4.07473 20.0166 4.07473H33.4483C33.8789 4.07473 34.2671 3.76291 34.3437 3.31542C34.3488 3.28588 34.352 3.25634 34.3551 3.2268C34.3913 2.7815 34.7308 2.43358 35.1531 2.43358H37.7968C40.2428 2.43358 42.225 4.52878 42.225 7.11413Z" fill="white"/>
<path d="M9.99418 10.6366C9.44587 10.6366 9 10.896 9 11.2149V15.8414C9 16.1603 9.44588 16.4197 9.99418 16.4197C10.5425 16.4197 10.9884 16.1603 10.9884 15.8414V11.2149C10.9884 10.896 10.5425 10.6366 9.99418 10.6366Z" fill="#0047BA"/>
<path d="M9.99418 18.3514C9.44587 18.3514 9 18.6108 9 18.9297V23.5562C9 23.8751 9.44588 24.1345 9.99418 24.1345C10.5425 24.1345 10.9884 23.8751 10.9884 23.5562V18.9297C10.9884 18.6108 10.5425 18.3514 9.99418 18.3514Z" fill="#0047BA"/>
<path d="M18.2402 3.1992H14.281C14.2595 3.1992 14.2421 3.21762 14.2421 3.24033V3.70512C14.2421 3.72784 14.2595 3.74625 14.281 3.74625H18.2402C18.2617 3.74625 18.2791 3.72784 18.2791 3.70512V3.24033C18.2791 3.21762 18.2617 3.1992 18.2402 3.1992Z" fill="#E6E6E6"/>
<path d="M35.8078 3.74636C36.0365 3.74636 36.2219 3.55042 36.2219 3.30872C36.2219 3.06702 36.0365 2.87108 35.8078 2.87108C35.5792 2.87108 35.3938 3.06702 35.3938 3.30872C35.3938 3.55042 35.5792 3.74636 35.8078 3.74636Z" fill="#E6E6E6"/>
<path d="M36.9463 3.74636C37.1749 3.74636 37.3603 3.55042 37.3603 3.30872C37.3603 3.06702 37.1749 2.87108 36.9463 2.87108C36.7176 2.87108 36.5322 3.06702 36.5322 3.30872C36.5322 3.55042 36.7176 3.74636 36.9463 3.74636Z" fill="#E6E6E6"/>
<path d="M38.0842 3.74636C38.3129 3.74636 38.4983 3.55042 38.4983 3.30872C38.4983 3.06702 38.3129 2.87108 38.0842 2.87108C37.8555 2.87108 37.6702 3.06702 37.6702 3.30872C37.6702 3.55042 37.8555 3.74636 38.0842 3.74636Z" fill="#E6E6E6"/>
<path d="M29.0136 38.6892H19.7586C19.6128 38.6892 19.4942 38.4513 19.4942 38.1589C19.4942 37.8664 19.6128 37.6285 19.7586 37.6285H29.0136C29.1594 37.6285 29.2781 37.8664 29.2781 38.1589C29.2781 38.4513 29.1594 38.6892 29.0136 38.6892Z" fill="#E6E6E6"/>
<path d="M35.4786 44.3884H19.8163C19.5696 44.3884 19.3688 44.1505 19.3688 43.8581C19.3688 43.5656 19.5696 43.3277 19.8163 43.3277H35.4786C35.7254 43.3277 35.9261 43.5656 35.9261 43.8581C35.9261 44.1505 35.7254 44.3884 35.4786 44.3884Z" fill="#E6E6E6"/>
<path d="M43.7958 12.5663C43.2475 12.5663 42.8016 12.7392 42.8016 12.9518V18.9277C42.8016 19.1403 43.2475 19.3132 43.7958 19.3132C44.3441 19.3132 44.79 19.1403 44.79 18.9277V12.9518C44.79 12.7392 44.3441 12.5663 43.7958 12.5663Z" fill="#0047BA"/>
<path d="M36.8715 36.695H16.0953C15.6072 36.695 15.1391 36.8831 14.794 37.2181C14.4488 37.553 14.2549 38.0072 14.2549 38.4809V48.3037C14.2549 48.7773 14.4488 49.2316 14.794 49.5665C15.1391 49.9014 15.6072 50.0896 16.0953 50.0896H36.8715C37.3596 50.0896 37.8277 49.9014 38.1729 49.5665C38.518 49.2316 38.7119 48.7774 38.7119 48.3037V38.4809C38.7119 38.0072 38.518 37.553 38.1729 37.2181C37.8277 36.8831 37.3596 36.695 36.8715 36.695H36.8715ZM15.5813 37.9132C15.6223 37.906 16.5952 37.7454 17.4008 38.2158C18.2063 38.6861 18.5158 39.5955 18.5286 39.6339L18.5611 39.732L18.4566 39.75C18.3075 39.7726 18.1567 39.7833 18.0057 39.7821C17.5269 39.791 17.0544 39.6754 16.6371 39.4474C15.8316 38.9772 15.5221 38.0677 15.5093 38.0293L15.4768 37.9312L15.5813 37.9132ZM20.0913 47.0331H16.3857C16.1154 47.0331 15.8562 46.9289 15.6651 46.7435C15.474 46.558 15.3666 46.3065 15.3666 46.0442C15.3666 45.782 15.474 45.5305 15.6651 45.345C15.8562 45.1596 16.1154 45.0554 16.3857 45.0554H20.0913C20.3615 45.0554 20.6207 45.1596 20.8118 45.345C21.0029 45.5305 21.1103 45.782 21.1103 46.0442C21.1103 46.3065 21.0029 46.558 20.8118 46.7435C20.6207 46.9289 20.3615 47.0331 20.0913 47.0331ZM36.9518 46.8533C36.9509 47.1392 36.8335 47.4131 36.6252 47.6152C36.4169 47.8173 36.1346 47.9312 35.8401 47.9321H33.0609C32.7663 47.9312 32.484 47.8173 32.2758 47.6152C32.0675 47.4131 31.9501 47.1392 31.9492 46.8533V45.2352C31.9501 44.9493 32.0675 44.6754 32.2758 44.4733C32.484 44.2712 32.7663 44.1572 33.0609 44.1564H35.8401C36.1346 44.1572 36.4169 44.2712 36.6252 44.4733C36.8335 44.6754 36.9509 44.9493 36.9518 45.2352L36.9518 46.8533Z" fill="#FECF0D"/>
<path d="M33.7027 46.5152H32.6771C32.6039 46.5152 32.5337 46.5622 32.4819 46.646C32.4301 46.7297 32.401 46.8432 32.401 46.9617C32.401 47.0801 32.4301 47.1937 32.4819 47.2774C32.5337 47.3611 32.6039 47.4082 32.6771 47.4082H33.7027C33.776 47.4082 33.8462 47.3611 33.898 47.2774C33.9498 47.1937 33.9789 47.0801 33.9789 46.9617C33.9789 46.8432 33.9498 46.7297 33.898 46.646C33.8462 46.5622 33.776 46.5152 33.7027 46.5152Z" fill="#0047BA"/>
<path d="M36.0693 46.5152H35.0437C34.9705 46.5152 34.9002 46.5622 34.8485 46.646C34.7967 46.7297 34.7676 46.8432 34.7676 46.9617C34.7676 47.0801 34.7967 47.1937 34.8485 47.2774C34.9002 47.3611 34.9705 47.4082 35.0437 47.4082H36.0693C36.1426 47.4082 36.2128 47.3611 36.2646 47.2774C36.3164 47.1937 36.3454 47.0801 36.3454 46.9617C36.3454 46.8432 36.3164 46.7297 36.2646 46.646C36.2128 46.5622 36.1426 46.5152 36.0693 46.5152Z" fill="#0047BA"/>
<path d="M33.7027 45.6246H32.6771C32.6039 45.6246 32.5337 45.6716 32.4819 45.7553C32.4301 45.8391 32.401 45.9526 32.401 46.0711C32.401 46.1895 32.4301 46.303 32.4819 46.3868C32.5337 46.4705 32.6039 46.5175 32.6771 46.5175H33.7027C33.776 46.5175 33.8462 46.4705 33.898 46.3868C33.9498 46.303 33.9789 46.1895 33.9789 46.0711C33.9789 45.9526 33.9498 45.8391 33.898 45.7553C33.8462 45.6716 33.776 45.6246 33.7027 45.6246Z" fill="#0047BA"/>
<path d="M36.0693 45.6246H35.0437C34.9705 45.6246 34.9002 45.6716 34.8485 45.7553C34.7967 45.8391 34.7676 45.9526 34.7676 46.0711C34.7676 46.1895 34.7967 46.303 34.8485 46.3868C34.9002 46.4705 34.9705 46.5175 35.0437 46.5175H36.0693C36.1426 46.5175 36.2128 46.4705 36.2646 46.3868C36.3164 46.303 36.3454 46.1895 36.3454 46.0711C36.3454 45.9526 36.3164 45.8391 36.2646 45.7553C36.2128 45.6716 36.1426 45.6246 36.0693 45.6246H36.0693Z" fill="#0047BA"/>
<path d="M33.7027 44.73H32.6771C32.6039 44.73 32.5337 44.7771 32.4819 44.8608C32.4301 44.9445 32.401 45.0581 32.401 45.1765C32.401 45.2949 32.4301 45.4085 32.4819 45.4922C32.5337 45.576 32.6039 45.623 32.6771 45.623H33.7027C33.776 45.623 33.8462 45.576 33.898 45.4922C33.9498 45.4085 33.9789 45.2949 33.9789 45.1765C33.9789 45.0581 33.9498 44.9445 33.898 44.8608C33.8462 44.7771 33.776 44.73 33.7027 44.73Z" fill="#0047BA"/>
<path d="M36.0693 44.73H35.0437C34.9705 44.73 34.9002 44.7771 34.8485 44.8608C34.7967 44.9445 34.7676 45.0581 34.7676 45.1765C34.7676 45.2949 34.7967 45.4085 34.8485 45.4922C34.9002 45.576 34.9705 45.623 35.0437 45.623H36.0693C36.1426 45.623 36.2128 45.576 36.2646 45.4922C36.3164 45.4085 36.3454 45.2949 36.3454 45.1765C36.3454 45.0581 36.3164 44.9445 36.2646 44.8608C36.2128 44.7771 36.1426 44.73 36.0693 44.73H36.0693Z" fill="#0047BA"/>
<path d="M19.9345 15.9999H19.0645L18.6985 14.9919H17.1265L16.7605 15.9999H15.8905L17.6065 11.5659H18.2365L19.9345 15.9999ZM18.4645 14.2539L17.9185 12.7359L17.3665 14.2539H18.4645ZM20.8009 12.3519C20.6569 12.3519 20.5369 12.3059 20.4409 12.2139C20.3449 12.1219 20.2969 12.0039 20.2969 11.8599C20.2969 11.7199 20.3449 11.6039 20.4409 11.5119C20.5409 11.4159 20.6609 11.3679 20.8009 11.3679C20.9409 11.3679 21.0569 11.4159 21.1489 11.5119C21.2449 11.6039 21.2929 11.7199 21.2929 11.8599C21.2929 12.0039 21.2449 12.1219 21.1489 12.2139C21.0569 12.3059 20.9409 12.3519 20.8009 12.3519ZM21.1849 12.7419V15.9999H20.3989V12.7419H21.1849ZM22.7431 15.9999H21.9631V12.7419H22.7131V13.1919C22.9131 12.8359 23.2151 12.6579 23.6191 12.6579C23.7551 12.6579 23.8851 12.6799 24.0091 12.7239L23.9431 13.4739C23.8031 13.4299 23.6771 13.4079 23.5651 13.4079C23.3131 13.4079 23.1131 13.4939 22.9651 13.6659C22.8171 13.8339 22.7431 14.0819 22.7431 14.4099V15.9999ZM26.5758 15.1959L26.8218 15.8079C26.5658 15.9879 26.2518 16.0779 25.8798 16.0779C25.1358 16.0779 24.7638 15.6539 24.7638 14.8059V13.4019H24.2238V12.7419H24.7758V11.5899H25.5498V12.7419H26.6418V13.4019H25.5498V14.7759C25.5498 15.1679 25.7078 15.3639 26.0238 15.3639C26.2078 15.3639 26.3918 15.3079 26.5758 15.1959ZM27.6506 12.3519C27.5066 12.3519 27.3866 12.3059 27.2906 12.2139C27.1946 12.1219 27.1466 12.0039 27.1466 11.8599C27.1466 11.7199 27.1946 11.6039 27.2906 11.5119C27.3906 11.4159 27.5106 11.3679 27.6506 11.3679C27.7906 11.3679 27.9066 11.4159 27.9986 11.5119C28.0946 11.6039 28.1426 11.7199 28.1426 11.8599C28.1426 12.0039 28.0946 12.1219 27.9986 12.2139C27.9066 12.3059 27.7906 12.3519 27.6506 12.3519ZM28.0346 12.7419V15.9999H27.2486V12.7419H28.0346ZM32.7127 12.6519C33.0967 12.6519 33.4127 12.7759 33.6607 13.0239C33.9087 13.2719 34.0327 13.6099 34.0327 14.0379V15.9999H33.2467V14.1819C33.2467 13.9219 33.1847 13.7219 33.0607 13.5819C32.9407 13.4419 32.7767 13.3719 32.5687 13.3719C32.3487 13.3719 32.1687 13.4479 32.0287 13.5999C31.8887 13.7519 31.8187 13.9539 31.8187 14.2059V15.9999H31.0387V14.1879C31.0387 13.9359 30.9747 13.7379 30.8467 13.5939C30.7227 13.4459 30.5567 13.3719 30.3487 13.3719C30.1287 13.3719 29.9467 13.4499 29.8027 13.6059C29.6627 13.7579 29.5927 13.9599 29.5927 14.2119V15.9999H28.8127V12.7419H29.5807V13.2099C29.6727 13.0379 29.8067 12.9019 29.9827 12.8019C30.1627 12.7019 30.3587 12.6519 30.5707 12.6519C30.7907 12.6559 30.9867 12.7079 31.1587 12.8079C31.3307 12.9079 31.4587 13.0499 31.5427 13.2339C31.6587 13.0499 31.8207 12.9079 32.0287 12.8079C32.2367 12.7039 32.4647 12.6519 32.7127 12.6519ZM37.9213 14.3019C37.9213 14.4059 37.9133 14.5219 37.8973 14.6499H35.4133C35.4653 14.8819 35.5753 15.0659 35.7433 15.2019C35.9153 15.3339 36.1373 15.3999 36.4093 15.3999C36.8053 15.3999 37.1633 15.2879 37.4833 15.0639L37.7953 15.6219C37.3913 15.9219 36.9193 16.0719 36.3793 16.0719C36.0833 16.0719 35.8193 16.0239 35.5873 15.9279C35.3593 15.8319 35.1753 15.7039 35.0353 15.5439C34.8953 15.3799 34.7893 15.1999 34.7173 15.0039C34.6493 14.8039 34.6153 14.5919 34.6153 14.3679C34.6153 13.8719 34.7713 13.4659 35.0833 13.1499C35.3993 12.8259 35.8073 12.6639 36.3073 12.6639C36.7753 12.6639 37.1613 12.8119 37.4653 13.1079C37.7693 13.3999 37.9213 13.7979 37.9213 14.3019ZM36.3073 13.3179C36.0793 13.3179 35.8853 13.3839 35.7253 13.5159C35.5693 13.6479 35.4653 13.8279 35.4133 14.0559H37.1533C37.1213 13.8279 37.0273 13.6479 36.8713 13.5159C36.7193 13.3839 36.5313 13.3179 36.3073 13.3179Z" fill="#0047BA"/>
<path d="M30.3211 26.4938L29.6702 25.9435L26.9885 28.3752L26.8146 22.0758L25.9659 22.0758L26.0812 28.3912L23.3196 26.0563L22.6875 26.6295L26.5605 29.904L30.3211 26.4938Z" fill="#0047BA"/>
</svg>
