<svg width="55" height="64" viewBox="0 0 55 64" fill="none" xmlns="http://www.w3.org/2000/svg">
<g clip-path="url(#clip0_253_199)">
<path d="M39.2864 64H14.662C11.6595 64 9.2168 61.55 9.2168 58.5385V5.46147C9.2168 2.45002 11.6595 0 14.662 0H39.2864C42.2888 0 44.7316 2.45002 44.7316 5.46147V58.5385C44.7316 61.55 42.2888 64 39.2864 64Z" fill="#0047BA"/>
<path d="M43.0809 6.24588V57.5963C43.0809 60.1323 41.1603 62.2067 38.7318 62.3676H38.7307C38.6948 62.3699 38.6589 62.3721 38.6219 62.3732C38.5577 62.3766 38.4936 62.3777 38.4283 62.3777C38.4283 62.3777 38.1891 62.3598 37.7519 62.3263C37.3103 62.2928 36.6676 62.2425 35.866 62.1765C35.6257 62.1575 35.3723 62.1363 35.1047 62.1139C34.5718 62.0692 33.9867 62.02 33.3592 61.9642C33.109 61.9429 32.8502 61.9195 32.5859 61.896C31.2352 61.7764 29.7223 61.6367 28.1269 61.478C27.8572 61.4523 27.5853 61.4254 27.3112 61.3975C27.2394 61.3897 27.1666 61.383 27.0937 61.3751C25.9561 61.26 10.5256 58.1954 10.5256 57.5963V6.24588C10.5256 3.60483 12.6083 1.46448 15.1782 1.46448H17.9559C18.3996 1.46448 18.7563 1.8199 18.7944 2.27479C18.7977 2.30497 18.8009 2.33514 18.8064 2.36532C18.8868 2.82245 19.2947 3.14099 19.7471 3.14099H33.8595C34.3119 3.14099 34.7197 2.82245 34.8002 2.36532C34.8056 2.33514 34.8089 2.30497 34.8122 2.27479C34.8502 1.8199 35.2069 1.46448 35.6507 1.46448H38.4283C40.9982 1.46448 43.0809 3.60483 43.0809 6.24588Z" fill="white"/>
<path d="M9.21685 9.84427C8.64077 9.84427 8.1723 10.1092 8.1723 10.435V15.1612C8.1723 15.487 8.64077 15.752 9.21685 15.752C9.79293 15.752 10.2614 15.487 10.2614 15.1612V10.435C10.2614 10.1092 9.79293 9.84427 9.21685 9.84427Z" fill="#0047BA"/>
<path d="M9.21685 17.7253C8.64077 17.7253 8.1723 17.9902 8.1723 18.316V23.0422C8.1723 23.368 8.64077 23.633 9.21685 23.633C9.79293 23.633 10.2614 23.368 10.2614 23.0422V18.316C10.2614 17.9902 9.79293 17.7253 9.21685 17.7253Z" fill="#0047BA"/>
<path d="M44.7313 11.8155C44.1552 11.8155 43.6867 11.9922 43.6867 12.2094V18.314C43.6867 18.5312 44.1552 18.7078 44.7313 18.7078C45.3073 18.7078 45.7758 18.5312 45.7758 18.314V12.2094C45.7758 11.9922 45.3073 11.8155 44.7313 11.8155Z" fill="#0047BA"/>
<rect x="14.3015" y="8.1723" width="14.3015" height="14.3015" rx="7.15077" fill="white" stroke="#0047BA" stroke-width="0.5"/>
<path d="M19.4524 10.9399C19.493 10.9399 19.8103 10.9447 19.848 10.9546C20.0029 10.9654 20.1687 10.9788 20.9333 10.9829C20.9957 10.9034 21.0771 10.8388 21.1709 10.7942C21.2647 10.7496 21.3684 10.7263 21.4735 10.7262C21.6937 10.7262 21.8892 10.8268 22.013 10.9829C22.7775 10.9788 22.9434 10.9654 23.0983 10.9546C23.136 10.9447 23.4538 10.9399 23.4944 10.9399C23.7447 10.9399 23.948 11.1344 23.948 11.3741C23.948 11.6138 23.7449 11.8083 23.4944 11.8083C23.4538 11.8083 23.136 11.803 23.0983 11.7936C22.9434 11.7823 22.7775 11.7694 22.013 11.7653C21.9802 11.8069 21.9422 11.8445 21.8997 11.8775V12.4036H22.15C22.288 12.4036 22.3998 12.5109 22.3998 12.6433C22.3998 12.7757 22.288 12.883 22.15 12.883H20.7963C20.6583 12.883 20.5465 12.7757 20.5465 12.6433C20.5465 12.5109 20.6583 12.4036 20.7963 12.4036H21.0471V11.8775C21.0046 11.8444 20.9664 11.8068 20.9333 11.7653C20.1687 11.7694 20.0029 11.7823 19.848 11.7936C19.8103 11.803 19.493 11.8083 19.4524 11.8083C19.2016 11.8083 18.9985 11.6138 18.9985 11.3741C18.9985 11.1344 19.2016 10.9399 19.4524 10.9399ZM19.7765 19.92H17.7371L17.3661 16.7031H20.1472L19.7765 19.92ZM24.0877 15.088H22.9097C22.8534 15.088 22.7893 15.1388 22.7616 15.1836C22.5099 15.6164 22.0272 15.909 21.4735 15.909C20.9216 15.909 20.4408 15.6184 20.1881 15.1889C20.1619 15.1427 20.0953 15.088 20.0366 15.088H19.8813C19.6442 15.088 19.4526 15.2716 19.4526 15.4982V15.909H18.0615V14.7372C18.0615 14.1959 18.5202 13.7567 19.0861 13.7567H20.296C20.4339 13.7567 20.5462 13.6493 20.5462 13.517V13.2775H22.3998V13.5172C22.3998 13.6496 22.5121 13.7569 22.6506 13.7569H24.0875L24.0877 15.088ZM25.1953 15.5049H24.5V13.2775H25.1953V15.5049Z" fill="#0047BA"/>
<path d="M1.53231 23.904C2.37858 23.904 3.06462 23.218 3.06462 22.3717C3.06462 21.5255 2.37858 20.8394 1.53231 20.8394C0.686037 20.8394 0 21.5255 0 22.3717C0 23.218 0.686037 23.904 1.53231 23.904Z" fill="#FECF0D"/>
<path d="M21.3652 22.76L3.15172 22.7804C3.12863 22.7804 3.10647 22.7545 3.09014 22.7085C3.07381 22.6626 3.06464 22.6002 3.06464 22.5351C3.06464 22.4701 3.07381 22.4077 3.09014 22.3617C3.10647 22.3158 3.12863 22.2899 3.15172 22.2899L21.3652 22.2696C21.3883 22.2696 21.4105 22.2954 21.4268 22.3414C21.4432 22.3874 21.4523 22.4498 21.4523 22.5148C21.4523 22.5799 21.4432 22.6422 21.4268 22.6882C21.4105 22.7342 21.3883 22.76 21.3652 22.76Z" fill="#0047BA"/>
<rect width="14.3015" height="14.3015" rx="7.15077" transform="matrix(-1 0 0 1 28.6031 41.8831)" fill="white" stroke="#0047BA" stroke-width="0.5"/>
<path d="M22.7032 44.4491L18.0241 49.1884C17.735 49.4846 17.8976 50.031 18.2861 50.0719L21.9399 50.4702L19.7494 53.9226C19.65 54.0809 19.6636 54.3005 19.7855 54.4384C19.921 54.5916 20.1333 54.5967 20.2733 54.4486L24.9524 49.7093C25.2414 49.4131 25.0788 48.8666 24.6904 48.8258L21.0366 48.4274L23.2271 44.9751C23.3264 44.8168 23.3129 44.5972 23.1909 44.4593C23.1271 44.3855 23.0401 44.3431 22.9489 44.3412C22.8576 44.3393 22.7694 44.378 22.7032 44.4491Z" fill="#0047BA"/>
<path d="M2.55385 57.6148C3.40012 57.6148 4.08616 56.9287 4.08616 56.0825C4.08616 55.2362 3.40012 54.5502 2.55385 54.5502C1.70758 54.5502 1.02155 55.2362 1.02155 56.0825C1.02155 56.9287 1.70758 57.6148 2.55385 57.6148Z" fill="#FECF0D"/>
<path d="M22.3868 56.4708L4.17327 56.4911C4.15017 56.4911 4.12802 56.4653 4.11168 56.4193C4.09535 56.3733 4.08618 56.3109 4.08618 56.2459C4.08618 56.1809 4.09535 56.1185 4.11168 56.0725C4.12802 56.0265 4.15017 56.0007 4.17327 56.0007L22.3868 55.9803C22.4099 55.9803 22.432 56.0062 22.4484 56.0522C22.4647 56.0982 22.4739 56.1605 22.4739 56.2256C22.4739 56.2906 22.4647 56.353 22.4484 56.399C22.432 56.445 22.4099 56.4708 22.3868 56.4708Z" fill="#0047BA"/>
<rect width="14.3015" height="14.3015" rx="7.15077" transform="matrix(-1 0 0 1 40.8615 24.5169)" fill="white" stroke="#0047BA" stroke-width="0.5"/>
<path fill-rule="evenodd" clip-rule="evenodd" d="M38.6141 31.6677C38.6141 32.8869 38.0986 34.0561 37.1809 34.9182C36.2633 35.7803 35.0187 36.2646 33.7209 36.2646C32.4232 36.2646 31.1786 35.7803 30.2609 34.9182C29.3433 34.0561 28.8277 32.8869 28.8277 31.6677C28.8277 30.4485 29.3433 29.2793 30.2609 28.4172C31.1786 27.5551 32.4232 27.0708 33.7209 27.0708C35.0187 27.0708 36.2633 27.5551 37.1809 28.4172C38.0986 29.2793 38.6141 30.4485 38.6141 31.6677ZM29.6666 31.6677C29.6666 32.6779 30.0937 33.6467 30.8541 34.361C31.6144 35.0753 32.6456 35.4766 33.7209 35.4766C34.7962 35.4766 35.8275 35.0753 36.5878 34.361C37.3481 33.6467 37.7753 32.6779 37.7753 31.6677C37.7753 30.6575 37.3481 29.6887 36.5878 28.9744C35.8275 28.2601 34.7962 27.8588 33.7209 27.8588C32.6456 27.8588 31.6144 28.2601 30.8541 28.9744C30.0937 29.6887 29.6666 30.6575 29.6666 31.6677Z" fill="#0047BA"/>
<path fill-rule="evenodd" clip-rule="evenodd" d="M35.8187 31.6681C35.8187 34.0438 34.9849 36.0023 33.7216 36.0023C32.4583 36.0023 31.6245 34.0438 31.6245 31.6681C31.6245 29.2924 32.4583 27.3339 33.7216 27.3339C34.9849 27.3339 35.8187 29.2924 35.8187 31.6681ZM32.4633 31.6681C32.4633 33.6445 33.1316 35.2143 33.7216 35.2143C34.3116 35.2143 34.9798 33.6445 34.9798 31.6681C34.9798 29.6917 34.3116 28.1219 33.7216 28.1219C33.1316 28.1219 32.4633 29.6917 32.4633 31.6681Z" fill="#0047BA"/>
<path d="M37.2988 29.2858L36.7362 28.7016C36.6803 28.7489 36.6193 28.7961 36.5545 28.8418C35.8437 29.342 34.709 29.6509 33.4703 29.6509C32.4129 29.6509 31.4281 29.4266 30.7128 29.0425C30.5406 28.9501 30.3873 28.8497 30.2548 28.7431L29.7101 29.3425C29.8921 29.4875 30.0883 29.6159 30.2962 29.726C31.144 30.182 32.2725 30.4384 33.4703 30.4384C34.8807 30.4384 36.191 30.0822 37.0578 29.4723C37.1411 29.4136 37.2215 29.3514 37.2988 29.2858ZM37.2988 34.0571L36.7362 34.6413C36.6803 34.5935 36.6193 34.5468 36.5545 34.501C35.8437 34.0009 34.709 33.692 33.4703 33.692C32.4129 33.692 31.4281 33.9163 30.7128 34.3004C30.5406 34.3928 30.3873 34.4932 30.2548 34.5998L29.7101 34.0004C29.8923 33.8556 30.0885 33.7273 30.2962 33.6169C31.144 33.1608 32.2725 32.9045 33.4703 32.9045C34.8807 32.9045 36.191 33.2607 37.0578 33.8706C37.1411 33.9293 37.2215 33.9915 37.2988 34.0571ZM38.3345 32.0613V31.2732H29.1073V32.0613H38.3345Z" fill="#0047BA"/>
<path d="M53.6308 40.2486C54.477 40.2486 55.1631 39.5626 55.1631 38.7163C55.1631 37.8701 54.477 37.184 53.6308 37.184C52.7845 37.184 52.0984 37.8701 52.0984 38.7163C52.0984 39.5626 52.7845 40.2486 53.6308 40.2486Z" fill="#FECF0D"/>
<path d="M52.0114 39.1046L33.7978 39.125C33.7747 39.125 33.7526 39.0991 33.7363 39.0532C33.7199 39.0072 33.7108 38.9448 33.7108 38.8797C33.7108 38.8147 33.7199 38.7523 33.7363 38.7063C33.7526 38.6604 33.7747 38.6345 33.7978 38.6345L52.0114 38.6142C52.0345 38.6142 52.0566 38.64 52.0729 38.686C52.0893 38.732 52.0984 38.7944 52.0984 38.8594C52.0984 38.9245 52.0893 38.9868 52.0729 39.0328C52.0566 39.0788 52.0345 39.1046 52.0114 39.1046Z" fill="#0047BA"/>
</g>
<defs>
<clipPath id="clip0_253_199">
<rect width="55" height="64" fill="white"/>
</clipPath>
</defs>
</svg>
